<svg xmlns="http://www.w3.org/2000/svg" xmlns:xlink="http://www.w3.org/1999/xlink" width="500" zoomAndPan="magnify" viewBox="0 0 375 374.999991" height="500" preserveAspectRatio="xMidYMid meet" version="1.0"><defs><clipPath id="3238c7bf48"><path d="M 39.082031 39.082031 L 335.917969 39.082031 L 335.917969 335.917969 L 39.082031 335.917969 Z M 39.082031 39.082031 " clip-rule="nonzero"/></clipPath><clipPath id="979dfbf4ca"><path d="M 187.5 39.082031 C 105.53125 39.082031 39.082031 105.53125 39.082031 187.5 C 39.082031 269.46875 105.53125 335.917969 187.5 335.917969 C 269.46875 335.917969 335.917969 269.46875 335.917969 187.5 C 335.917969 105.53125 269.46875 39.082031 187.5 39.082031 Z M 187.5 39.082031 " clip-rule="nonzero"/></clipPath><clipPath id="8daf24df88"><path d="M 35.851562 35.851562 L 338.851562 35.851562 L 338.851562 338.851562 L 35.851562 338.851562 Z M 35.851562 35.851562 " clip-rule="nonzero"/></clipPath><clipPath id="5803c8d588"><path d="M 165 195 L 210 195 L 210 287.632812 L 165 287.632812 Z M 165 195 " clip-rule="nonzero"/></clipPath><clipPath id="0b2a908fd4"><path d="M 147.328125 199 L 161 199 L 161 214 L 147.328125 214 Z M 147.328125 199 " clip-rule="nonzero"/></clipPath><clipPath id="bfa0664d1d"><path d="M 147.328125 131 L 227.578125 131 L 227.578125 199 L 147.328125 199 Z M 147.328125 131 " clip-rule="nonzero"/></clipPath><clipPath id="6ce34ca1c5"><path d="M 214 199 L 227.578125 199 L 227.578125 214 L 214 214 Z M 214 199 " clip-rule="nonzero"/></clipPath><clipPath id="d797dd2c4d"><path d="M 168 87.382812 L 207 87.382812 L 207 127 L 168 127 Z M 168 87.382812 " clip-rule="nonzero"/></clipPath></defs><g clip-path="url(#3238c7bf48)"><g clip-path="url(#979dfbf4ca)"><path fill="#a6a6a6" d="M 39.082031 39.082031 L 335.917969 39.082031 L 335.917969 335.917969 L 39.082031 335.917969 Z M 39.082031 39.082031 " fill-opacity="1" fill-rule="nonzero"/></g></g><g clip-path="url(#8daf24df88)"><path fill="#d9d9d9" d="M 187.5 35.851562 C 103.832031 35.851562 35.851562 103.832031 35.851562 187.5 C 35.851562 271.167969 103.832031 339.144531 187.5 339.144531 C 271.167969 339.144531 339.144531 271.167969 339.144531 187.5 C 339.144531 103.832031 271.167969 35.851562 187.5 35.851562 Z M 187.5 42.445312 C 267.695312 42.445312 332.550781 107.304688 332.550781 187.5 C 332.550781 267.695312 267.695312 332.550781 187.5 332.550781 C 107.304688 332.550781 42.445312 267.695312 42.445312 187.5 C 42.445312 107.304688 107.304688 42.445312 187.5 42.445312 Z M 187.5 42.445312 " fill-opacity="1" fill-rule="nonzero"/></g><g clip-path="url(#5803c8d588)"><path fill="#000000" d="M 165.894531 195.75 L 165.894531 277.78125 C 165.894531 283.238281 170.3125 287.65625 175.757812 287.65625 C 181.203125 287.65625 185.621094 283.238281 185.621094 277.78125 L 185.621094 203.617188 L 189.316406 203.617188 L 189.316406 277.78125 C 189.316406 283.238281 193.734375 287.65625 199.179688 287.65625 C 204.625 287.65625 209.042969 283.238281 209.042969 277.78125 L 209.042969 195.75 Z M 165.894531 195.75 " fill-opacity="1" fill-rule="nonzero"/></g><g clip-path="url(#0b2a908fd4)"><path fill="#000000" d="M 147.960938 207.324219 C 148.152344 210.777344 151.003906 213.449219 154.417969 213.449219 C 154.539062 213.449219 154.65625 213.445312 154.777344 213.441406 C 158.347656 213.246094 161.082031 210.191406 160.890625 206.621094 C 160.785156 204.761719 160.703125 202.960938 160.636719 201.207031 L 147.617188 199.335938 C 147.699219 201.898438 147.8125 204.554688 147.960938 207.324219 Z M 147.960938 207.324219 " fill-opacity="1" fill-rule="nonzero"/></g><g clip-path="url(#bfa0664d1d)"><path fill="#000000" d="M 160.402344 189.78125 C 160.371094 168.316406 163.191406 156.425781 165.894531 150.40625 L 165.894531 192.050781 L 209.039062 192.050781 L 209.039062 151.070312 C 209.660156 152.476562 210.285156 154.167969 210.882812 156.214844 C 212.910156 163.144531 214.523438 173.964844 214.515625 190.226562 C 214.515625 192.902344 214.472656 195.730469 214.378906 198.707031 L 227.378906 196.839844 C 227.433594 194.554688 227.460938 192.347656 227.460938 190.226562 C 227.425781 164.292969 223.734375 150.175781 218.785156 141.722656 C 216.308594 137.519531 213.390625 134.777344 210.59375 133.214844 C 207.96875 131.730469 205.578125 131.347656 204.109375 131.316406 C 203.710938 131.226562 203.300781 131.179688 202.875 131.179688 L 197.511719 131.179688 C 196.742188 139.039062 187.648438 145.246094 187.648438 145.246094 C 187.648438 145.246094 178.554688 139.039062 177.78125 131.179688 L 172.058594 131.179688 C 171.632812 131.179688 171.210938 131.230469 170.808594 131.320312 C 170.699219 131.3125 170.59375 131.308594 170.464844 131.308594 C 169.019531 131.296875 166.496094 131.652344 163.761719 133.246094 C 159.605469 135.640625 155.453125 140.527344 152.496094 149.160156 C 149.507812 157.84375 147.464844 170.496094 147.457031 189.78125 C 147.457031 192.039062 147.488281 194.394531 147.546875 196.839844 L 160.546875 198.707031 C 160.449219 195.566406 160.402344 192.589844 160.402344 189.78125 Z M 160.402344 189.78125 " fill-opacity="1" fill-rule="nonzero"/></g><g clip-path="url(#6ce34ca1c5)"><path fill="#000000" d="M 214.046875 206.625 C 213.855469 210.195312 216.589844 213.25 220.160156 213.441406 C 220.28125 213.449219 220.398438 213.453125 220.511719 213.453125 C 223.925781 213.453125 226.785156 210.773438 226.972656 207.320312 C 227.121094 204.554688 227.230469 201.898438 227.308594 199.335938 L 214.292969 201.207031 C 214.226562 202.964844 214.144531 204.765625 214.046875 206.625 Z M 214.046875 206.625 " fill-opacity="1" fill-rule="nonzero"/></g><g clip-path="url(#d797dd2c4d)"><path fill="#000000" d="M 196.691406 123.929688 C 202.761719 120.640625 206.882812 114.214844 206.882812 106.820312 C 206.882812 96.085938 198.191406 87.382812 187.464844 87.382812 C 176.742188 87.382812 168.050781 96.085938 168.050781 106.820312 C 168.050781 114.339844 172.316406 120.855469 178.554688 124.089844 C 181.222656 125.472656 184.253906 126.257812 187.464844 126.257812 C 190.808594 126.257812 193.949219 125.414062 196.691406 123.929688 Z M 196.691406 123.929688 " fill-opacity="1" fill-rule="nonzero"/></g></svg>