<svg xmlns="http://www.w3.org/2000/svg" xmlns:xlink="http://www.w3.org/1999/xlink" width="500" zoomAndPan="magnify" viewBox="0 0 375 374.999991" height="500" preserveAspectRatio="xMidYMid meet" version="1.0"><defs><clipPath id="679a2dd715"><path d="M 42.3125 42.3125 L 339.148438 42.3125 L 339.148438 339.148438 L 42.3125 339.148438 Z M 42.3125 42.3125 " clip-rule="nonzero"/></clipPath><clipPath id="8d9449dab5"><path d="M 190.730469 42.3125 C 108.761719 42.3125 42.3125 108.761719 42.3125 190.730469 C 42.3125 272.699219 108.761719 339.148438 190.730469 339.148438 C 272.699219 339.148438 339.148438 272.699219 339.148438 190.730469 C 339.148438 108.761719 272.699219 42.3125 190.730469 42.3125 Z M 190.730469 42.3125 " clip-rule="nonzero"/></clipPath><clipPath id="0824e8e912"><path d="M 39.082031 39.082031 L 342.082031 39.082031 L 342.082031 342.082031 L 39.082031 342.082031 Z M 39.082031 39.082031 " clip-rule="nonzero"/></clipPath><clipPath id="01ecddfe76"><path d="M 165 195 L 210 195 L 210 287.632812 L 165 287.632812 Z M 165 195 " clip-rule="nonzero"/></clipPath><clipPath id="f43d7b1fe8"><path d="M 147.328125 199 L 161 199 L 161 214 L 147.328125 214 Z M 147.328125 199 " clip-rule="nonzero"/></clipPath><clipPath id="8d1c770da7"><path d="M 147.328125 131 L 227.578125 131 L 227.578125 199 L 147.328125 199 Z M 147.328125 131 " clip-rule="nonzero"/></clipPath><clipPath id="8636878235"><path d="M 214 199 L 227.578125 199 L 227.578125 214 L 214 214 Z M 214 199 " clip-rule="nonzero"/></clipPath><clipPath id="17f2ce8acd"><path d="M 168 87.382812 L 207 87.382812 L 207 127 L 168 127 Z M 168 87.382812 " clip-rule="nonzero"/></clipPath></defs><g clip-path="url(#679a2dd715)"><g clip-path="url(#8d9449dab5)"><path fill="#4388ff" d="M 42.3125 42.3125 L 339.148438 42.3125 L 339.148438 339.148438 L 42.3125 339.148438 Z M 42.3125 42.3125 " fill-opacity="1" fill-rule="nonzero"/></g></g><g clip-path="url(#0824e8e912)"><path fill="#2a55a0" d="M 190.730469 39.082031 C 107.0625 39.082031 39.082031 107.0625 39.082031 190.730469 C 39.082031 274.398438 107.0625 342.375 190.730469 342.375 C 274.398438 342.375 342.375 274.398438 342.375 190.730469 C 342.375 107.0625 274.398438 39.082031 190.730469 39.082031 Z M 190.730469 45.675781 C 270.925781 45.675781 335.785156 110.535156 335.785156 190.730469 C 335.785156 270.925781 270.925781 335.785156 190.730469 335.785156 C 110.535156 335.785156 45.675781 270.925781 45.675781 190.730469 C 45.675781 110.535156 110.535156 45.675781 190.730469 45.675781 Z M 190.730469 45.675781 " fill-opacity="1" fill-rule="nonzero"/></g><g clip-path="url(#01ecddfe76)"><path fill="#ffffff" d="M 165.914062 195.738281 L 165.914062 277.761719 C 165.914062 283.214844 170.335938 287.632812 175.785156 287.632812 C 181.238281 287.632812 185.660156 283.214844 185.660156 277.761719 L 185.660156 203.605469 L 189.359375 203.605469 L 189.359375 277.761719 C 189.359375 283.214844 193.78125 287.632812 199.230469 287.632812 C 204.683594 287.632812 209.105469 283.214844 209.105469 277.761719 L 209.105469 195.738281 Z M 165.914062 195.738281 " fill-opacity="1" fill-rule="nonzero"/></g><g clip-path="url(#f43d7b1fe8)"><path fill="#ffffff" d="M 147.960938 207.308594 C 148.152344 210.761719 151.007812 213.4375 154.425781 213.4375 C 154.546875 213.4375 154.664062 213.433594 154.785156 213.425781 C 158.359375 213.230469 161.097656 210.179688 160.902344 206.605469 C 160.800781 204.746094 160.71875 202.949219 160.652344 201.195312 L 147.617188 199.324219 C 147.699219 201.882812 147.8125 204.542969 147.960938 207.308594 Z M 147.960938 207.308594 " fill-opacity="1" fill-rule="nonzero"/></g><g clip-path="url(#8d1c770da7)"><path fill="#ffffff" d="M 160.414062 189.769531 C 160.382812 168.308594 163.207031 156.417969 165.914062 150.398438 L 165.914062 192.039062 L 209.105469 192.039062 L 209.105469 151.0625 C 209.726562 152.46875 210.351562 154.160156 210.949219 156.207031 C 212.976562 163.136719 214.589844 173.957031 214.585938 190.214844 C 214.585938 192.890625 214.539062 195.71875 214.449219 198.695312 L 227.460938 196.824219 C 227.515625 194.539062 227.542969 192.335938 227.542969 190.214844 C 227.507812 164.285156 223.8125 150.167969 218.859375 141.714844 C 216.378906 137.511719 213.457031 134.769531 210.660156 133.210938 C 208.03125 131.726562 205.640625 131.34375 204.167969 131.308594 C 203.769531 131.222656 203.355469 131.175781 202.933594 131.175781 L 197.566406 131.175781 C 196.792969 139.03125 187.691406 145.238281 187.691406 145.238281 C 187.691406 145.238281 178.589844 139.03125 177.8125 131.175781 L 172.085938 131.175781 C 171.65625 131.175781 171.238281 131.222656 170.835938 131.3125 C 170.722656 131.308594 170.617188 131.300781 170.488281 131.300781 C 169.042969 131.292969 166.515625 131.648438 163.777344 133.242188 C 159.617188 135.636719 155.464844 140.519531 152.5 149.152344 C 149.511719 157.835938 147.464844 170.488281 147.457031 189.769531 C 147.457031 192.027344 147.488281 194.382812 147.546875 196.824219 L 160.5625 198.695312 C 160.460938 195.554688 160.414062 192.578125 160.414062 189.769531 Z M 160.414062 189.769531 " fill-opacity="1" fill-rule="nonzero"/></g><g clip-path="url(#8636878235)"><path fill="#ffffff" d="M 214.113281 206.609375 C 213.921875 210.183594 216.660156 213.234375 220.234375 213.425781 C 220.355469 213.433594 220.472656 213.4375 220.589844 213.4375 C 224.007812 213.4375 226.867188 210.761719 227.050781 207.304688 C 227.199219 204.539062 227.3125 201.882812 227.390625 199.324219 L 214.363281 201.195312 C 214.296875 202.949219 214.214844 204.75 214.113281 206.609375 Z M 214.113281 206.609375 " fill-opacity="1" fill-rule="nonzero"/></g><g clip-path="url(#17f2ce8acd)"><path fill="#ffffff" d="M 196.742188 123.925781 C 202.816406 120.636719 206.941406 114.210938 206.941406 106.820312 C 206.941406 96.085938 198.242188 87.382812 187.507812 87.382812 C 176.773438 87.382812 168.070312 96.085938 168.070312 106.820312 C 168.070312 114.335938 172.34375 120.851562 178.585938 124.082031 C 181.257812 125.46875 184.289062 126.253906 187.507812 126.253906 C 190.851562 126.253906 193.996094 125.410156 196.742188 123.925781 Z M 196.742188 123.925781 " fill-opacity="1" fill-rule="nonzero"/></g></svg>