<svg xmlns="http://www.w3.org/2000/svg" xmlns:xlink="http://www.w3.org/1999/xlink" width="500" zoomAndPan="magnify" viewBox="0 0 375 374.999991" height="500" preserveAspectRatio="xMidYMid meet" version="1.0"><defs><clipPath id="0296f7af07"><path d="M 39.082031 39.082031 L 335.917969 39.082031 L 335.917969 335.917969 L 39.082031 335.917969 Z M 39.082031 39.082031 " clip-rule="nonzero"/></clipPath><clipPath id="4726f0d73e"><path d="M 187.5 39.082031 C 105.53125 39.082031 39.082031 105.53125 39.082031 187.5 C 39.082031 269.46875 105.53125 335.917969 187.5 335.917969 C 269.46875 335.917969 335.917969 269.46875 335.917969 187.5 C 335.917969 105.53125 269.46875 39.082031 187.5 39.082031 Z M 187.5 39.082031 " clip-rule="nonzero"/></clipPath><clipPath id="00a82288f9"><path d="M 35.851562 35.851562 L 338.851562 35.851562 L 338.851562 338.851562 L 35.851562 338.851562 Z M 35.851562 35.851562 " clip-rule="nonzero"/></clipPath><clipPath id="08b516e069"><path d="M 111.640625 99 L 263.140625 99 L 263.140625 293.46875 L 111.640625 293.46875 Z M 111.640625 99 " clip-rule="nonzero"/></clipPath><clipPath id="9ac861c31a"><path d="M 171 81.21875 L 204 81.21875 L 204 115 L 171 115 Z M 171 81.21875 " clip-rule="nonzero"/></clipPath></defs><rect x="-37.5" width="450" fill="#ffffff" y="-37.499999" height="449.999989" fill-opacity="1"/><rect x="-37.5" width="450" fill="#ffffff" y="-37.499999" height="449.999989" fill-opacity="1"/><g clip-path="url(#0296f7af07)"><g clip-path="url(#4726f0d73e)"><path fill="#d65252" d="M 39.082031 39.082031 L 335.917969 39.082031 L 335.917969 335.917969 L 39.082031 335.917969 Z M 39.082031 39.082031 " fill-opacity="1" fill-rule="nonzero"/></g></g><g clip-path="url(#00a82288f9)"><path fill="#ed7979" d="M 187.5 35.851562 C 103.832031 35.851562 35.851562 103.832031 35.851562 187.5 C 35.851562 271.167969 103.832031 339.144531 187.5 339.144531 C 271.167969 339.144531 339.144531 271.167969 339.144531 187.5 C 339.144531 103.832031 271.167969 35.851562 187.5 35.851562 Z M 187.5 42.445312 C 267.695312 42.445312 332.550781 107.304688 332.550781 187.5 C 332.550781 267.695312 267.695312 332.550781 187.5 332.550781 C 107.304688 332.550781 42.445312 267.695312 42.445312 187.5 C 42.445312 107.304688 107.304688 42.445312 187.5 42.445312 Z M 187.5 42.445312 " fill-opacity="1" fill-rule="nonzero"/></g><path fill="#ffffff" d="M 141.9375 150.253906 C 141.773438 150.125 141.542969 150.140625 141.398438 150.289062 C 140.59375 151.144531 138.097656 153.796875 137.246094 154.699219 C 137.167969 154.777344 137.132812 154.886719 137.140625 154.996094 C 137.144531 155.101562 137.195312 155.203125 137.28125 155.273438 C 138.882812 156.597656 145.953125 162.457031 147.769531 163.957031 C 148.011719 164.15625 148.367188 164.144531 148.59375 163.925781 C 151.027344 161.582031 163.878906 149.199219 166.050781 147.101562 C 166.132812 147.023438 166.179688 146.917969 166.175781 146.804688 C 166.171875 146.691406 166.128906 146.585938 166.042969 146.511719 C 165.171875 145.71875 162.773438 143.546875 161.953125 142.800781 C 161.792969 142.660156 161.554688 142.664062 161.398438 142.808594 C 159.703125 144.425781 150.609375 153.09375 148.589844 155.015625 C 148.363281 155.230469 148.011719 155.242188 147.769531 155.046875 C 146.535156 154.035156 142.96875 151.105469 141.9375 150.253906 Z M 141.9375 150.253906 " fill-opacity="1" fill-rule="evenodd"/><path fill="#ffffff" d="M 242.503906 156.460938 C 242.503906 156.339844 242.457031 156.222656 242.371094 156.136719 C 242.285156 156.054688 242.171875 156.003906 242.050781 156.003906 C 236.625 156.003906 184.214844 156.003906 178.789062 156.003906 C 178.667969 156.003906 178.554688 156.054688 178.46875 156.136719 C 178.382812 156.222656 178.335938 156.339844 178.335938 156.460938 C 178.335938 157.839844 178.335938 161.980469 178.335938 163.355469 C 178.335938 163.476562 178.382812 163.59375 178.46875 163.679688 C 178.554688 163.761719 178.667969 163.8125 178.789062 163.8125 C 184.214844 163.8125 236.625 163.8125 242.050781 163.8125 C 242.171875 163.8125 242.285156 163.761719 242.371094 163.679688 C 242.457031 163.59375 242.503906 163.476562 242.503906 163.355469 C 242.503906 161.980469 242.503906 157.839844 242.503906 156.460938 Z M 242.503906 156.460938 " fill-opacity="1" fill-rule="evenodd"/><path fill="#ffffff" d="M 141.9375 184.328125 C 141.773438 184.199219 141.542969 184.214844 141.398438 184.363281 C 140.59375 185.21875 138.097656 187.871094 137.246094 188.773438 C 137.167969 188.851562 137.132812 188.960938 137.140625 189.070312 C 137.144531 189.175781 137.195312 189.277344 137.28125 189.347656 C 138.882812 190.671875 145.953125 196.53125 147.769531 198.03125 C 148.011719 198.230469 148.367188 198.21875 148.59375 198 C 151.027344 195.65625 163.878906 183.273438 166.050781 181.175781 C 166.132812 181.097656 166.179688 180.992188 166.175781 180.878906 C 166.171875 180.765625 166.128906 180.660156 166.042969 180.585938 C 165.171875 179.792969 162.773438 177.621094 161.953125 176.878906 C 161.792969 176.734375 161.554688 176.738281 161.398438 176.882812 C 159.703125 178.5 150.609375 187.167969 148.589844 189.089844 C 148.363281 189.304688 148.011719 189.316406 147.769531 189.121094 C 146.535156 188.105469 142.96875 185.179688 141.9375 184.328125 Z M 141.9375 184.328125 " fill-opacity="1" fill-rule="evenodd"/><path fill="#ffffff" d="M 242.503906 190.53125 C 242.503906 190.410156 242.457031 190.292969 242.371094 190.210938 C 242.285156 190.125 242.171875 190.074219 242.050781 190.074219 C 236.625 190.074219 184.214844 190.074219 178.789062 190.074219 C 178.667969 190.074219 178.554688 190.125 178.46875 190.210938 C 178.382812 190.292969 178.335938 190.410156 178.335938 190.53125 C 178.335938 191.910156 178.335938 196.050781 178.335938 197.425781 C 178.335938 197.550781 178.382812 197.664062 178.46875 197.75 C 178.554688 197.835938 178.667969 197.882812 178.789062 197.882812 C 184.214844 197.882812 236.625 197.882812 242.050781 197.882812 C 242.171875 197.882812 242.285156 197.835938 242.371094 197.75 C 242.457031 197.664062 242.503906 197.550781 242.503906 197.425781 C 242.503906 196.050781 242.503906 191.910156 242.503906 190.53125 Z M 242.503906 190.53125 " fill-opacity="1" fill-rule="evenodd"/><path fill="#ffffff" d="M 141.9375 218.398438 C 141.773438 218.269531 141.542969 218.285156 141.398438 218.433594 C 140.59375 219.289062 138.097656 221.941406 137.246094 222.84375 C 137.167969 222.925781 137.132812 223.03125 137.140625 223.140625 C 137.144531 223.25 137.195312 223.347656 137.28125 223.417969 C 138.882812 224.746094 145.953125 230.601562 147.769531 232.101562 C 148.011719 232.304688 148.367188 232.289062 148.59375 232.074219 C 151.027344 229.726562 163.878906 217.34375 166.050781 215.246094 C 166.132812 215.167969 166.179688 215.0625 166.175781 214.949219 C 166.171875 214.839844 166.128906 214.730469 166.042969 214.65625 C 165.171875 213.863281 162.773438 211.691406 161.953125 210.949219 C 161.792969 210.804688 161.554688 210.808594 161.398438 210.953125 C 159.703125 212.570312 150.609375 221.242188 148.589844 223.160156 C 148.363281 223.375 148.011719 223.386719 147.769531 223.191406 C 146.535156 222.179688 142.96875 219.253906 141.9375 218.398438 Z M 141.9375 218.398438 " fill-opacity="1" fill-rule="evenodd"/><path fill="#ffffff" d="M 242.503906 224.605469 C 242.503906 224.484375 242.457031 224.367188 242.371094 224.285156 C 242.285156 224.199219 242.171875 224.148438 242.050781 224.148438 C 236.625 224.148438 184.214844 224.148438 178.789062 224.148438 C 178.667969 224.148438 178.554688 224.199219 178.46875 224.285156 C 178.382812 224.367188 178.335938 224.484375 178.335938 224.605469 C 178.335938 225.984375 178.335938 230.125 178.335938 231.503906 C 178.335938 231.625 178.382812 231.738281 178.46875 231.824219 C 178.554688 231.910156 178.667969 231.957031 178.789062 231.957031 C 184.214844 231.957031 236.625 231.957031 242.050781 231.957031 C 242.171875 231.957031 242.285156 231.910156 242.371094 231.824219 C 242.457031 231.738281 242.503906 231.625 242.503906 231.503906 C 242.503906 230.125 242.503906 225.984375 242.503906 224.605469 Z M 242.503906 224.605469 " fill-opacity="1" fill-rule="evenodd"/><path fill="#ffffff" d="M 141.9375 252.472656 C 141.773438 252.34375 141.542969 252.359375 141.398438 252.507812 C 140.59375 253.363281 138.097656 256.015625 137.246094 256.917969 C 137.167969 257 137.132812 257.105469 137.140625 257.214844 C 137.144531 257.324219 137.195312 257.421875 137.28125 257.492188 C 138.882812 258.820312 145.953125 264.675781 147.769531 266.175781 C 148.011719 266.378906 148.367188 266.363281 148.59375 266.148438 C 151.027344 263.800781 163.878906 251.417969 166.050781 249.320312 C 166.132812 249.242188 166.179688 249.136719 166.175781 249.023438 C 166.171875 248.914062 166.128906 248.804688 166.042969 248.730469 C 165.171875 247.9375 162.773438 245.765625 161.953125 245.023438 C 161.792969 244.878906 161.554688 244.882812 161.398438 245.027344 C 159.703125 246.644531 150.609375 255.316406 148.589844 257.234375 C 148.363281 257.449219 148.011719 257.460938 147.769531 257.265625 C 146.535156 256.253906 142.96875 253.324219 141.9375 252.472656 Z M 141.9375 252.472656 " fill-opacity="1" fill-rule="evenodd"/><path fill="#ffffff" d="M 242.503906 258.679688 C 242.503906 258.558594 242.457031 258.441406 242.371094 258.359375 C 242.285156 258.273438 242.171875 258.222656 242.050781 258.222656 C 236.625 258.222656 184.214844 258.222656 178.789062 258.222656 C 178.667969 258.222656 178.554688 258.273438 178.46875 258.359375 C 178.382812 258.441406 178.335938 258.558594 178.335938 258.679688 C 178.335938 260.058594 178.335938 264.199219 178.335938 265.578125 C 178.335938 265.699219 178.382812 265.8125 178.46875 265.898438 C 178.554688 265.984375 178.667969 266.03125 178.789062 266.03125 C 184.214844 266.03125 236.625 266.03125 242.050781 266.03125 C 242.171875 266.03125 242.285156 265.984375 242.371094 265.898438 C 242.457031 265.8125 242.503906 265.699219 242.503906 265.578125 C 242.503906 264.195312 242.503906 260.058594 242.503906 258.679688 Z M 242.503906 258.679688 " fill-opacity="1" fill-rule="evenodd"/><g clip-path="url(#08b516e069)"><path fill="#ffffff" d="M 263.261719 120.339844 C 263.257812 120.183594 263.257812 120.023438 263.25 119.867188 C 262.957031 113.164062 256.984375 107.734375 250.601562 107.679688 C 243.148438 107.652344 235.695312 107.632812 228.242188 107.613281 L 228.242188 102.753906 C 228.242188 100.867188 226.710938 99.335938 224.824219 99.335938 C 219.382812 99.335938 208.101562 99.335938 195.761719 99.335938 C 195.136719 103.328125 191.6875 106.390625 187.523438 106.390625 C 183.355469 106.390625 179.90625 103.328125 179.28125 99.335938 C 166.945312 99.335938 155.660156 99.335938 150.21875 99.335938 C 148.332031 99.335938 146.800781 100.867188 146.800781 102.753906 L 146.800781 107.613281 C 139.351562 107.628906 131.898438 107.652344 124.445312 107.679688 C 117.390625 107.742188 111.839844 113.820312 111.78125 120.339844 C 111.601562 173.660156 111.601562 226.980469 111.78125 280.296875 C 111.84375 287.242188 117.847656 292.894531 124.445312 292.960938 C 166.496094 293.078125 208.550781 293.078125 250.601562 292.960938 C 250.734375 292.960938 250.867188 292.957031 250.996094 292.949219 C 257.683594 292.703125 263.199219 286.789062 263.265625 280.296875 C 263.382812 226.976562 263.382812 173.660156 263.261719 120.339844 Z M 255.214844 280.25 C 255.1875 282.785156 252.996094 284.875 250.578125 284.914062 C 208.550781 285.316406 166.519531 285.03125 124.488281 284.914062 C 121.957031 284.890625 119.863281 282.695312 119.824219 280.277344 C 119.34375 226.984375 119.644531 173.683594 119.824219 120.390625 C 119.851562 117.808594 122.082031 115.730469 124.527344 115.726562 C 131.992188 115.726562 139.460938 115.71875 146.925781 115.714844 C 147.6875 120.449219 151.792969 124.066406 156.742188 124.066406 C 172.402344 124.066406 202.632812 124.066406 218.292969 124.066406 C 223.257812 124.066406 227.375 120.429688 228.121094 115.671875 C 235.597656 115.683594 243.074219 115.699219 250.546875 115.726562 C 253.078125 115.75 255.175781 117.9375 255.210938 120.363281 C 255.757812 173.65625 255.335938 226.953125 255.214844 280.25 Z M 255.214844 280.25 " fill-opacity="1" fill-rule="evenodd"/></g><g clip-path="url(#9ac861c31a)"><path fill="#ffffff" d="M 187.519531 81.941406 C 196.398438 81.941406 203.609375 89.152344 203.609375 98.03125 C 203.609375 106.914062 196.398438 114.125 187.519531 114.125 C 178.636719 114.125 171.429688 106.914062 171.429688 98.03125 C 171.429688 89.152344 178.640625 81.941406 187.519531 81.941406 Z M 187.519531 89.683594 C 192.128906 89.683594 195.871094 93.425781 195.871094 98.035156 C 195.871094 102.644531 192.128906 106.390625 187.519531 106.390625 C 182.910156 106.390625 179.164062 102.644531 179.164062 98.035156 C 179.164062 93.425781 182.910156 89.683594 187.519531 89.683594 Z M 187.519531 89.683594 " fill-opacity="1" fill-rule="evenodd"/></g></svg>