<svg xmlns="http://www.w3.org/2000/svg" xmlns:xlink="http://www.w3.org/1999/xlink" width="500" zoomAndPan="magnify" viewBox="0 0 375 374.999991" height="500" preserveAspectRatio="xMidYMid meet" version="1.0"><defs><clipPath id="14febefe7f"><path d="M 39.082031 39.082031 L 335.917969 39.082031 L 335.917969 335.917969 L 39.082031 335.917969 Z M 39.082031 39.082031 " clip-rule="nonzero"/></clipPath><clipPath id="fd3c7d0946"><path d="M 187.5 39.082031 C 105.53125 39.082031 39.082031 105.53125 39.082031 187.5 C 39.082031 269.46875 105.53125 335.917969 187.5 335.917969 C 269.46875 335.917969 335.917969 269.46875 335.917969 187.5 C 335.917969 105.53125 269.46875 39.082031 187.5 39.082031 Z M 187.5 39.082031 " clip-rule="nonzero"/></clipPath><clipPath id="2f57bdbe1b"><path d="M 35.851562 35.851562 L 338.851562 35.851562 L 338.851562 338.851562 L 35.851562 338.851562 Z M 35.851562 35.851562 " clip-rule="nonzero"/></clipPath><clipPath id="90f8f1dbae"><path d="M 164 112.5 L 211 112.5 L 211 160 L 164 160 Z M 164 112.5 " clip-rule="nonzero"/></clipPath><clipPath id="6d99f96fa3"><path d="M 135 159 L 240 159 L 240 262.5 L 135 262.5 Z M 135 159 " clip-rule="nonzero"/></clipPath></defs><g clip-path="url(#14febefe7f)"><g clip-path="url(#fd3c7d0946)"><path fill="#4388ff" d="M 39.082031 39.082031 L 335.917969 39.082031 L 335.917969 335.917969 L 39.082031 335.917969 Z M 39.082031 39.082031 " fill-opacity="1" fill-rule="nonzero"/></g></g><g clip-path="url(#2f57bdbe1b)"><path fill="#2a55a0" d="M 187.5 35.851562 C 103.832031 35.851562 35.851562 103.832031 35.851562 187.5 C 35.851562 271.167969 103.832031 339.144531 187.5 339.144531 C 271.167969 339.144531 339.144531 271.167969 339.144531 187.5 C 339.144531 103.832031 271.167969 35.851562 187.5 35.851562 Z M 187.5 42.445312 C 267.695312 42.445312 332.550781 107.304688 332.550781 187.5 C 332.550781 267.695312 267.695312 332.550781 187.5 332.550781 C 107.304688 332.550781 42.445312 267.695312 42.445312 187.5 C 42.445312 107.304688 107.304688 42.445312 187.5 42.445312 Z M 187.5 42.445312 " fill-opacity="1" fill-rule="nonzero"/></g><g clip-path="url(#90f8f1dbae)"><path fill="#ffffff" d="M 210.785156 135.785156 C 210.785156 148.644531 200.359375 159.070312 187.5 159.070312 C 174.636719 159.070312 164.214844 148.644531 164.214844 135.785156 C 164.214844 122.921875 174.636719 112.5 187.5 112.5 C 200.359375 112.5 210.785156 122.921875 210.785156 135.785156 " fill-opacity="1" fill-rule="nonzero"/></g><g clip-path="url(#6d99f96fa3)"><path fill="#ffffff" d="M 237.164062 192.332031 L 204.375 159.550781 C 199.605469 162.941406 193.785156 164.945312 187.5 164.945312 C 181.210938 164.945312 175.394531 162.941406 170.625 159.550781 L 137.835938 192.332031 C 134.554688 195.621094 134.554688 200.945312 137.835938 204.234375 C 141.121094 207.515625 146.449219 207.515625 149.734375 204.234375 L 165.726562 188.238281 L 165.726562 253.527344 C 165.726562 258.484375 169.746094 262.5 174.695312 262.5 C 179.652344 262.5 183.667969 258.484375 183.667969 253.527344 L 183.667969 226.851562 C 183.667969 224.734375 185.382812 223.019531 187.5 223.019531 C 189.613281 223.019531 191.332031 224.734375 191.332031 226.851562 L 191.332031 253.527344 C 191.332031 258.484375 195.34375 262.5 200.300781 262.5 C 205.253906 262.5 209.273438 258.484375 209.273438 253.527344 L 209.273438 188.238281 L 225.261719 204.234375 C 228.550781 207.515625 233.875 207.515625 237.164062 204.234375 C 240.445312 200.945312 240.445312 195.621094 237.164062 192.332031 " fill-opacity="1" fill-rule="nonzero"/></g></svg>