<svg xmlns="http://www.w3.org/2000/svg" xmlns:xlink="http://www.w3.org/1999/xlink" width="500" zoomAndPan="magnify" viewBox="0 0 375 374.999991" height="500" preserveAspectRatio="xMidYMid meet" version="1.0"><defs><clipPath id="78726e6ec0"><path d="M 39.082031 39.082031 L 335.917969 39.082031 L 335.917969 335.917969 L 39.082031 335.917969 Z M 39.082031 39.082031 " clip-rule="nonzero"/></clipPath><clipPath id="fdc93b247b"><path d="M 187.5 39.082031 C 105.53125 39.082031 39.082031 105.53125 39.082031 187.5 C 39.082031 269.46875 105.53125 335.917969 187.5 335.917969 C 269.46875 335.917969 335.917969 269.46875 335.917969 187.5 C 335.917969 105.53125 269.46875 39.082031 187.5 39.082031 Z M 187.5 39.082031 " clip-rule="nonzero"/></clipPath><clipPath id="94ebb8c722"><path d="M 35.851562 35.851562 L 338.851562 35.851562 L 338.851562 338.851562 L 35.851562 338.851562 Z M 35.851562 35.851562 " clip-rule="nonzero"/></clipPath><clipPath id="18c20a4b7f"><path d="M 155 156 L 224 156 L 224 299.953125 L 155 299.953125 Z M 155 156 " clip-rule="nonzero"/></clipPath><clipPath id="569b954890"><path d="M 183 129 L 235.660156 129 L 235.660156 176 L 183 176 Z M 183 129 " clip-rule="nonzero"/></clipPath></defs><g clip-path="url(#78726e6ec0)"><g clip-path="url(#fdc93b247b)"><path fill="#4388ff" d="M 39.082031 39.082031 L 335.917969 39.082031 L 335.917969 335.917969 L 39.082031 335.917969 Z M 39.082031 39.082031 " fill-opacity="1" fill-rule="nonzero"/></g></g><g clip-path="url(#94ebb8c722)"><path fill="#2a55a0" d="M 187.5 35.851562 C 103.832031 35.851562 35.851562 103.832031 35.851562 187.5 C 35.851562 271.167969 103.832031 339.144531 187.5 339.144531 C 271.167969 339.144531 339.144531 271.167969 339.144531 187.5 C 339.144531 103.832031 271.167969 35.851562 187.5 35.851562 Z M 187.5 42.445312 C 267.695312 42.445312 332.550781 107.304688 332.550781 187.5 C 332.550781 267.695312 267.695312 332.550781 187.5 332.550781 C 107.304688 332.550781 42.445312 267.695312 42.445312 187.5 C 42.445312 107.304688 107.304688 42.445312 187.5 42.445312 Z M 187.5 42.445312 " fill-opacity="1" fill-rule="nonzero"/></g><g clip-path="url(#18c20a4b7f)"><path fill="#ffffff" d="M 198.128906 160.851562 L 163.859375 172.835938 L 163.859375 200.203125 C 163.800781 200.527344 163.746094 200.855469 163.714844 201.1875 L 155.625 287.324219 C 155.023438 293.734375 159.730469 299.421875 166.144531 300.023438 C 166.515625 300.058594 166.882812 300.074219 167.25 300.074219 C 173.195312 300.074219 178.277344 295.546875 178.84375 289.507812 L 186.324219 209.867188 L 192.878906 209.867188 L 200.359375 289.507812 C 200.925781 295.546875 206.007812 300.074219 211.953125 300.074219 C 212.320312 300.074219 212.6875 300.058594 213.058594 300.023438 C 219.46875 299.421875 224.179688 293.734375 223.574219 287.324219 L 215.484375 201.1875 C 215.453125 200.855469 215.402344 200.527344 215.34375 200.203125 L 215.34375 169.183594 L 203.160156 156.84375 C 202.019531 158.644531 200.292969 160.09375 198.128906 160.851562 Z M 198.128906 160.851562 " fill-opacity="1" fill-rule="nonzero"/></g><path fill="#ffffff" d="M 145.320312 195.953125 C 145.4375 196 145.554688 196.023438 145.675781 196.023438 C 146.050781 196.023438 146.410156 195.796875 146.558594 195.425781 C 146.753906 194.9375 146.515625 194.382812 146.027344 194.1875 C 146.007812 194.179688 144.0625 193.355469 143.328125 191.527344 C 142.851562 190.339844 142.96875 188.945312 143.679688 187.382812 C 143.894531 186.902344 143.683594 186.335938 143.203125 186.121094 C 142.722656 185.902344 142.160156 186.117188 141.945312 186.597656 C 141.011719 188.652344 140.882812 190.550781 141.5625 192.234375 C 142.605469 194.839844 145.210938 195.910156 145.320312 195.953125 Z M 145.320312 195.953125 " fill-opacity="1" fill-rule="nonzero"/><path fill="#ffffff" d="M 142.125 199.238281 C 142.253906 199.300781 142.390625 199.328125 142.523438 199.328125 C 142.882812 199.328125 143.226562 199.125 143.386719 198.777344 C 143.609375 198.304688 143.40625 197.738281 142.929688 197.511719 C 142.898438 197.5 139.847656 196.03125 138.78125 192.945312 C 138.082031 190.925781 138.367188 188.621094 139.628906 186.097656 C 139.863281 185.628906 139.675781 185.058594 139.203125 184.820312 C 138.734375 184.585938 138.164062 184.777344 137.925781 185.246094 C 136.421875 188.253906 136.105469 191.0625 136.992188 193.589844 C 138.332031 197.441406 141.96875 199.167969 142.125 199.238281 Z M 142.125 199.238281 " fill-opacity="1" fill-rule="nonzero"/><path fill="#ffffff" d="M 151.351562 174.441406 C 151.578125 174.441406 151.808594 174.429688 152.035156 174.410156 C 152.648438 174.351562 153.261719 174.222656 153.863281 174.015625 L 197.40625 158.785156 C 199.261719 158.136719 200.703125 156.835938 201.574219 155.234375 L 191.273438 144.796875 L 171.949219 151.554688 L 174.859375 148.21875 L 189.570312 143.074219 L 184.582031 138.023438 C 182.597656 136.007812 181.671875 133.347656 181.78125 130.722656 C 181.210938 130.523438 180.65625 130.300781 180.105469 130.058594 L 171.214844 130.058594 C 170.609375 130.058594 170.027344 130.140625 169.46875 130.277344 C 167.085938 130.390625 164.792969 131.617188 163.410156 133.777344 L 144.929688 162.730469 C 143.183594 165.464844 143.363281 169.007812 145.378906 171.554688 C 146.851562 173.414062 149.066406 174.441406 151.351562 174.441406 Z M 151.351562 174.441406 " fill-opacity="1" fill-rule="nonzero"/><g clip-path="url(#569b954890)"><path fill="#ffffff" d="M 216.992188 142.945312 L 217.09375 146.164062 L 200.519531 129.371094 C 197.253906 131.085938 193.539062 132.058594 189.601562 132.058594 C 187.65625 132.058594 185.769531 131.820312 183.957031 131.375 C 184.015625 133.226562 184.738281 135.0625 186.140625 136.484375 L 217.800781 168.558594 L 222.546875 173.367188 C 222.574219 173.394531 222.601562 173.414062 222.628906 173.441406 C 222.710938 173.523438 222.800781 173.597656 222.886719 173.675781 C 223.027344 173.804688 223.171875 173.925781 223.320312 174.039062 C 223.40625 174.109375 223.496094 174.175781 223.585938 174.238281 C 223.765625 174.367188 223.953125 174.484375 224.140625 174.59375 C 224.203125 174.628906 224.261719 174.667969 224.324219 174.703125 C 224.589844 174.84375 224.859375 174.972656 225.136719 175.085938 C 225.164062 175.09375 225.191406 175.101562 225.222656 175.113281 C 225.46875 175.210938 225.71875 175.289062 225.972656 175.359375 C 226.046875 175.378906 226.125 175.398438 226.203125 175.417969 C 226.417969 175.46875 226.636719 175.507812 226.855469 175.539062 C 226.9375 175.554688 227.015625 175.566406 227.097656 175.574219 C 227.378906 175.609375 227.664062 175.628906 227.945312 175.628906 C 227.957031 175.628906 227.964844 175.632812 227.972656 175.632812 C 227.992188 175.632812 228.011719 175.628906 228.03125 175.628906 C 228.308594 175.625 228.582031 175.605469 228.855469 175.574219 C 228.949219 175.5625 229.042969 175.546875 229.136719 175.53125 C 229.367188 175.496094 229.597656 175.449219 229.824219 175.390625 C 229.894531 175.375 229.964844 175.363281 230.03125 175.34375 C 230.328125 175.257812 230.621094 175.15625 230.910156 175.035156 C 230.957031 175.015625 231.003906 174.992188 231.050781 174.96875 C 231.304688 174.859375 231.550781 174.730469 231.792969 174.589844 C 231.828125 174.570312 231.863281 174.554688 231.898438 174.535156 C 231.929688 174.515625 231.957031 174.496094 231.984375 174.476562 C 232.113281 174.398438 232.238281 174.308594 232.363281 174.222656 C 232.457031 174.15625 232.546875 174.09375 232.636719 174.023438 C 232.730469 173.949219 232.828125 173.867188 232.917969 173.789062 C 233.027344 173.695312 233.132812 173.601562 233.238281 173.503906 C 233.261719 173.480469 233.289062 173.460938 233.316406 173.433594 C 233.363281 173.386719 233.40625 173.332031 233.453125 173.285156 C 233.558594 173.175781 233.664062 173.0625 233.761719 172.945312 C 233.832031 172.863281 233.898438 172.777344 233.964844 172.695312 C 234.050781 172.585938 234.132812 172.476562 234.214844 172.359375 C 234.285156 172.257812 234.351562 172.15625 234.414062 172.050781 C 234.480469 171.949219 234.539062 171.851562 234.597656 171.746094 C 234.667969 171.625 234.730469 171.503906 234.789062 171.378906 C 234.835938 171.285156 234.882812 171.195312 234.921875 171.101562 C 234.980469 170.964844 235.035156 170.832031 235.085938 170.695312 C 235.121094 170.601562 235.15625 170.511719 235.1875 170.417969 C 235.230469 170.28125 235.273438 170.144531 235.308594 170.003906 C 235.335938 169.90625 235.363281 169.804688 235.386719 169.703125 C 235.414062 169.574219 235.441406 169.441406 235.464844 169.308594 C 235.484375 169.195312 235.5 169.082031 235.515625 168.964844 C 235.53125 168.84375 235.542969 168.722656 235.550781 168.601562 C 235.5625 168.476562 235.566406 168.347656 235.570312 168.21875 C 235.574219 168.109375 235.574219 168 235.574219 167.890625 C 235.570312 167.753906 235.566406 167.617188 235.554688 167.476562 C 235.546875 167.375 235.539062 167.269531 235.527344 167.164062 C 235.511719 167.027344 235.492188 166.886719 235.46875 166.75 C 235.453125 166.640625 235.429688 166.535156 235.40625 166.425781 C 235.378906 166.296875 235.347656 166.167969 235.316406 166.042969 C 235.28125 165.921875 235.246094 165.804688 235.207031 165.683594 C 235.171875 165.574219 235.136719 165.460938 235.09375 165.351562 C 235.042969 165.214844 234.988281 165.082031 234.929688 164.953125 C 234.886719 164.859375 234.847656 164.765625 234.800781 164.671875 C 234.730469 164.53125 234.65625 164.390625 234.574219 164.253906 C 234.542969 164.195312 234.519531 164.140625 234.484375 164.082031 L 216.164062 133.707031 C 214.550781 131.03125 211.554688 129.707031 208.644531 130.09375 C 208.425781 130.074219 208.207031 130.058594 207.984375 130.058594 L 204.273438 130.058594 Z M 216.992188 142.945312 " fill-opacity="1" fill-rule="nonzero"/></g><path fill="#ffffff" d="M 189.601562 129.871094 C 201.429688 129.871094 211.015625 120.285156 211.015625 108.457031 C 211.015625 96.628906 201.429688 87.042969 189.601562 87.042969 C 177.773438 87.042969 168.1875 96.628906 168.1875 108.457031 C 168.1875 120.285156 177.773438 129.871094 189.601562 129.871094 Z M 190.847656 109.957031 C 194.132812 109.957031 196.796875 113.261719 196.796875 117.335938 C 196.796875 121.40625 194.132812 124.710938 190.847656 124.710938 C 187.5625 124.710938 184.898438 121.40625 184.898438 117.335938 C 184.898438 113.261719 187.5625 109.957031 190.847656 109.957031 Z M 190.847656 109.957031 " fill-opacity="1" fill-rule="nonzero"/><path fill="#ffffff" d="M 199.6875 80.300781 C 196.898438 79.988281 194.726562 81.773438 194.632812 81.851562 C 194.230469 82.1875 194.175781 82.785156 194.511719 83.191406 C 194.847656 83.59375 195.449219 83.648438 195.851562 83.3125 C 195.867188 83.296875 197.511719 81.964844 199.476562 82.195312 C 200.746094 82.335938 201.917969 83.101562 202.960938 84.46875 C 203.148438 84.710938 203.429688 84.84375 203.71875 84.84375 C 203.917969 84.84375 204.121094 84.777344 204.292969 84.648438 C 204.710938 84.328125 204.792969 83.730469 204.472656 83.3125 C 203.105469 81.515625 201.492188 80.503906 199.6875 80.300781 Z M 199.6875 80.300781 " fill-opacity="1" fill-rule="nonzero"/><path fill="#ffffff" d="M 194.394531 79.003906 C 194.421875 78.984375 197.117188 77 200.363281 77.511719 C 202.480469 77.851562 204.382812 79.195312 206.011719 81.507812 C 206.195312 81.773438 206.492188 81.914062 206.789062 81.914062 C 206.980469 81.914062 207.167969 81.855469 207.335938 81.738281 C 207.765625 81.4375 207.871094 80.84375 207.566406 80.414062 C 205.628906 77.660156 203.304688 76.054688 200.664062 75.632812 C 196.644531 74.992188 193.390625 77.378906 193.257812 77.480469 C 192.835938 77.792969 192.75 78.390625 193.0625 78.8125 C 193.378906 79.230469 193.976562 79.320312 194.394531 79.003906 Z M 194.394531 79.003906 " fill-opacity="1" fill-rule="nonzero"/></svg>