<svg xmlns="http://www.w3.org/2000/svg" xmlns:xlink="http://www.w3.org/1999/xlink" width="500" zoomAndPan="magnify" viewBox="0 0 375 374.999991" height="500" preserveAspectRatio="xMidYMid meet" version="1.0"><defs><clipPath id="e8c40d602b"><path d="M 39.082031 39.082031 L 335.917969 39.082031 L 335.917969 335.917969 L 39.082031 335.917969 Z M 39.082031 39.082031 " clip-rule="nonzero"/></clipPath><clipPath id="0dd5832465"><path d="M 187.5 39.082031 C 105.53125 39.082031 39.082031 105.53125 39.082031 187.5 C 39.082031 269.46875 105.53125 335.917969 187.5 335.917969 C 269.46875 335.917969 335.917969 269.46875 335.917969 187.5 C 335.917969 105.53125 269.46875 39.082031 187.5 39.082031 Z M 187.5 39.082031 " clip-rule="nonzero"/></clipPath><clipPath id="db76176bb7"><path d="M 35.851562 35.851562 L 338.851562 35.851562 L 338.851562 338.851562 L 35.851562 338.851562 Z M 35.851562 35.851562 " clip-rule="nonzero"/></clipPath><clipPath id="648c282a6e"><path d="M 157 156 L 226 156 L 226 299.953125 L 157 299.953125 Z M 157 156 " clip-rule="nonzero"/></clipPath><clipPath id="7e6ec42e12"><path d="M 185 129 L 237.308594 129 L 237.308594 176 L 185 176 Z M 185 129 " clip-rule="nonzero"/></clipPath></defs><g clip-path="url(#e8c40d602b)"><g clip-path="url(#0dd5832465)"><path fill="#a6a6a6" d="M 39.082031 39.082031 L 335.917969 39.082031 L 335.917969 335.917969 L 39.082031 335.917969 Z M 39.082031 39.082031 " fill-opacity="1" fill-rule="nonzero"/></g></g><g clip-path="url(#db76176bb7)"><path fill="#d9d9d9" d="M 187.5 35.851562 C 103.832031 35.851562 35.851562 103.832031 35.851562 187.5 C 35.851562 271.167969 103.832031 339.144531 187.5 339.144531 C 271.167969 339.144531 339.144531 271.167969 339.144531 187.5 C 339.144531 103.832031 271.167969 35.851562 187.5 35.851562 Z M 187.5 42.445312 C 267.695312 42.445312 332.550781 107.304688 332.550781 187.5 C 332.550781 267.695312 267.695312 332.550781 187.5 332.550781 C 107.304688 332.550781 42.445312 267.695312 42.445312 187.5 C 42.445312 107.304688 107.304688 42.445312 187.5 42.445312 Z M 187.5 42.445312 " fill-opacity="1" fill-rule="nonzero"/></g><g clip-path="url(#648c282a6e)"><path fill="#000000" d="M 199.695312 160.816406 L 165.46875 172.796875 L 165.46875 200.152344 C 165.410156 200.476562 165.359375 200.800781 165.328125 201.136719 L 157.246094 287.234375 C 156.644531 293.644531 161.347656 299.328125 167.753906 299.929688 C 168.121094 299.964844 168.488281 299.980469 168.855469 299.980469 C 174.792969 299.980469 179.867188 295.453125 180.433594 289.417969 L 187.90625 209.808594 L 194.453125 209.808594 L 201.921875 289.417969 C 202.488281 295.453125 207.5625 299.980469 213.503906 299.980469 C 213.867188 299.980469 214.234375 299.964844 214.605469 299.929688 C 221.007812 299.328125 225.710938 293.644531 225.109375 287.234375 L 217.03125 201.136719 C 217 200.800781 216.945312 200.472656 216.886719 200.148438 L 216.886719 169.144531 L 204.722656 156.808594 C 203.582031 158.609375 201.859375 160.058594 199.695312 160.816406 Z M 199.695312 160.816406 " fill-opacity="1" fill-rule="nonzero"/></g><path fill="#000000" d="M 146.957031 195.902344 C 147.070312 195.949219 147.191406 195.972656 147.308594 195.972656 C 147.683594 195.972656 148.042969 195.746094 148.191406 195.375 C 148.386719 194.886719 148.148438 194.332031 147.664062 194.136719 C 147.640625 194.128906 145.699219 193.304688 144.964844 191.476562 C 144.488281 190.292969 144.609375 188.898438 145.316406 187.335938 C 145.53125 186.855469 145.320312 186.292969 144.839844 186.074219 C 144.363281 185.855469 143.800781 186.070312 143.582031 186.550781 C 142.652344 188.605469 142.523438 190.503906 143.203125 192.1875 C 144.246094 194.789062 146.84375 195.859375 146.957031 195.902344 Z M 146.957031 195.902344 " fill-opacity="1" fill-rule="nonzero"/><path fill="#000000" d="M 143.761719 199.1875 C 143.894531 199.246094 144.027344 199.277344 144.164062 199.277344 C 144.519531 199.277344 144.863281 199.074219 145.023438 198.726562 C 145.246094 198.253906 145.042969 197.6875 144.566406 197.460938 C 144.539062 197.449219 141.492188 195.980469 140.425781 192.898438 C 139.726562 190.878906 140.011719 188.574219 141.273438 186.050781 C 141.507812 185.582031 141.316406 185.011719 140.847656 184.777344 C 140.378906 184.539062 139.808594 184.730469 139.570312 185.199219 C 138.070312 188.207031 137.753906 191.015625 138.636719 193.542969 C 139.976562 197.390625 143.609375 199.117188 143.761719 199.1875 Z M 143.761719 199.1875 " fill-opacity="1" fill-rule="nonzero"/><path fill="#000000" d="M 152.976562 174.398438 C 153.207031 174.398438 153.433594 174.386719 153.664062 174.367188 C 154.273438 174.3125 154.886719 174.183594 155.484375 173.972656 L 198.972656 158.75 C 200.828125 158.101562 202.265625 156.800781 203.136719 155.199219 L 192.847656 144.769531 L 173.550781 151.523438 L 176.453125 148.1875 L 191.148438 143.046875 L 186.167969 137.996094 C 184.183594 135.984375 183.257812 133.324219 183.367188 130.699219 C 182.800781 130.5 182.246094 130.277344 181.695312 130.035156 L 172.816406 130.035156 C 172.214844 130.035156 171.632812 130.117188 171.070312 130.253906 C 168.691406 130.367188 166.402344 131.59375 165.023438 133.753906 L 146.566406 162.695312 C 144.820312 165.429688 145 168.96875 147.011719 171.511719 C 148.484375 173.371094 150.695312 174.398438 152.976562 174.398438 Z M 152.976562 174.398438 " fill-opacity="1" fill-rule="nonzero"/><g clip-path="url(#7e6ec42e12)"><path fill="#000000" d="M 218.535156 142.917969 L 218.636719 146.136719 L 202.082031 129.351562 C 198.820312 131.0625 195.113281 132.035156 191.179688 132.035156 C 189.238281 132.035156 187.351562 131.796875 185.542969 131.351562 C 185.601562 133.203125 186.320312 135.035156 187.722656 136.460938 L 219.339844 168.519531 L 224.082031 173.324219 C 224.109375 173.351562 224.136719 173.375 224.164062 173.398438 C 224.246094 173.480469 224.335938 173.558594 224.421875 173.636719 C 224.5625 173.761719 224.707031 173.882812 224.851562 174 C 224.941406 174.066406 225.027344 174.132812 225.121094 174.195312 C 225.300781 174.324219 225.484375 174.441406 225.671875 174.550781 C 225.734375 174.585938 225.792969 174.625 225.855469 174.660156 C 226.121094 174.804688 226.390625 174.933594 226.667969 175.042969 C 226.695312 175.054688 226.722656 175.0625 226.753906 175.074219 C 227 175.167969 227.25 175.25 227.503906 175.316406 C 227.578125 175.339844 227.65625 175.355469 227.734375 175.375 C 227.949219 175.425781 228.164062 175.464844 228.382812 175.5 C 228.464844 175.511719 228.546875 175.523438 228.628906 175.535156 C 228.910156 175.566406 229.191406 175.585938 229.476562 175.585938 C 229.484375 175.585938 229.492188 175.589844 229.503906 175.589844 C 229.519531 175.589844 229.539062 175.585938 229.558594 175.585938 C 229.835938 175.582031 230.109375 175.5625 230.382812 175.53125 C 230.476562 175.519531 230.570312 175.503906 230.664062 175.492188 C 230.894531 175.453125 231.125 175.40625 231.351562 175.351562 C 231.421875 175.332031 231.488281 175.320312 231.558594 175.300781 C 231.855469 175.214844 232.148438 175.113281 232.433594 174.992188 C 232.480469 174.972656 232.527344 174.949219 232.574219 174.929688 C 232.828125 174.816406 233.074219 174.6875 233.316406 174.546875 C 233.351562 174.527344 233.386719 174.515625 233.421875 174.492188 C 233.453125 174.476562 233.476562 174.453125 233.507812 174.4375 C 233.636719 174.355469 233.761719 174.269531 233.886719 174.179688 C 233.976562 174.113281 234.070312 174.050781 234.15625 173.984375 C 234.253906 173.90625 234.347656 173.828125 234.441406 173.746094 C 234.546875 173.652344 234.65625 173.5625 234.757812 173.464844 C 234.785156 173.4375 234.8125 173.417969 234.835938 173.394531 C 234.886719 173.34375 234.925781 173.292969 234.972656 173.246094 C 235.078125 173.132812 235.183594 173.019531 235.285156 172.90625 C 235.355469 172.820312 235.417969 172.738281 235.484375 172.652344 C 235.570312 172.542969 235.652344 172.433594 235.734375 172.320312 C 235.804688 172.21875 235.871094 172.113281 235.9375 172.011719 C 236 171.910156 236.058594 171.808594 236.117188 171.707031 C 236.1875 171.585938 236.25 171.464844 236.308594 171.339844 C 236.355469 171.246094 236.398438 171.152344 236.441406 171.058594 C 236.5 170.925781 236.554688 170.792969 236.605469 170.65625 C 236.640625 170.5625 236.675781 170.472656 236.707031 170.378906 C 236.75 170.242188 236.792969 170.105469 236.828125 169.964844 C 236.855469 169.863281 236.882812 169.765625 236.902344 169.664062 C 236.933594 169.53125 236.960938 169.402344 236.980469 169.265625 C 237.003906 169.152344 237.019531 169.042969 237.035156 168.925781 C 237.046875 168.804688 237.058594 168.683594 237.070312 168.5625 C 237.078125 168.4375 237.085938 168.308594 237.089844 168.179688 C 237.09375 168.070312 237.09375 167.960938 237.089844 167.851562 C 237.089844 167.714844 237.082031 167.578125 237.074219 167.441406 C 237.066406 167.335938 237.054688 167.230469 237.042969 167.125 C 237.03125 166.988281 237.011719 166.851562 236.988281 166.710938 C 236.96875 166.605469 236.949219 166.496094 236.925781 166.390625 C 236.898438 166.261719 236.867188 166.132812 236.832031 166.003906 C 236.800781 165.882812 236.765625 165.765625 236.726562 165.648438 C 236.691406 165.535156 236.652344 165.425781 236.613281 165.3125 C 236.5625 165.179688 236.507812 165.046875 236.449219 164.914062 C 236.40625 164.820312 236.367188 164.726562 236.320312 164.636719 C 236.25 164.492188 236.175781 164.355469 236.09375 164.214844 C 236.0625 164.160156 236.039062 164.101562 236.003906 164.046875 L 217.707031 133.679688 C 216.097656 131.007812 213.105469 129.683594 210.195312 130.070312 C 209.980469 130.050781 209.761719 130.035156 209.539062 130.035156 L 205.832031 130.035156 Z M 218.535156 142.917969 " fill-opacity="1" fill-rule="nonzero"/></g><path fill="#000000" d="M 191.179688 129.847656 C 202.992188 129.847656 212.566406 120.265625 212.566406 108.441406 C 212.566406 96.621094 202.992188 87.035156 191.179688 87.035156 C 179.367188 87.035156 169.792969 96.621094 169.792969 108.441406 C 169.792969 120.265625 179.367188 129.847656 191.179688 129.847656 Z M 192.421875 109.945312 C 195.703125 109.945312 198.363281 113.246094 198.363281 117.316406 C 198.363281 121.386719 195.703125 124.691406 192.421875 124.691406 C 189.140625 124.691406 186.480469 121.386719 186.480469 117.316406 C 186.480469 113.246094 189.140625 109.945312 192.421875 109.945312 Z M 192.421875 109.945312 " fill-opacity="1" fill-rule="nonzero"/><path fill="#000000" d="M 201.253906 80.300781 C 198.46875 79.988281 196.296875 81.773438 196.203125 81.847656 C 195.800781 82.183594 195.746094 82.785156 196.085938 83.1875 C 196.417969 83.589844 197.019531 83.644531 197.421875 83.308594 C 197.4375 83.292969 199.082031 81.964844 201.042969 82.191406 C 202.308594 82.332031 203.480469 83.097656 204.519531 84.464844 C 204.707031 84.707031 204.992188 84.835938 205.277344 84.835938 C 205.476562 84.835938 205.683594 84.773438 205.851562 84.644531 C 206.269531 84.324219 206.351562 83.726562 206.03125 83.308594 C 204.664062 81.515625 203.054688 80.503906 201.253906 80.300781 Z M 201.253906 80.300781 " fill-opacity="1" fill-rule="nonzero"/><path fill="#000000" d="M 195.96875 79.003906 C 195.996094 78.980469 198.6875 77 201.925781 77.511719 C 204.042969 77.847656 205.941406 79.191406 207.566406 81.507812 C 207.753906 81.769531 208.046875 81.910156 208.34375 81.910156 C 208.535156 81.910156 208.722656 81.851562 208.890625 81.734375 C 209.320312 81.433594 209.425781 80.839844 209.121094 80.410156 C 207.1875 77.660156 204.867188 76.054688 202.226562 75.632812 C 198.210938 74.992188 194.964844 77.378906 194.828125 77.476562 C 194.410156 77.792969 194.324219 78.390625 194.636719 78.808594 C 194.949219 79.230469 195.546875 79.316406 195.96875 79.003906 Z M 195.96875 79.003906 " fill-opacity="1" fill-rule="nonzero"/></svg>