<svg xmlns="http://www.w3.org/2000/svg" xmlns:xlink="http://www.w3.org/1999/xlink" width="500" zoomAndPan="magnify" viewBox="0 0 375 374.999991" height="500" preserveAspectRatio="xMidYMid meet" version="1.0"><defs><clipPath id="783ac5b90f"><path d="M 39.082031 39.082031 L 335.917969 39.082031 L 335.917969 335.917969 L 39.082031 335.917969 Z M 39.082031 39.082031 " clip-rule="nonzero"/></clipPath><clipPath id="e5045bc37a"><path d="M 187.5 39.082031 C 105.53125 39.082031 39.082031 105.53125 39.082031 187.5 C 39.082031 269.46875 105.53125 335.917969 187.5 335.917969 C 269.46875 335.917969 335.917969 269.46875 335.917969 187.5 C 335.917969 105.53125 269.46875 39.082031 187.5 39.082031 Z M 187.5 39.082031 " clip-rule="nonzero"/></clipPath><clipPath id="bd1fba7796"><path d="M 162 223 L 288.136719 223 L 288.136719 271 L 162 271 Z M 162 223 " clip-rule="nonzero"/></clipPath><clipPath id="dec69d46ed"><path d="M 182 103.238281 L 230 103.238281 L 230 150 L 182 150 Z M 182 103.238281 " clip-rule="nonzero"/></clipPath><clipPath id="4191d21490"><path d="M 86.769531 180.753906 L 117 180.753906 L 117 211 L 86.769531 211 Z M 86.769531 180.753906 " clip-rule="nonzero"/></clipPath><clipPath id="8e3ae92160"><path d="M 99 202 L 128 202 L 128 229.503906 L 99 229.503906 Z M 99 202 " clip-rule="nonzero"/></clipPath><clipPath id="3a40a8e395"><path d="M 35.851562 35.851562 L 338.851562 35.851562 L 338.851562 338.851562 L 35.851562 338.851562 Z M 35.851562 35.851562 " clip-rule="nonzero"/></clipPath></defs><g clip-path="url(#783ac5b90f)"><g clip-path="url(#e5045bc37a)"><path fill="#d65252" d="M 39.082031 39.082031 L 335.917969 39.082031 L 335.917969 335.917969 L 39.082031 335.917969 Z M 39.082031 39.082031 " fill-opacity="1" fill-rule="nonzero"/></g></g><path fill="#ffffff" d="M 206.648438 229.421875 C 206.324219 229.070312 206.015625 228.703125 205.742188 228.308594 C 205.488281 228.667969 205.210938 229.011719 204.910156 229.339844 C 205.488281 229.371094 206.066406 229.398438 206.648438 229.421875 Z M 206.648438 229.421875 " fill-opacity="1" fill-rule="nonzero"/><path fill="#ffffff" d="M 182.316406 227.761719 C 183.703125 227.761719 185.089844 227.871094 186.433594 228.078125 C 187.191406 228.128906 187.976562 228.183594 188.769531 228.242188 C 188.535156 227.902344 188.3125 227.550781 188.117188 227.175781 L 187.949219 226.851562 C 186.234375 223.507812 182.042969 215.140625 177.785156 205.121094 L 177.785156 228.15625 C 179.296875 227.90625 180.820312 227.761719 182.316406 227.761719 Z M 182.316406 227.761719 " fill-opacity="1" fill-rule="nonzero"/><path fill="#ffffff" d="M 223.40625 227.117188 C 222.957031 227.980469 222.40625 228.753906 221.769531 229.4375 C 226.109375 229.21875 230.070312 228.785156 233.707031 228.132812 L 233.707031 205.128906 C 229.449219 215.144531 225.257812 223.507812 223.542969 226.851562 Z M 223.40625 227.117188 " fill-opacity="1" fill-rule="nonzero"/><path fill="#ffffff" d="M 135.386719 223.109375 C 136.140625 223.1875 136.894531 223.304688 137.640625 223.457031 C 138.386719 223.609375 139.125 223.800781 139.851562 224.027344 C 140.578125 224.25 141.292969 224.511719 141.996094 224.808594 C 142.695312 225.101562 143.382812 225.433594 144.050781 225.796875 C 144.722656 226.160156 145.371094 226.554688 146.003906 226.980469 C 146.632812 227.40625 147.242188 227.863281 147.828125 228.351562 C 148.414062 228.835938 148.972656 229.351562 149.507812 229.894531 C 150.042969 230.4375 150.550781 231.003906 151.03125 231.59375 C 151.511719 232.1875 151.960938 232.800781 152.378906 233.433594 C 152.800781 234.070312 153.1875 234.726562 153.542969 235.398438 C 153.894531 236.074219 154.21875 236.761719 154.503906 237.46875 C 154.792969 238.175781 155.042969 238.890625 155.261719 239.621094 C 155.476562 240.351562 155.65625 241.089844 155.800781 241.839844 C 155.945312 242.585938 156.050781 243.339844 156.121094 244.097656 C 156.191406 244.855469 156.226562 245.617188 156.222656 246.378906 C 156.214844 247.140625 156.175781 247.898438 156.09375 248.65625 C 156.015625 249.414062 155.898438 250.167969 155.746094 250.914062 C 155.59375 251.660156 155.40625 252.394531 155.179688 253.125 C 154.953125 253.851562 154.691406 254.566406 154.398438 255.269531 C 154.101562 255.96875 153.773438 256.65625 153.410156 257.324219 C 153.046875 257.996094 152.652344 258.644531 152.222656 259.277344 C 151.796875 259.90625 151.339844 260.515625 150.851562 261.101562 C 150.367188 261.6875 149.851562 262.246094 149.3125 262.78125 C 148.769531 263.316406 148.203125 263.824219 147.609375 264.304688 C 147.019531 264.785156 146.40625 265.234375 145.769531 265.652344 C 145.132812 266.074219 144.480469 266.460938 143.804688 266.816406 C 143.132812 267.167969 142.441406 267.492188 141.734375 267.777344 C 141.03125 268.066406 140.3125 268.316406 139.582031 268.535156 C 138.851562 268.75 138.113281 268.929688 137.367188 269.074219 C 136.617188 269.21875 135.863281 269.328125 135.105469 269.398438 C 134.347656 269.464844 133.585938 269.5 132.824219 269.496094 C 132.0625 269.492188 131.304688 269.449219 130.546875 269.371094 C 129.789062 269.289062 129.039062 269.175781 128.292969 269.019531 C 127.546875 268.867188 126.808594 268.679688 126.082031 268.453125 C 125.355469 268.226562 124.640625 267.96875 123.9375 267.671875 C 123.234375 267.375 122.550781 267.046875 121.878906 266.683594 C 121.210938 266.320312 120.5625 265.925781 119.929688 265.496094 C 119.300781 265.070312 118.691406 264.613281 118.105469 264.128906 C 117.519531 263.640625 116.957031 263.125 116.421875 262.585938 C 115.886719 262.042969 115.378906 261.476562 114.902344 260.882812 C 114.421875 260.292969 113.972656 259.679688 113.550781 259.042969 C 113.132812 258.40625 112.746094 257.753906 112.390625 257.078125 C 112.035156 256.40625 111.714844 255.714844 111.429688 255.007812 C 111.140625 254.304688 110.890625 253.585938 110.671875 252.855469 C 110.457031 252.125 110.273438 251.386719 110.132812 250.640625 C 109.988281 249.890625 109.878906 249.136719 109.808594 248.378906 C 109.738281 247.621094 109.707031 246.859375 109.710938 246.097656 C 109.714844 245.335938 109.757812 244.578125 109.835938 243.820312 C 109.917969 243.0625 110.03125 242.3125 110.1875 241.566406 C 110.339844 240.820312 110.527344 240.082031 110.753906 239.355469 C 110.980469 238.625 111.238281 237.914062 111.535156 237.210938 C 111.832031 236.507812 112.160156 235.824219 112.523438 235.152344 C 112.886719 234.484375 113.28125 233.832031 113.707031 233.203125 C 114.136719 232.570312 114.59375 231.964844 115.078125 231.378906 C 115.566406 230.792969 116.078125 230.230469 116.621094 229.695312 C 117.164062 229.160156 117.730469 228.652344 118.320312 228.171875 C 118.914062 227.695312 119.527344 227.246094 120.164062 226.824219 C 120.800781 226.40625 121.453125 226.019531 122.128906 225.664062 C 122.800781 225.308594 123.492188 224.988281 124.195312 224.699219 C 124.902344 224.414062 125.621094 224.160156 126.351562 223.945312 C 127.078125 223.726562 127.820312 223.546875 128.566406 223.402344 C 129.316406 223.257812 130.066406 223.152344 130.828125 223.082031 C 131.585938 223.011719 132.34375 222.980469 133.105469 222.984375 C 133.867188 222.988281 134.628906 223.03125 135.386719 223.109375 Z M 135.386719 223.109375 " fill-opacity="1" fill-rule="nonzero"/><g clip-path="url(#bd1fba7796)"><path fill="#ffffff" d="M 183.738281 267.289062 C 197.335938 270.058594 207.792969 271 219.289062 269.945312 C 197.371094 267.144531 182.191406 257.460938 177.5625 254.15625 L 177.421875 254.058594 L 177.386719 254.03125 L 177.332031 253.992188 C 175.128906 252.332031 173.699219 249.910156 173.316406 247.175781 C 172.929688 244.441406 173.632812 241.722656 175.292969 239.519531 C 177.261719 236.898438 180.277344 235.398438 183.558594 235.398438 C 185.804688 235.398438 187.945312 236.109375 189.746094 237.460938 C 189.902344 237.570312 190.058594 237.679688 190.273438 237.828125 C 190.929688 238.273438 191.640625 238.730469 192.390625 239.183594 C 194.183594 240.273438 197.117188 241.917969 200.925781 243.585938 C 207.652344 246.535156 218.335938 250.046875 231.039062 250.042969 C 240.238281 250.035156 249.382812 248.207031 258.222656 244.605469 C 259.46875 244.09375 260.785156 243.835938 262.125 243.835938 C 266.34375 243.835938 270.105469 246.359375 271.699219 250.269531 C 271.714844 250.3125 271.726562 250.359375 271.746094 250.40625 C 276.355469 250.042969 281.632812 249.796875 287.527344 249.796875 C 302.21875 249.796875 320.664062 251.308594 341.742188 256.246094 C 342.734375 256.480469 343.722656 256.589844 344.699219 256.589844 C 350.566406 256.589844 355.878906 252.570312 357.273438 246.613281 C 358.898438 239.664062 354.585938 232.710938 347.636719 231.082031 C 324.433594 225.648438 303.988281 223.953125 287.527344 223.953125 C 265.097656 223.957031 250.0625 227.085938 245.328125 228.222656 C 243.664062 228.3125 241.730469 228.558594 239.480469 228.976562 C 232.957031 230.695312 225.886719 231.429688 218.820312 231.621094 C 217.410156 232.324219 215.847656 232.726562 214.210938 232.726562 C 212.589844 232.726562 210.972656 232.328125 209.519531 231.589844 C 207.148438 231.519531 204.808594 231.414062 202.515625 231.285156 C 202.367188 231.371094 202.222656 231.464844 202.070312 231.546875 C 200.589844 232.316406 198.941406 232.726562 197.285156 232.726562 C 194.890625 232.726562 192.632812 231.90625 190.832031 230.472656 C 189.238281 230.351562 187.6875 230.234375 186.210938 230.132812 C 175.632812 228.464844 163.898438 233.847656 162.808594 242.875 C 161.722656 251.90625 168.070312 264.007812 183.738281 267.289062 Z M 183.738281 267.289062 " fill-opacity="1" fill-rule="nonzero"/></g><path fill="#ffffff" d="M 259 246.519531 C 248.960938 250.609375 239.578125 252.105469 231.039062 252.109375 C 218.472656 252.113281 207.695312 248.808594 200.097656 245.480469 C 196.300781 243.820312 193.308594 242.164062 191.316406 240.953125 C 190.320312 240.347656 189.574219 239.855469 189.101562 239.53125 C 188.863281 239.371094 188.695312 239.25 188.597656 239.179688 C 188.550781 239.148438 188.519531 239.125 188.507812 239.113281 L 188.507812 239.117188 C 184.859375 236.382812 179.683594 237.117188 176.941406 240.761719 C 174.191406 244.410156 174.921875 249.59375 178.574219 252.339844 C 179.328125 252.835938 200.046875 268.554688 231.039062 268.652344 C 231.054688 268.652344 231.074219 268.652344 231.089844 268.652344 C 241.566406 268.652344 253.167969 266.765625 265.25 261.832031 C 269.476562 260.109375 271.507812 255.28125 269.78125 251.050781 C 268.058594 246.820312 263.230469 244.792969 259 246.519531 Z M 259 246.519531 " fill-opacity="1" fill-rule="nonzero"/><path fill="#ffffff" d="M 171.816406 183.109375 C 178.03125 203.527344 189.84375 225.980469 189.949219 226.21875 C 191.425781 229.042969 194.300781 230.65625 197.285156 230.65625 C 198.574219 230.65625 199.886719 230.355469 201.109375 229.714844 C 202.671875 228.898438 203.859375 227.652344 204.613281 226.195312 C 204.519531 225.957031 204.425781 225.722656 204.347656 225.476562 C 203.632812 223.179688 203.730469 220.761719 204.609375 218.5625 C 204.609375 218.558594 204.609375 218.554688 204.605469 218.550781 C 204.605469 218.550781 204.3125 217.996094 203.765625 216.90625 C 201.84375 213.105469 196.953125 203.167969 192.621094 192.304688 C 190.457031 186.875 188.433594 181.21875 186.992188 176.082031 C 185.539062 170.96875 184.726562 166.304688 184.75 163.375 C 184.75 163.316406 184.753906 163.265625 184.753906 163.203125 L 186.820312 163.183594 C 186.820312 163.246094 186.820312 163.304688 186.820312 163.371094 C 186.796875 166.140625 187.605469 170.675781 188.980469 175.519531 C 190.28125 180.164062 192.15625 185.550781 194.542969 191.539062 C 198.875 202.414062 203.726562 212.25 205.609375 215.972656 C 205.660156 216.074219 205.699219 216.152344 205.746094 216.242188 C 205.792969 216.152344 205.828125 216.078125 205.878906 215.976562 C 207.765625 212.25 212.613281 202.414062 216.949219 191.539062 C 219.332031 185.566406 221.203125 180.179688 222.507812 175.523438 C 223.886719 170.675781 224.695312 166.140625 224.671875 163.394531 L 226.707031 162.335938 C 226.730469 162.648438 226.742188 162.996094 226.742188 163.375 C 226.765625 166.304688 225.953125 170.96875 224.5 176.082031 C 223.058594 181.222656 221.035156 186.875 218.871094 192.304688 C 214.542969 203.167969 209.648438 213.105469 207.726562 216.90625 C 207.179688 217.996094 206.886719 218.550781 206.886719 218.550781 C 204.769531 222.601562 206.335938 227.601562 210.382812 229.714844 C 211.605469 230.355469 212.917969 230.65625 214.210938 230.65625 C 217.191406 230.65625 220.070312 229.042969 221.546875 226.21875 C 221.648438 225.980469 233.460938 203.527344 239.679688 183.109375 C 241.738281 176.238281 243.253906 169.636719 243.285156 163.375 C 243.269531 160.433594 242.949219 157.488281 241.765625 154.496094 C 241.742188 154.429688 241.71875 154.363281 241.691406 154.292969 C 240.496094 151.261719 237.964844 148.113281 234.46875 146.472656 C 232.179688 145.363281 229.695312 144.917969 227.3125 144.917969 C 227.25 144.917969 227.1875 144.929688 227.125 144.929688 C 226.667969 144.847656 226.199219 144.796875 225.71875 144.796875 L 223.234375 144.796875 C 218.683594 149.148438 212.523438 151.828125 205.746094 151.828125 C 198.96875 151.828125 192.8125 149.148438 188.261719 144.796875 L 185.777344 144.796875 C 185.292969 144.796875 184.824219 144.847656 184.367188 144.929688 C 184.304688 144.925781 184.246094 144.917969 184.183594 144.917969 C 181.800781 144.917969 179.316406 145.363281 177.023438 146.46875 C 173.53125 148.109375 171 151.261719 169.804688 154.292969 C 168.554688 157.351562 168.226562 160.359375 168.210938 163.367188 C 168.210938 163.371094 168.210938 163.371094 168.210938 163.375 C 168.238281 169.636719 169.757812 176.238281 171.816406 183.109375 Z M 171.816406 183.109375 " fill-opacity="1" fill-rule="nonzero"/><g clip-path="url(#dec69d46ed)"><path fill="#ffffff" d="M 229.007812 126.5 C 229.007812 127.261719 228.972656 128.019531 228.898438 128.777344 C 228.820312 129.535156 228.710938 130.289062 228.5625 131.035156 C 228.414062 131.785156 228.226562 132.523438 228.007812 133.25 C 227.785156 133.980469 227.53125 134.695312 227.238281 135.402344 C 226.945312 136.105469 226.621094 136.792969 226.261719 137.464844 C 225.902344 138.136719 225.511719 138.789062 225.089844 139.421875 C 224.664062 140.054688 224.210938 140.667969 223.730469 141.253906 C 223.246094 141.84375 222.734375 142.410156 222.195312 142.945312 C 221.65625 143.484375 221.09375 143.996094 220.503906 144.480469 C 219.914062 144.964844 219.304688 145.417969 218.671875 145.839844 C 218.039062 146.261719 217.382812 146.652344 216.710938 147.011719 C 216.039062 147.371094 215.351562 147.699219 214.648438 147.988281 C 213.945312 148.28125 213.230469 148.539062 212.5 148.757812 C 211.769531 148.980469 211.03125 149.164062 210.285156 149.3125 C 209.539062 149.460938 208.785156 149.574219 208.027344 149.648438 C 207.269531 149.722656 206.507812 149.761719 205.746094 149.761719 C 204.984375 149.761719 204.226562 149.722656 203.46875 149.648438 C 202.710938 149.574219 201.957031 149.460938 201.210938 149.3125 C 200.460938 149.164062 199.722656 148.980469 198.996094 148.757812 C 198.265625 148.539062 197.550781 148.28125 196.84375 147.988281 C 196.140625 147.699219 195.453125 147.371094 194.78125 147.011719 C 194.109375 146.652344 193.457031 146.261719 192.824219 145.839844 C 192.191406 145.417969 191.578125 144.964844 190.992188 144.480469 C 190.402344 143.996094 189.835938 143.484375 189.300781 142.945312 C 188.761719 142.410156 188.25 141.84375 187.765625 141.253906 C 187.28125 140.667969 186.828125 140.054688 186.40625 139.421875 C 185.984375 138.789062 185.589844 138.136719 185.234375 137.464844 C 184.875 136.792969 184.546875 136.105469 184.257812 135.402344 C 183.964844 134.695312 183.707031 133.980469 183.488281 133.25 C 183.265625 132.523438 183.082031 131.785156 182.933594 131.035156 C 182.785156 130.289062 182.671875 129.535156 182.597656 128.777344 C 182.523438 128.019531 182.484375 127.261719 182.484375 126.5 C 182.484375 125.738281 182.523438 124.976562 182.597656 124.21875 C 182.671875 123.460938 182.785156 122.707031 182.933594 121.960938 C 183.082031 121.214844 183.265625 120.476562 183.488281 119.746094 C 183.707031 119.015625 183.964844 118.300781 184.257812 117.597656 C 184.546875 116.894531 184.875 116.207031 185.234375 115.535156 C 185.589844 114.863281 185.984375 114.207031 186.40625 113.574219 C 186.828125 112.941406 187.28125 112.332031 187.765625 111.742188 C 188.25 111.152344 188.761719 110.589844 189.300781 110.050781 C 189.835938 109.511719 190.402344 109 190.992188 108.515625 C 191.578125 108.035156 192.191406 107.582031 192.824219 107.15625 C 193.457031 106.734375 194.109375 106.34375 194.78125 105.984375 C 195.453125 105.625 196.140625 105.300781 196.84375 105.007812 C 197.550781 104.714844 198.265625 104.460938 198.996094 104.238281 C 199.722656 104.019531 200.460938 103.832031 201.210938 103.683594 C 201.957031 103.535156 202.710938 103.425781 203.46875 103.347656 C 204.226562 103.273438 204.984375 103.238281 205.746094 103.238281 C 206.507812 103.238281 207.269531 103.273438 208.027344 103.347656 C 208.785156 103.425781 209.539062 103.535156 210.285156 103.683594 C 211.03125 103.832031 211.769531 104.019531 212.5 104.238281 C 213.230469 104.460938 213.945312 104.714844 214.648438 105.007812 C 215.351562 105.300781 216.039062 105.625 216.710938 105.984375 C 217.382812 106.34375 218.039062 106.734375 218.671875 107.15625 C 219.304688 107.582031 219.914062 108.035156 220.503906 108.515625 C 221.09375 109 221.65625 109.511719 222.195312 110.050781 C 222.734375 110.589844 223.246094 111.152344 223.730469 111.742188 C 224.210938 112.332031 224.664062 112.941406 225.089844 113.574219 C 225.511719 114.207031 225.902344 114.863281 226.261719 115.535156 C 226.621094 116.207031 226.945312 116.894531 227.238281 117.597656 C 227.53125 118.300781 227.785156 119.015625 228.007812 119.746094 C 228.226562 120.476562 228.414062 121.214844 228.5625 121.960938 C 228.710938 122.707031 228.820312 123.460938 228.898438 124.21875 C 228.972656 124.976562 229.007812 125.738281 229.007812 126.5 Z M 229.007812 126.5 " fill-opacity="1" fill-rule="nonzero"/></g><g clip-path="url(#4191d21490)"><path fill="#ffffff" d="M 114.757812 189.820312 L 107.339844 189.820312 L 107.339844 182.40625 C 107.339844 181.503906 106.613281 180.773438 105.710938 180.773438 L 97.449219 180.773438 C 96.546875 180.773438 95.816406 181.503906 95.816406 182.40625 L 95.816406 189.820312 L 88.402344 189.820312 C 87.5 189.820312 86.769531 190.550781 86.769531 191.453125 L 86.769531 199.714844 C 86.769531 200.617188 87.5 201.34375 88.402344 201.34375 L 95.816406 201.34375 L 95.816406 208.761719 C 95.816406 209.660156 96.546875 210.390625 97.449219 210.390625 L 105.710938 210.390625 C 106.613281 210.390625 107.339844 209.660156 107.339844 208.761719 L 107.339844 201.34375 L 114.757812 201.34375 C 115.65625 201.34375 116.386719 200.617188 116.386719 199.714844 L 116.386719 191.453125 C 116.386719 190.550781 115.65625 189.820312 114.757812 189.820312 Z M 114.757812 189.820312 " fill-opacity="1" fill-rule="nonzero"/></g><g clip-path="url(#8e3ae92160)"><path fill="#d9d9d9" d="M 113.972656 219.972656 L 113.972656 224.105469 C 113.972656 224.554688 113.609375 224.921875 113.15625 224.921875 L 109.445312 224.921875 L 109.445312 228.632812 C 109.445312 229.082031 109.078125 229.449219 108.628906 229.449219 L 104.496094 229.449219 C 104.046875 229.449219 103.683594 229.082031 103.683594 228.632812 L 103.683594 224.921875 L 99.96875 224.921875 C 99.519531 224.921875 99.152344 224.554688 99.152344 224.105469 L 99.152344 219.972656 C 99.152344 219.523438 99.519531 219.15625 99.96875 219.15625 L 103.683594 219.15625 L 103.683594 215.445312 C 103.683594 214.996094 104.046875 214.628906 104.496094 214.628906 L 108.628906 214.628906 C 109.078125 214.628906 109.445312 214.996094 109.445312 215.445312 L 109.445312 219.15625 L 113.15625 219.15625 C 113.597656 219.15625 113.972656 219.523438 113.972656 219.972656 Z M 127.320312 206.558594 L 124.285156 206.558594 L 124.285156 203.523438 C 124.285156 203.160156 123.984375 202.859375 123.621094 202.859375 L 120.238281 202.859375 C 119.875 202.859375 119.574219 203.160156 119.574219 203.523438 L 119.574219 206.558594 L 116.539062 206.558594 C 116.171875 206.558594 115.871094 206.859375 115.871094 207.226562 L 115.871094 210.605469 C 115.871094 210.96875 116.171875 211.269531 116.539062 211.269531 L 119.574219 211.269531 L 119.574219 214.308594 C 119.574219 214.671875 119.875 214.972656 120.238281 214.972656 L 123.621094 214.972656 C 123.984375 214.972656 124.285156 214.671875 124.285156 214.308594 L 124.285156 211.269531 L 127.320312 211.269531 C 127.6875 211.269531 127.988281 210.96875 127.988281 210.605469 L 127.988281 207.226562 C 127.996094 206.859375 127.699219 206.558594 127.320312 206.558594 Z M 127.320312 206.558594 " fill-opacity="1" fill-rule="nonzero"/></g><g clip-path="url(#3a40a8e395)"><path fill="#ed7979" d="M 187.5 35.851562 C 103.832031 35.851562 35.851562 103.832031 35.851562 187.5 C 35.851562 271.167969 103.832031 339.144531 187.5 339.144531 C 271.167969 339.144531 339.144531 271.167969 339.144531 187.5 C 339.144531 103.832031 271.167969 35.851562 187.5 35.851562 Z M 187.5 42.445312 C 267.695312 42.445312 332.550781 107.304688 332.550781 187.5 C 332.550781 267.695312 267.695312 332.550781 187.5 332.550781 C 107.304688 332.550781 42.445312 267.695312 42.445312 187.5 C 42.445312 107.304688 107.304688 42.445312 187.5 42.445312 Z M 187.5 42.445312 " fill-opacity="1" fill-rule="nonzero"/></g></svg>