<svg xmlns="http://www.w3.org/2000/svg" xmlns:xlink="http://www.w3.org/1999/xlink" width="500" zoomAndPan="magnify" viewBox="0 0 375 374.999991" height="500" preserveAspectRatio="xMidYMid meet" version="1.0"><defs><clipPath id="63c97cb238"><path d="M 39.082031 39.082031 L 335.917969 39.082031 L 335.917969 335.917969 L 39.082031 335.917969 Z M 39.082031 39.082031 " clip-rule="nonzero"/></clipPath><clipPath id="4c31eb1c54"><path d="M 187.5 39.082031 C 105.53125 39.082031 39.082031 105.53125 39.082031 187.5 C 39.082031 269.46875 105.53125 335.917969 187.5 335.917969 C 269.46875 335.917969 335.917969 269.46875 335.917969 187.5 C 335.917969 105.53125 269.46875 39.082031 187.5 39.082031 Z M 187.5 39.082031 " clip-rule="nonzero"/></clipPath><clipPath id="e5f94d73e4"><path d="M 35.851562 35.851562 L 338.851562 35.851562 L 338.851562 338.851562 L 35.851562 338.851562 Z M 35.851562 35.851562 " clip-rule="nonzero"/></clipPath><clipPath id="0f6825bcc9"><path d="M 157 156 L 226 156 L 226 299.953125 L 157 299.953125 Z M 157 156 " clip-rule="nonzero"/></clipPath><clipPath id="0af9fee323"><path d="M 185 129 L 237.308594 129 L 237.308594 176 L 185 176 Z M 185 129 " clip-rule="nonzero"/></clipPath></defs><g clip-path="url(#63c97cb238)"><g clip-path="url(#4c31eb1c54)"><path fill="#d65252" d="M 39.082031 39.082031 L 335.917969 39.082031 L 335.917969 335.917969 L 39.082031 335.917969 Z M 39.082031 39.082031 " fill-opacity="1" fill-rule="nonzero"/></g></g><g clip-path="url(#e5f94d73e4)"><path fill="#ed7979" d="M 187.5 35.851562 C 103.832031 35.851562 35.851562 103.832031 35.851562 187.5 C 35.851562 271.167969 103.832031 339.144531 187.5 339.144531 C 271.167969 339.144531 339.144531 271.167969 339.144531 187.5 C 339.144531 103.832031 271.167969 35.851562 187.5 35.851562 Z M 187.5 42.445312 C 267.695312 42.445312 332.550781 107.304688 332.550781 187.5 C 332.550781 267.695312 267.695312 332.550781 187.5 332.550781 C 107.304688 332.550781 42.445312 267.695312 42.445312 187.5 C 42.445312 107.304688 107.304688 42.445312 187.5 42.445312 Z M 187.5 42.445312 " fill-opacity="1" fill-rule="nonzero"/></g><g clip-path="url(#0f6825bcc9)"><path fill="#ffffff" d="M 199.777344 160.851562 L 165.507812 172.835938 L 165.507812 200.203125 C 165.449219 200.527344 165.394531 200.855469 165.363281 201.1875 L 157.273438 287.324219 C 156.671875 293.734375 161.378906 299.421875 167.792969 300.023438 C 168.164062 300.058594 168.53125 300.074219 168.894531 300.074219 C 174.84375 300.074219 179.921875 295.546875 180.488281 289.507812 L 187.96875 209.867188 L 194.527344 209.867188 L 202.007812 289.507812 C 202.574219 295.546875 207.652344 300.074219 213.601562 300.074219 C 213.964844 300.074219 214.335938 300.058594 214.703125 300.023438 C 221.117188 299.421875 225.824219 293.734375 225.222656 287.324219 L 217.132812 201.1875 C 217.101562 200.855469 217.046875 200.527344 216.988281 200.203125 L 216.988281 169.183594 L 204.808594 156.84375 C 203.667969 158.644531 201.941406 160.09375 199.777344 160.851562 Z M 199.777344 160.851562 " fill-opacity="1" fill-rule="nonzero"/></g><path fill="#ffffff" d="M 146.96875 195.953125 C 147.082031 196 147.203125 196.023438 147.320312 196.023438 C 147.699219 196.023438 148.054688 195.796875 148.203125 195.425781 C 148.402344 194.9375 148.164062 194.382812 147.675781 194.1875 C 147.65625 194.179688 145.710938 193.355469 144.972656 191.527344 C 144.5 190.339844 144.617188 188.945312 145.324219 187.382812 C 145.542969 186.902344 145.332031 186.335938 144.851562 186.121094 C 144.371094 185.902344 143.808594 186.117188 143.589844 186.597656 C 142.660156 188.652344 142.53125 190.550781 143.207031 192.234375 C 144.253906 194.839844 146.855469 195.910156 146.96875 195.953125 Z M 146.96875 195.953125 " fill-opacity="1" fill-rule="nonzero"/><path fill="#ffffff" d="M 143.769531 199.238281 C 143.902344 199.300781 144.035156 199.328125 144.171875 199.328125 C 144.53125 199.328125 144.871094 199.125 145.035156 198.777344 C 145.253906 198.304688 145.050781 197.738281 144.578125 197.511719 C 144.546875 197.5 141.496094 196.03125 140.429688 192.945312 C 139.730469 190.925781 140.015625 188.621094 141.277344 186.097656 C 141.511719 185.628906 141.320312 185.058594 140.851562 184.820312 C 140.382812 184.585938 139.808594 184.777344 139.574219 185.246094 C 138.070312 188.253906 137.753906 191.0625 138.636719 193.589844 C 139.980469 197.441406 143.617188 199.167969 143.769531 199.238281 Z M 143.769531 199.238281 " fill-opacity="1" fill-rule="nonzero"/><path fill="#ffffff" d="M 152.996094 174.441406 C 153.226562 174.441406 153.453125 174.429688 153.683594 174.410156 C 154.296875 174.351562 154.910156 174.222656 155.507812 174.015625 L 199.050781 158.785156 C 200.910156 158.136719 202.347656 156.835938 203.21875 155.234375 L 192.917969 144.796875 L 173.597656 151.554688 L 176.503906 148.21875 L 191.21875 143.074219 L 186.230469 138.023438 C 184.242188 136.007812 183.320312 133.347656 183.429688 130.722656 C 182.859375 130.523438 182.300781 130.300781 181.753906 130.058594 L 172.863281 130.058594 C 172.257812 130.058594 171.675781 130.140625 171.113281 130.277344 C 168.730469 130.390625 166.441406 131.617188 165.058594 133.777344 L 146.578125 162.730469 C 144.832031 165.464844 145.011719 169.007812 147.027344 171.554688 C 148.496094 173.414062 150.714844 174.441406 152.996094 174.441406 Z M 152.996094 174.441406 " fill-opacity="1" fill-rule="nonzero"/><g clip-path="url(#0af9fee323)"><path fill="#ffffff" d="M 218.640625 142.945312 L 218.742188 146.164062 L 202.167969 129.371094 C 198.898438 131.085938 195.1875 132.058594 191.246094 132.058594 C 189.304688 132.058594 187.414062 131.820312 185.605469 131.375 C 185.664062 133.226562 186.386719 135.0625 187.789062 136.484375 L 219.445312 168.558594 L 224.195312 173.367188 C 224.21875 173.394531 224.25 173.414062 224.273438 173.441406 C 224.359375 173.523438 224.445312 173.597656 224.53125 173.675781 C 224.675781 173.804688 224.820312 173.925781 224.964844 174.039062 C 225.054688 174.109375 225.140625 174.175781 225.234375 174.238281 C 225.414062 174.367188 225.597656 174.484375 225.789062 174.59375 C 225.847656 174.628906 225.910156 174.667969 225.972656 174.703125 C 226.234375 174.84375 226.507812 174.972656 226.78125 175.085938 C 226.808594 175.09375 226.839844 175.101562 226.867188 175.113281 C 227.113281 175.210938 227.367188 175.289062 227.617188 175.359375 C 227.695312 175.378906 227.773438 175.398438 227.851562 175.417969 C 228.066406 175.46875 228.28125 175.507812 228.5 175.539062 C 228.582031 175.554688 228.664062 175.566406 228.746094 175.574219 C 229.027344 175.609375 229.308594 175.628906 229.59375 175.628906 C 229.601562 175.628906 229.613281 175.632812 229.621094 175.632812 C 229.640625 175.632812 229.660156 175.628906 229.679688 175.628906 C 229.953125 175.625 230.226562 175.605469 230.503906 175.574219 C 230.597656 175.5625 230.691406 175.546875 230.785156 175.53125 C 231.015625 175.496094 231.246094 175.449219 231.472656 175.390625 C 231.542969 175.375 231.609375 175.363281 231.679688 175.34375 C 231.976562 175.257812 232.269531 175.15625 232.554688 175.035156 C 232.605469 175.015625 232.652344 174.992188 232.699219 174.96875 C 232.953125 174.859375 233.199219 174.730469 233.441406 174.589844 C 233.476562 174.570312 233.511719 174.554688 233.546875 174.535156 C 233.574219 174.515625 233.601562 174.496094 233.632812 174.476562 C 233.761719 174.398438 233.886719 174.308594 234.011719 174.222656 C 234.101562 174.15625 234.195312 174.09375 234.28125 174.023438 C 234.378906 173.949219 234.472656 173.867188 234.566406 173.789062 C 234.675781 173.695312 234.78125 173.601562 234.882812 173.503906 C 234.910156 173.480469 234.9375 173.460938 234.964844 173.433594 C 235.011719 173.386719 235.050781 173.332031 235.097656 173.285156 C 235.207031 173.175781 235.3125 173.0625 235.410156 172.945312 C 235.480469 172.863281 235.546875 172.777344 235.613281 172.695312 C 235.695312 172.585938 235.78125 172.476562 235.859375 172.359375 C 235.929688 172.257812 235.996094 172.15625 236.0625 172.050781 C 236.125 171.949219 236.1875 171.851562 236.246094 171.746094 C 236.3125 171.625 236.375 171.503906 236.4375 171.378906 C 236.484375 171.285156 236.527344 171.195312 236.570312 171.101562 C 236.628906 170.964844 236.683594 170.832031 236.734375 170.695312 C 236.769531 170.601562 236.804688 170.511719 236.832031 170.417969 C 236.878906 170.28125 236.921875 170.144531 236.957031 170.003906 C 236.984375 169.90625 237.007812 169.804688 237.03125 169.703125 C 237.0625 169.574219 237.085938 169.441406 237.109375 169.308594 C 237.128906 169.195312 237.148438 169.082031 237.160156 168.964844 C 237.175781 168.84375 237.1875 168.722656 237.199219 168.601562 C 237.207031 168.476562 237.214844 168.347656 237.21875 168.21875 C 237.222656 168.109375 237.222656 168 237.21875 167.890625 C 237.21875 167.753906 237.210938 167.617188 237.203125 167.476562 C 237.195312 167.375 237.183594 167.269531 237.171875 167.164062 C 237.15625 167.027344 237.140625 166.886719 237.117188 166.75 C 237.097656 166.640625 237.078125 166.535156 237.054688 166.425781 C 237.027344 166.296875 236.996094 166.167969 236.960938 166.042969 C 236.929688 165.921875 236.894531 165.804688 236.855469 165.683594 C 236.820312 165.574219 236.78125 165.460938 236.742188 165.351562 C 236.691406 165.214844 236.632812 165.082031 236.574219 164.953125 C 236.535156 164.859375 236.492188 164.765625 236.449219 164.671875 C 236.378906 164.53125 236.300781 164.390625 236.222656 164.253906 C 236.191406 164.195312 236.164062 164.140625 236.132812 164.082031 L 217.8125 133.707031 C 216.199219 131.03125 213.203125 129.707031 210.289062 130.09375 C 210.074219 130.074219 209.855469 130.058594 209.632812 130.058594 L 205.921875 130.058594 Z M 218.640625 142.945312 " fill-opacity="1" fill-rule="nonzero"/></g><path fill="#ffffff" d="M 191.246094 129.871094 C 203.078125 129.871094 212.664062 120.285156 212.664062 108.457031 C 212.664062 96.628906 203.078125 87.042969 191.246094 87.042969 C 179.421875 87.042969 169.832031 96.628906 169.832031 108.457031 C 169.832031 120.285156 179.421875 129.871094 191.246094 129.871094 Z M 192.492188 109.957031 C 195.777344 109.957031 198.441406 113.261719 198.441406 117.335938 C 198.441406 121.40625 195.777344 124.710938 192.492188 124.710938 C 189.207031 124.710938 186.546875 121.40625 186.546875 117.335938 C 186.546875 113.261719 189.207031 109.957031 192.492188 109.957031 Z M 192.492188 109.957031 " fill-opacity="1" fill-rule="nonzero"/><path fill="#ffffff" d="M 201.335938 80.300781 C 198.546875 79.988281 196.371094 81.773438 196.28125 81.851562 C 195.878906 82.1875 195.824219 82.785156 196.160156 83.191406 C 196.496094 83.59375 197.097656 83.648438 197.5 83.3125 C 197.515625 83.296875 199.160156 81.964844 201.125 82.195312 C 202.394531 82.335938 203.566406 83.101562 204.609375 84.46875 C 204.796875 84.710938 205.078125 84.84375 205.367188 84.84375 C 205.566406 84.84375 205.769531 84.777344 205.941406 84.648438 C 206.359375 84.328125 206.4375 83.730469 206.121094 83.3125 C 204.75 81.515625 203.140625 80.503906 201.335938 80.300781 Z M 201.335938 80.300781 " fill-opacity="1" fill-rule="nonzero"/><path fill="#ffffff" d="M 196.042969 79.003906 C 196.070312 78.984375 198.765625 77 202.011719 77.511719 C 204.128906 77.851562 206.027344 79.195312 207.65625 81.507812 C 207.84375 81.773438 208.136719 81.914062 208.4375 81.914062 C 208.625 81.914062 208.816406 81.855469 208.984375 81.738281 C 209.414062 81.4375 209.515625 80.84375 209.214844 80.414062 C 207.277344 77.660156 204.953125 76.054688 202.308594 75.632812 C 198.289062 74.992188 195.039062 77.378906 194.902344 77.480469 C 194.484375 77.792969 194.394531 78.390625 194.710938 78.8125 C 195.023438 79.230469 195.621094 79.320312 196.042969 79.003906 Z M 196.042969 79.003906 " fill-opacity="1" fill-rule="nonzero"/></svg>