<svg xmlns="http://www.w3.org/2000/svg" xmlns:xlink="http://www.w3.org/1999/xlink" width="500" zoomAndPan="magnify" viewBox="0 0 375 374.999991" height="500" preserveAspectRatio="xMidYMid meet" version="1.0"><defs><filter x="0%" y="0%" width="100%" height="100%" id="ec9e953cd8"><feColorMatrix values="0 0 0 0 1 0 0 0 0 1 0 0 0 0 1 0 0 0 1 0" color-interpolation-filters="sRGB"/></filter><clipPath id="eccee9190b"><path d="M 39.082031 39.082031 L 335.917969 39.082031 L 335.917969 335.917969 L 39.082031 335.917969 Z M 39.082031 39.082031 " clip-rule="nonzero"/></clipPath><clipPath id="a16f10999f"><path d="M 187.5 39.082031 C 105.53125 39.082031 39.082031 105.53125 39.082031 187.5 C 39.082031 269.46875 105.53125 335.917969 187.5 335.917969 C 269.46875 335.917969 335.917969 269.46875 335.917969 187.5 C 335.917969 105.53125 269.46875 39.082031 187.5 39.082031 Z M 187.5 39.082031 " clip-rule="nonzero"/></clipPath><clipPath id="803d1e2877"><path d="M 35.851562 35.851562 L 338.851562 35.851562 L 338.851562 338.851562 L 35.851562 338.851562 Z M 35.851562 35.851562 " clip-rule="nonzero"/></clipPath><clipPath id="2a510ea661"><path d="M 76 151 L 297 151 L 297 226 L 76 226 Z M 76 151 " clip-rule="nonzero"/></clipPath><clipPath id="fd520797c1"><path d="M 188.632812 58.660156 L 316.445312 186.46875 L 186.511719 316.398438 L 58.703125 188.589844 Z M 188.632812 58.660156 " clip-rule="nonzero"/></clipPath><clipPath id="6bce7c7ccc"><path d="M 188.632812 58.660156 L 316.445312 186.46875 L 186.511719 316.398438 L 58.703125 188.589844 Z M 188.632812 58.660156 " clip-rule="nonzero"/></clipPath><clipPath id="90115d104d"><path d="M 200 169 L 207 169 L 207 176 L 200 176 Z M 200 169 " clip-rule="nonzero"/></clipPath><clipPath id="9cd5a8deb6"><path d="M 188.632812 58.660156 L 316.445312 186.46875 L 186.511719 316.398438 L 58.703125 188.589844 Z M 188.632812 58.660156 " clip-rule="nonzero"/></clipPath><clipPath id="b13627f54a"><path d="M 188.632812 58.660156 L 316.445312 186.46875 L 186.511719 316.398438 L 58.703125 188.589844 Z M 188.632812 58.660156 " clip-rule="nonzero"/></clipPath><clipPath id="034077c62e"><path d="M 200 185 L 207 185 L 207 192 L 200 192 Z M 200 185 " clip-rule="nonzero"/></clipPath><clipPath id="c3ad16e53a"><path d="M 188.632812 58.660156 L 316.445312 186.46875 L 186.511719 316.398438 L 58.703125 188.589844 Z M 188.632812 58.660156 " clip-rule="nonzero"/></clipPath><clipPath id="b5f1c58e47"><path d="M 188.632812 58.660156 L 316.445312 186.46875 L 186.511719 316.398438 L 58.703125 188.589844 Z M 188.632812 58.660156 " clip-rule="nonzero"/></clipPath><clipPath id="94b9993ca5"><path d="M 200 201 L 207 201 L 207 208 L 200 208 Z M 200 201 " clip-rule="nonzero"/></clipPath><clipPath id="53d23f047d"><path d="M 188.632812 58.660156 L 316.445312 186.46875 L 186.511719 316.398438 L 58.703125 188.589844 Z M 188.632812 58.660156 " clip-rule="nonzero"/></clipPath><clipPath id="cf9a4529fc"><path d="M 188.632812 58.660156 L 316.445312 186.46875 L 186.511719 316.398438 L 58.703125 188.589844 Z M 188.632812 58.660156 " clip-rule="nonzero"/></clipPath><clipPath id="a920922e9d"><path d="M 183 169 L 190 169 L 190 176 L 183 176 Z M 183 169 " clip-rule="nonzero"/></clipPath><clipPath id="19f3c4f240"><path d="M 188.632812 58.660156 L 316.445312 186.46875 L 186.511719 316.398438 L 58.703125 188.589844 Z M 188.632812 58.660156 " clip-rule="nonzero"/></clipPath><clipPath id="964040e4e5"><path d="M 188.632812 58.660156 L 316.445312 186.46875 L 186.511719 316.398438 L 58.703125 188.589844 Z M 188.632812 58.660156 " clip-rule="nonzero"/></clipPath><clipPath id="36348d5de6"><path d="M 183 185 L 190 185 L 190 192 L 183 192 Z M 183 185 " clip-rule="nonzero"/></clipPath><clipPath id="9e6f2a72fe"><path d="M 188.632812 58.660156 L 316.445312 186.46875 L 186.511719 316.398438 L 58.703125 188.589844 Z M 188.632812 58.660156 " clip-rule="nonzero"/></clipPath><clipPath id="21bce01b19"><path d="M 188.632812 58.660156 L 316.445312 186.46875 L 186.511719 316.398438 L 58.703125 188.589844 Z M 188.632812 58.660156 " clip-rule="nonzero"/></clipPath><clipPath id="024cd5178c"><path d="M 183 201 L 190 201 L 190 208 L 183 208 Z M 183 201 " clip-rule="nonzero"/></clipPath><clipPath id="b25a3bbab8"><path d="M 188.632812 58.660156 L 316.445312 186.46875 L 186.511719 316.398438 L 58.703125 188.589844 Z M 188.632812 58.660156 " clip-rule="nonzero"/></clipPath><clipPath id="2406ebf88e"><path d="M 188.632812 58.660156 L 316.445312 186.46875 L 186.511719 316.398438 L 58.703125 188.589844 Z M 188.632812 58.660156 " clip-rule="nonzero"/></clipPath><clipPath id="f567421d58"><path d="M 166 169 L 173 169 L 173 176 L 166 176 Z M 166 169 " clip-rule="nonzero"/></clipPath><clipPath id="9e6e8089c8"><path d="M 188.632812 58.660156 L 316.445312 186.46875 L 186.511719 316.398438 L 58.703125 188.589844 Z M 188.632812 58.660156 " clip-rule="nonzero"/></clipPath><clipPath id="1946fee0c4"><path d="M 188.632812 58.660156 L 316.445312 186.46875 L 186.511719 316.398438 L 58.703125 188.589844 Z M 188.632812 58.660156 " clip-rule="nonzero"/></clipPath><clipPath id="863f33901c"><path d="M 166 185 L 173 185 L 173 192 L 166 192 Z M 166 185 " clip-rule="nonzero"/></clipPath><clipPath id="988d4c269d"><path d="M 188.632812 58.660156 L 316.445312 186.46875 L 186.511719 316.398438 L 58.703125 188.589844 Z M 188.632812 58.660156 " clip-rule="nonzero"/></clipPath><clipPath id="6c125b4967"><path d="M 188.632812 58.660156 L 316.445312 186.46875 L 186.511719 316.398438 L 58.703125 188.589844 Z M 188.632812 58.660156 " clip-rule="nonzero"/></clipPath><clipPath id="f348ca552e"><path d="M 166 201 L 173 201 L 173 208 L 166 208 Z M 166 201 " clip-rule="nonzero"/></clipPath><clipPath id="006063edd4"><path d="M 188.632812 58.660156 L 316.445312 186.46875 L 186.511719 316.398438 L 58.703125 188.589844 Z M 188.632812 58.660156 " clip-rule="nonzero"/></clipPath><clipPath id="384fab4d33"><path d="M 188.632812 58.660156 L 316.445312 186.46875 L 186.511719 316.398438 L 58.703125 188.589844 Z M 188.632812 58.660156 " clip-rule="nonzero"/></clipPath><mask id="81144ec389"><g filter="url(#ec9e953cd8)"><rect x="-37.5" width="450" fill="#000000" y="-37.499999" height="449.999989" fill-opacity="0.73"/></g></mask><clipPath id="6c9f6eac2a"><path d="M 93 20 L 168 20 L 168 241 L 93 241 Z M 93 20 " clip-rule="nonzero"/></clipPath><clipPath id="4bb9f0f24d"><path d="M 132.632812 0.660156 L 260.445312 128.46875 L 130.511719 258.398438 L 2.703125 130.589844 Z M 132.632812 0.660156 " clip-rule="nonzero"/></clipPath><clipPath id="7f7e66f2e6"><path d="M 260.335938 128.359375 L 132.527344 0.550781 L 2.597656 130.484375 L 130.40625 258.292969 Z M 260.335938 128.359375 " clip-rule="nonzero"/></clipPath><clipPath id="97aa3f8bac"><path d="M 143 110 L 150 110 L 150 117 L 143 117 Z M 143 110 " clip-rule="nonzero"/></clipPath><clipPath id="a3627d34b4"><path d="M 132.632812 0.660156 L 260.445312 128.46875 L 130.511719 258.398438 L 2.703125 130.589844 Z M 132.632812 0.660156 " clip-rule="nonzero"/></clipPath><clipPath id="733af1c7e7"><path d="M 260.335938 128.359375 L 132.527344 0.550781 L 2.597656 130.484375 L 130.40625 258.292969 Z M 260.335938 128.359375 " clip-rule="nonzero"/></clipPath><clipPath id="79adafc1ad"><path d="M 127 110 L 134 110 L 134 117 L 127 117 Z M 127 110 " clip-rule="nonzero"/></clipPath><clipPath id="62bfa56324"><path d="M 132.632812 0.660156 L 260.445312 128.46875 L 130.511719 258.398438 L 2.703125 130.589844 Z M 132.632812 0.660156 " clip-rule="nonzero"/></clipPath><clipPath id="22e2889b3c"><path d="M 260.335938 128.359375 L 132.527344 0.550781 L 2.597656 130.484375 L 130.40625 258.292969 Z M 260.335938 128.359375 " clip-rule="nonzero"/></clipPath><clipPath id="8b5dca22a7"><path d="M 111 110 L 118 110 L 118 117 L 111 117 Z M 111 110 " clip-rule="nonzero"/></clipPath><clipPath id="50753dac56"><path d="M 132.632812 0.660156 L 260.445312 128.46875 L 130.511719 258.398438 L 2.703125 130.589844 Z M 132.632812 0.660156 " clip-rule="nonzero"/></clipPath><clipPath id="4eb24a8681"><path d="M 260.335938 128.359375 L 132.527344 0.550781 L 2.597656 130.484375 L 130.40625 258.292969 Z M 260.335938 128.359375 " clip-rule="nonzero"/></clipPath><clipPath id="285d36421a"><path d="M 143 127 L 150 127 L 150 134 L 143 134 Z M 143 127 " clip-rule="nonzero"/></clipPath><clipPath id="0e1317b93a"><path d="M 132.632812 0.660156 L 260.445312 128.46875 L 130.511719 258.398438 L 2.703125 130.589844 Z M 132.632812 0.660156 " clip-rule="nonzero"/></clipPath><clipPath id="d882938d33"><path d="M 260.335938 128.359375 L 132.527344 0.550781 L 2.597656 130.484375 L 130.40625 258.292969 Z M 260.335938 128.359375 " clip-rule="nonzero"/></clipPath><clipPath id="6e311a2084"><path d="M 127 127 L 134 127 L 134 134 L 127 134 Z M 127 127 " clip-rule="nonzero"/></clipPath><clipPath id="128bdb209d"><path d="M 132.632812 0.660156 L 260.445312 128.46875 L 130.511719 258.398438 L 2.703125 130.589844 Z M 132.632812 0.660156 " clip-rule="nonzero"/></clipPath><clipPath id="4cc3d4c1aa"><path d="M 260.335938 128.359375 L 132.527344 0.550781 L 2.597656 130.484375 L 130.40625 258.292969 Z M 260.335938 128.359375 " clip-rule="nonzero"/></clipPath><clipPath id="5f6b28673f"><path d="M 111 127 L 118 127 L 118 134 L 111 134 Z M 111 127 " clip-rule="nonzero"/></clipPath><clipPath id="a60eab8a1d"><path d="M 132.632812 0.660156 L 260.445312 128.46875 L 130.511719 258.398438 L 2.703125 130.589844 Z M 132.632812 0.660156 " clip-rule="nonzero"/></clipPath><clipPath id="5a894f29b0"><path d="M 260.335938 128.359375 L 132.527344 0.550781 L 2.597656 130.484375 L 130.40625 258.292969 Z M 260.335938 128.359375 " clip-rule="nonzero"/></clipPath><clipPath id="b7eea32c80"><path d="M 143 144 L 150 144 L 150 151 L 143 151 Z M 143 144 " clip-rule="nonzero"/></clipPath><clipPath id="0ef1dc81d9"><path d="M 132.632812 0.660156 L 260.445312 128.46875 L 130.511719 258.398438 L 2.703125 130.589844 Z M 132.632812 0.660156 " clip-rule="nonzero"/></clipPath><clipPath id="c4e04b9a8f"><path d="M 260.335938 128.359375 L 132.527344 0.550781 L 2.597656 130.484375 L 130.40625 258.292969 Z M 260.335938 128.359375 " clip-rule="nonzero"/></clipPath><clipPath id="8b6a5b974b"><path d="M 127 144 L 134 144 L 134 151 L 127 151 Z M 127 144 " clip-rule="nonzero"/></clipPath><clipPath id="38d7daa2d6"><path d="M 132.632812 0.660156 L 260.445312 128.46875 L 130.511719 258.398438 L 2.703125 130.589844 Z M 132.632812 0.660156 " clip-rule="nonzero"/></clipPath><clipPath id="dca7242762"><path d="M 260.335938 128.359375 L 132.527344 0.550781 L 2.597656 130.484375 L 130.40625 258.292969 Z M 260.335938 128.359375 " clip-rule="nonzero"/></clipPath><clipPath id="eb0904f2f1"><path d="M 111 144 L 118 144 L 118 151 L 111 151 Z M 111 144 " clip-rule="nonzero"/></clipPath><clipPath id="d67e3f5059"><path d="M 132.632812 0.660156 L 260.445312 128.46875 L 130.511719 258.398438 L 2.703125 130.589844 Z M 132.632812 0.660156 " clip-rule="nonzero"/></clipPath><clipPath id="be31be2da6"><path d="M 260.335938 128.359375 L 132.527344 0.550781 L 2.597656 130.484375 L 130.40625 258.292969 Z M 260.335938 128.359375 " clip-rule="nonzero"/></clipPath><clipPath id="634d246c42"><rect x="0" width="261" y="0" height="261"/></clipPath></defs><rect x="-37.5" width="450" fill="#ffffff" y="-37.499999" height="449.999989" fill-opacity="1"/><rect x="-37.5" width="450" fill="#ffffff" y="-37.499999" height="449.999989" fill-opacity="1"/><g clip-path="url(#eccee9190b)"><g clip-path="url(#a16f10999f)"><path fill="#d65252" d="M 39.082031 39.082031 L 335.917969 39.082031 L 335.917969 335.917969 L 39.082031 335.917969 Z M 39.082031 39.082031 " fill-opacity="1" fill-rule="nonzero"/></g></g><g clip-path="url(#803d1e2877)"><path fill="#ed7979" d="M 187.5 35.851562 C 103.832031 35.851562 35.851562 103.832031 35.851562 187.5 C 35.851562 271.167969 103.832031 339.144531 187.5 339.144531 C 271.167969 339.144531 339.144531 271.167969 339.144531 187.5 C 339.144531 103.832031 271.167969 35.851562 187.5 35.851562 Z M 187.5 42.445312 C 267.695312 42.445312 332.550781 107.304688 332.550781 187.5 C 332.550781 267.695312 267.695312 332.550781 187.5 332.550781 C 107.304688 332.550781 42.445312 267.695312 42.445312 187.5 C 42.445312 107.304688 107.304688 42.445312 187.5 42.445312 Z M 187.5 42.445312 " fill-opacity="1" fill-rule="nonzero"/></g><g clip-path="url(#2a510ea661)"><g clip-path="url(#fd520797c1)"><g clip-path="url(#6bce7c7ccc)"><path fill="#ffffff" d="M 286.863281 215.835938 C 292.875 209.820312 296.117188 201.957031 296.117188 193.628906 L 296.117188 183.449219 C 296.117188 166.328125 282.003906 152.214844 264.652344 151.984375 L 108.265625 151.984375 C 99.9375 151.984375 92.070312 155.222656 86.054688 161.238281 C 80.039062 167.253906 76.800781 175.121094 76.800781 183.449219 L 76.800781 193.628906 C 76.800781 201.957031 80.039062 209.820312 86.054688 215.835938 C 92.070312 221.851562 99.9375 225.089844 108.265625 225.089844 L 264.652344 225.089844 C 272.980469 225.089844 280.847656 221.851562 286.863281 215.835938 Z M 154.765625 219.769531 L 154.765625 157.304688 L 218.152344 157.304688 L 218.152344 219.769531 Z M 108.265625 219.539062 C 101.324219 219.539062 94.847656 216.761719 89.988281 211.902344 C 85.128906 207.046875 82.355469 200.566406 82.355469 193.628906 L 82.355469 183.449219 C 82.355469 176.507812 85.128906 170.03125 89.988281 165.171875 C 94.847656 160.3125 101.324219 157.539062 108.265625 157.539062 L 149.441406 157.539062 L 149.441406 220 Z M 223.242188 219.769531 L 223.242188 157.304688 L 264.421875 157.304688 C 271.824219 157.304688 278.070312 160.3125 282.699219 164.941406 C 287.324219 169.566406 290.332031 176.277344 290.332031 183.214844 L 290.332031 193.394531 C 290.332031 200.335938 287.554688 206.8125 282.699219 211.671875 C 277.839844 216.53125 271.363281 219.304688 264.421875 219.304688 Z M 223.242188 219.769531 " fill-opacity="1" fill-rule="nonzero"/></g></g></g><g clip-path="url(#90115d104d)"><g clip-path="url(#9cd5a8deb6)"><g clip-path="url(#b13627f54a)"><path fill="#ffffff" d="M 206.632812 172.277344 C 206.632812 172.667969 206.554688 173.042969 206.40625 173.402344 C 206.257812 173.765625 206.042969 174.082031 205.769531 174.359375 C 205.492188 174.636719 205.175781 174.847656 204.8125 174.996094 C 204.453125 175.148438 204.078125 175.222656 203.6875 175.222656 C 203.296875 175.222656 202.921875 175.148438 202.558594 174.996094 C 202.199219 174.847656 201.878906 174.636719 201.605469 174.359375 C 201.328125 174.082031 201.117188 173.765625 200.964844 173.402344 C 200.816406 173.042969 200.742188 172.667969 200.742188 172.277344 C 200.742188 171.886719 200.816406 171.511719 200.964844 171.152344 C 201.117188 170.789062 201.328125 170.472656 201.605469 170.195312 C 201.878906 169.917969 202.199219 169.707031 202.558594 169.558594 C 202.921875 169.40625 203.296875 169.332031 203.6875 169.332031 C 204.078125 169.332031 204.453125 169.40625 204.8125 169.558594 C 205.175781 169.707031 205.492188 169.917969 205.769531 170.195312 C 206.042969 170.472656 206.257812 170.789062 206.40625 171.152344 C 206.554688 171.511719 206.632812 171.886719 206.632812 172.277344 Z M 206.632812 172.277344 " fill-opacity="1" fill-rule="nonzero"/></g></g></g><g clip-path="url(#034077c62e)"><g clip-path="url(#c3ad16e53a)"><g clip-path="url(#b5f1c58e47)"><path fill="#ffffff" d="M 206.515625 188.515625 C 206.515625 188.90625 206.441406 189.28125 206.292969 189.644531 C 206.144531 190.003906 205.929688 190.324219 205.65625 190.597656 C 205.378906 190.875 205.058594 191.085938 204.699219 191.238281 C 204.339844 191.386719 203.964844 191.460938 203.574219 191.460938 C 203.183594 191.460938 202.808594 191.386719 202.445312 191.238281 C 202.085938 191.085938 201.765625 190.875 201.492188 190.597656 C 201.214844 190.324219 201.003906 190.003906 200.851562 189.644531 C 200.703125 189.28125 200.628906 188.90625 200.628906 188.515625 C 200.628906 188.125 200.703125 187.75 200.851562 187.390625 C 201 187.027344 201.214844 186.710938 201.492188 186.433594 C 201.765625 186.160156 202.085938 185.945312 202.445312 185.796875 C 202.808594 185.648438 203.183594 185.570312 203.574219 185.570312 C 203.964844 185.570312 204.339844 185.648438 204.699219 185.796875 C 205.058594 185.945312 205.378906 186.160156 205.65625 186.433594 C 205.929688 186.710938 206.144531 187.027344 206.292969 187.390625 C 206.441406 187.75 206.515625 188.125 206.515625 188.515625 Z M 206.515625 188.515625 " fill-opacity="1" fill-rule="nonzero"/></g></g></g><g clip-path="url(#94b9993ca5)"><g clip-path="url(#53d23f047d)"><g clip-path="url(#cf9a4529fc)"><path fill="#ffffff" d="M 206.402344 204.757812 C 206.402344 205.148438 206.328125 205.523438 206.179688 205.886719 C 206.03125 206.246094 205.816406 206.5625 205.539062 206.839844 C 205.265625 207.117188 204.945312 207.328125 204.585938 207.476562 C 204.222656 207.628906 203.847656 207.703125 203.457031 207.703125 C 203.066406 207.703125 202.691406 207.628906 202.332031 207.476562 C 201.972656 207.328125 201.652344 207.117188 201.375 206.839844 C 201.101562 206.5625 200.886719 206.246094 200.738281 205.886719 C 200.589844 205.523438 200.515625 205.148438 200.515625 204.757812 C 200.515625 204.367188 200.589844 203.992188 200.738281 203.632812 C 200.886719 203.269531 201.101562 202.953125 201.375 202.675781 C 201.652344 202.398438 201.972656 202.1875 202.332031 202.039062 C 202.691406 201.886719 203.066406 201.8125 203.457031 201.8125 C 203.847656 201.8125 204.222656 201.886719 204.585938 202.039062 C 204.945312 202.1875 205.265625 202.398438 205.539062 202.675781 C 205.816406 202.953125 206.03125 203.269531 206.179688 203.632812 C 206.328125 203.992188 206.402344 204.367188 206.402344 204.757812 Z M 206.402344 204.757812 " fill-opacity="1" fill-rule="nonzero"/></g></g></g><g clip-path="url(#a920922e9d)"><g clip-path="url(#19f3c4f240)"><g clip-path="url(#964040e4e5)"><path fill="#ffffff" d="M 189.519531 172.300781 C 189.519531 172.691406 189.445312 173.066406 189.292969 173.425781 C 189.144531 173.785156 188.933594 174.105469 188.65625 174.382812 C 188.378906 174.65625 188.0625 174.871094 187.699219 175.019531 C 187.339844 175.167969 186.964844 175.242188 186.574219 175.242188 C 186.183594 175.242188 185.808594 175.167969 185.449219 175.019531 C 185.085938 174.871094 184.769531 174.65625 184.492188 174.382812 C 184.214844 174.105469 184.003906 173.785156 183.855469 173.425781 C 183.703125 173.066406 183.628906 172.691406 183.628906 172.300781 C 183.628906 171.910156 183.703125 171.535156 183.855469 171.171875 C 184.003906 170.8125 184.214844 170.492188 184.492188 170.21875 C 184.769531 169.941406 185.085938 169.726562 185.449219 169.578125 C 185.808594 169.429688 186.183594 169.355469 186.574219 169.355469 C 186.964844 169.355469 187.339844 169.429688 187.699219 169.578125 C 188.0625 169.726562 188.378906 169.941406 188.65625 170.21875 C 188.933594 170.492188 189.144531 170.8125 189.292969 171.171875 C 189.445312 171.53125 189.519531 171.910156 189.519531 172.300781 Z M 189.519531 172.300781 " fill-opacity="1" fill-rule="nonzero"/></g></g></g><g clip-path="url(#36348d5de6)"><g clip-path="url(#9e6f2a72fe)"><g clip-path="url(#21bce01b19)"><path fill="#ffffff" d="M 189.40625 188.539062 C 189.40625 188.929688 189.332031 189.304688 189.183594 189.667969 C 189.035156 190.027344 188.820312 190.34375 188.546875 190.621094 C 188.269531 190.898438 187.949219 191.109375 187.589844 191.261719 C 187.230469 191.410156 186.851562 191.484375 186.464844 191.484375 C 186.074219 191.484375 185.695312 191.410156 185.335938 191.261719 C 184.976562 191.109375 184.65625 190.898438 184.382812 190.621094 C 184.105469 190.34375 183.890625 190.027344 183.742188 189.667969 C 183.59375 189.304688 183.519531 188.929688 183.519531 188.539062 C 183.519531 188.148438 183.59375 187.773438 183.742188 187.414062 C 183.890625 187.050781 184.105469 186.734375 184.378906 186.457031 C 184.65625 186.179688 184.976562 185.96875 185.335938 185.820312 C 185.695312 185.667969 186.074219 185.59375 186.464844 185.59375 C 186.851562 185.59375 187.230469 185.667969 187.589844 185.820312 C 187.949219 185.96875 188.269531 186.179688 188.546875 186.457031 C 188.820312 186.734375 189.035156 187.050781 189.183594 187.414062 C 189.332031 187.773438 189.40625 188.148438 189.40625 188.539062 Z M 189.40625 188.539062 " fill-opacity="1" fill-rule="nonzero"/></g></g></g><g clip-path="url(#024cd5178c)"><g clip-path="url(#b25a3bbab8)"><g clip-path="url(#2406ebf88e)"><path fill="#ffffff" d="M 189.292969 204.777344 C 189.292969 205.167969 189.21875 205.542969 189.070312 205.90625 C 188.921875 206.265625 188.707031 206.585938 188.429688 206.859375 C 188.15625 207.136719 187.835938 207.347656 187.476562 207.5 C 187.117188 207.648438 186.738281 207.722656 186.347656 207.722656 C 185.960938 207.722656 185.582031 207.648438 185.222656 207.5 C 184.863281 207.347656 184.542969 207.136719 184.265625 206.859375 C 183.992188 206.585938 183.777344 206.265625 183.628906 205.90625 C 183.480469 205.542969 183.40625 205.167969 183.40625 204.777344 C 183.40625 204.386719 183.480469 204.011719 183.628906 203.652344 C 183.777344 203.292969 183.992188 202.972656 184.265625 202.695312 C 184.542969 202.421875 184.863281 202.207031 185.222656 202.058594 C 185.582031 201.910156 185.957031 201.835938 186.347656 201.835938 C 186.738281 201.835938 187.117188 201.910156 187.476562 202.058594 C 187.835938 202.207031 188.15625 202.421875 188.429688 202.695312 C 188.707031 202.972656 188.921875 203.289062 189.070312 203.652344 C 189.21875 204.011719 189.292969 204.386719 189.292969 204.777344 Z M 189.292969 204.777344 " fill-opacity="1" fill-rule="nonzero"/></g></g></g><g clip-path="url(#f567421d58)"><g clip-path="url(#9e6e8089c8)"><g clip-path="url(#1946fee0c4)"><path fill="#ffffff" d="M 172.410156 172.320312 C 172.410156 172.710938 172.335938 173.085938 172.1875 173.445312 C 172.035156 173.808594 171.824219 174.125 171.546875 174.402344 C 171.269531 174.679688 170.953125 174.890625 170.59375 175.039062 C 170.230469 175.191406 169.855469 175.265625 169.464844 175.265625 C 169.074219 175.265625 168.699219 175.191406 168.339844 175.039062 C 167.976562 174.890625 167.660156 174.679688 167.382812 174.402344 C 167.105469 174.125 166.894531 173.808594 166.746094 173.445312 C 166.59375 173.085938 166.519531 172.710938 166.519531 172.320312 C 166.519531 171.929688 166.59375 171.554688 166.746094 171.191406 C 166.894531 170.832031 167.105469 170.515625 167.382812 170.238281 C 167.660156 169.960938 167.976562 169.75 168.339844 169.597656 C 168.699219 169.449219 169.074219 169.375 169.464844 169.375 C 169.855469 169.375 170.230469 169.449219 170.59375 169.597656 C 170.953125 169.75 171.269531 169.960938 171.546875 170.238281 C 171.824219 170.515625 172.035156 170.832031 172.1875 171.191406 C 172.335938 171.554688 172.410156 171.929688 172.410156 172.320312 Z M 172.410156 172.320312 " fill-opacity="1" fill-rule="nonzero"/></g></g></g><g clip-path="url(#863f33901c)"><g clip-path="url(#988d4c269d)"><g clip-path="url(#6c125b4967)"><path fill="#ffffff" d="M 172.300781 188.558594 C 172.300781 188.949219 172.226562 189.324219 172.074219 189.683594 C 171.925781 190.046875 171.714844 190.363281 171.4375 190.640625 C 171.160156 190.914062 170.84375 191.128906 170.480469 191.277344 C 170.121094 191.425781 169.746094 191.503906 169.355469 191.503906 C 168.964844 191.503906 168.589844 191.425781 168.226562 191.277344 C 167.867188 191.128906 167.550781 190.914062 167.273438 190.640625 C 166.996094 190.363281 166.785156 190.046875 166.632812 189.683594 C 166.484375 189.324219 166.410156 188.949219 166.410156 188.558594 C 166.410156 188.167969 166.484375 187.792969 166.632812 187.429688 C 166.785156 187.070312 166.996094 186.75 167.273438 186.476562 C 167.550781 186.199219 167.867188 185.988281 168.226562 185.835938 C 168.589844 185.6875 168.964844 185.613281 169.355469 185.613281 C 169.746094 185.613281 170.121094 185.6875 170.480469 185.835938 C 170.84375 185.988281 171.160156 186.199219 171.4375 186.476562 C 171.714844 186.75 171.925781 187.070312 172.074219 187.429688 C 172.226562 187.792969 172.300781 188.167969 172.300781 188.558594 Z M 172.300781 188.558594 " fill-opacity="1" fill-rule="nonzero"/></g></g></g><g clip-path="url(#f348ca552e)"><g clip-path="url(#006063edd4)"><g clip-path="url(#384fab4d33)"><path fill="#ffffff" d="M 172.183594 204.800781 C 172.183594 205.191406 172.109375 205.566406 171.960938 205.925781 C 171.8125 206.285156 171.597656 206.605469 171.324219 206.882812 C 171.046875 207.15625 170.726562 207.371094 170.367188 207.519531 C 170.007812 207.667969 169.632812 207.742188 169.242188 207.742188 C 168.851562 207.742188 168.472656 207.667969 168.113281 207.519531 C 167.753906 207.371094 167.433594 207.15625 167.160156 206.882812 C 166.882812 206.605469 166.667969 206.285156 166.519531 205.925781 C 166.371094 205.566406 166.296875 205.191406 166.296875 204.800781 C 166.296875 204.410156 166.371094 204.03125 166.519531 203.671875 C 166.667969 203.3125 166.882812 202.992188 167.160156 202.71875 C 167.433594 202.441406 167.753906 202.226562 168.113281 202.078125 C 168.472656 201.929688 168.851562 201.855469 169.242188 201.855469 C 169.628906 201.855469 170.007812 201.929688 170.367188 202.078125 C 170.726562 202.226562 171.046875 202.441406 171.324219 202.71875 C 171.597656 202.992188 171.8125 203.3125 171.960938 203.671875 C 172.109375 204.03125 172.183594 204.410156 172.183594 204.800781 Z M 172.183594 204.800781 " fill-opacity="1" fill-rule="nonzero"/></g></g></g><g mask="url(#81144ec389)"><g transform="matrix(1, 0, 0, 1, 56, 58)"><g clip-path="url(#634d246c42)"><g clip-path="url(#6c9f6eac2a)"><g clip-path="url(#4bb9f0f24d)"><g clip-path="url(#7f7e66f2e6)"><path fill="#ffffff" d="M 103.160156 30.132812 C 109.175781 24.121094 117.039062 20.878906 125.367188 20.878906 L 135.546875 20.878906 C 152.667969 20.878906 166.777344 34.992188 167.011719 52.34375 L 167.011719 208.730469 C 167.011719 217.058594 163.773438 224.925781 157.757812 230.941406 C 151.742188 236.957031 143.875 240.195312 135.546875 240.195312 L 125.367188 240.195312 C 117.039062 240.195312 109.175781 236.957031 103.160156 230.941406 C 97.144531 224.925781 93.90625 217.058594 93.90625 208.730469 L 93.90625 52.34375 C 93.90625 44.015625 97.144531 36.148438 103.160156 30.132812 Z M 99.226562 162.230469 L 161.691406 162.230469 L 161.691406 98.84375 L 99.226562 98.84375 Z M 99.457031 208.730469 C 99.457031 215.671875 102.234375 222.148438 107.09375 227.007812 C 111.949219 231.867188 118.429688 234.640625 125.367188 234.640625 L 135.546875 234.640625 C 142.488281 234.640625 148.964844 231.867188 153.824219 227.007812 C 158.683594 222.148438 161.457031 215.671875 161.457031 208.730469 L 161.457031 167.550781 L 98.996094 167.550781 Z M 99.226562 93.753906 L 161.691406 93.753906 L 161.691406 52.574219 C 161.691406 45.171875 158.683594 38.925781 154.054688 34.296875 C 149.429688 29.671875 142.71875 26.664062 135.777344 26.664062 L 125.601562 26.664062 C 118.660156 26.664062 112.183594 29.441406 107.324219 34.296875 C 102.464844 39.15625 99.691406 45.632812 99.691406 52.574219 Z M 99.226562 93.753906 " fill-opacity="1" fill-rule="nonzero"/></g></g></g><g clip-path="url(#97aa3f8bac)"><g clip-path="url(#a3627d34b4)"><g clip-path="url(#733af1c7e7)"><path fill="#ffffff" d="M 146.71875 110.363281 C 146.328125 110.363281 145.953125 110.441406 145.589844 110.589844 C 145.230469 110.738281 144.914062 110.953125 144.636719 111.226562 C 144.359375 111.503906 144.148438 111.820312 144 112.183594 C 143.847656 112.542969 143.773438 112.917969 143.773438 113.308594 C 143.773438 113.699219 143.847656 114.074219 144 114.4375 C 144.148438 114.796875 144.359375 115.117188 144.636719 115.390625 C 144.914062 115.667969 145.230469 115.878906 145.589844 116.03125 C 145.953125 116.179688 146.328125 116.253906 146.71875 116.253906 C 147.109375 116.253906 147.484375 116.179688 147.84375 116.03125 C 148.207031 115.878906 148.523438 115.667969 148.800781 115.390625 C 149.078125 115.117188 149.289062 114.796875 149.4375 114.4375 C 149.589844 114.074219 149.664062 113.699219 149.664062 113.308594 C 149.664062 112.917969 149.589844 112.542969 149.4375 112.183594 C 149.289062 111.820312 149.078125 111.503906 148.800781 111.226562 C 148.523438 110.953125 148.207031 110.738281 147.84375 110.589844 C 147.484375 110.441406 147.109375 110.363281 146.71875 110.363281 Z M 146.71875 110.363281 " fill-opacity="1" fill-rule="nonzero"/></g></g></g><g clip-path="url(#79adafc1ad)"><g clip-path="url(#62bfa56324)"><g clip-path="url(#22e2889b3c)"><path fill="#ffffff" d="M 130.480469 110.476562 C 130.089844 110.476562 129.714844 110.554688 129.351562 110.703125 C 128.992188 110.851562 128.671875 111.066406 128.398438 111.339844 C 128.121094 111.617188 127.910156 111.933594 127.757812 112.296875 C 127.609375 112.65625 127.535156 113.03125 127.535156 113.421875 C 127.535156 113.8125 127.609375 114.1875 127.757812 114.550781 C 127.910156 114.910156 128.121094 115.230469 128.398438 115.503906 C 128.671875 115.78125 128.992188 115.992188 129.351562 116.144531 C 129.714844 116.292969 130.089844 116.367188 130.480469 116.367188 C 130.871094 116.367188 131.246094 116.292969 131.605469 116.144531 C 131.96875 115.992188 132.285156 115.78125 132.5625 115.503906 C 132.835938 115.230469 133.050781 114.910156 133.199219 114.550781 C 133.347656 114.1875 133.425781 113.8125 133.425781 113.421875 C 133.425781 113.03125 133.347656 112.65625 133.199219 112.296875 C 133.050781 111.933594 132.835938 111.617188 132.5625 111.339844 C 132.285156 111.066406 131.96875 110.851562 131.605469 110.703125 C 131.246094 110.554688 130.871094 110.476562 130.480469 110.476562 Z M 130.480469 110.476562 " fill-opacity="1" fill-rule="nonzero"/></g></g></g><g clip-path="url(#8b5dca22a7)"><g clip-path="url(#50753dac56)"><g clip-path="url(#4eb24a8681)"><path fill="#ffffff" d="M 114.238281 110.59375 C 113.847656 110.59375 113.472656 110.667969 113.109375 110.816406 C 112.75 110.964844 112.433594 111.179688 112.15625 111.457031 C 111.878906 111.730469 111.667969 112.050781 111.515625 112.410156 C 111.367188 112.769531 111.292969 113.148438 111.292969 113.539062 C 111.292969 113.929688 111.367188 114.304688 111.515625 114.664062 C 111.667969 115.023438 111.878906 115.34375 112.15625 115.621094 C 112.433594 115.894531 112.75 116.109375 113.109375 116.257812 C 113.472656 116.40625 113.847656 116.480469 114.238281 116.480469 C 114.628906 116.480469 115.003906 116.40625 115.363281 116.257812 C 115.726562 116.109375 116.042969 115.894531 116.320312 115.621094 C 116.597656 115.34375 116.808594 115.023438 116.957031 114.664062 C 117.109375 114.304688 117.183594 113.929688 117.183594 113.539062 C 117.183594 113.148438 117.109375 112.769531 116.957031 112.410156 C 116.808594 112.050781 116.597656 111.730469 116.320312 111.457031 C 116.042969 111.179688 115.726562 110.964844 115.363281 110.816406 C 115.003906 110.667969 114.628906 110.59375 114.238281 110.59375 Z M 114.238281 110.59375 " fill-opacity="1" fill-rule="nonzero"/></g></g></g><g clip-path="url(#285d36421a)"><g clip-path="url(#0e1317b93a)"><g clip-path="url(#d882938d33)"><path fill="#ffffff" d="M 146.695312 127.476562 C 146.304688 127.476562 145.929688 127.550781 145.570312 127.703125 C 145.210938 127.851562 144.890625 128.0625 144.613281 128.339844 C 144.339844 128.617188 144.125 128.933594 143.976562 129.292969 C 143.828125 129.65625 143.753906 130.03125 143.753906 130.421875 C 143.753906 130.8125 143.828125 131.1875 143.976562 131.546875 C 144.125 131.910156 144.339844 132.226562 144.613281 132.503906 C 144.890625 132.78125 145.207031 132.992188 145.570312 133.140625 C 145.929688 133.292969 146.304688 133.367188 146.695312 133.367188 C 147.085938 133.367188 147.460938 133.292969 147.824219 133.140625 C 148.183594 132.992188 148.503906 132.78125 148.777344 132.503906 C 149.054688 132.226562 149.265625 131.910156 149.417969 131.546875 C 149.566406 131.1875 149.640625 130.8125 149.640625 130.421875 C 149.640625 130.03125 149.566406 129.65625 149.417969 129.296875 C 149.265625 128.933594 149.054688 128.617188 148.777344 128.339844 C 148.503906 128.0625 148.183594 127.851562 147.824219 127.703125 C 147.460938 127.550781 147.085938 127.476562 146.695312 127.476562 Z M 146.695312 127.476562 " fill-opacity="1" fill-rule="nonzero"/></g></g></g><g clip-path="url(#6e311a2084)"><g clip-path="url(#128bdb209d)"><g clip-path="url(#4cc3d4c1aa)"><path fill="#ffffff" d="M 130.457031 127.589844 C 130.066406 127.589844 129.691406 127.664062 129.328125 127.8125 C 128.96875 127.960938 128.652344 128.175781 128.375 128.449219 C 128.097656 128.726562 127.886719 129.046875 127.734375 129.40625 C 127.585938 129.765625 127.511719 130.140625 127.511719 130.53125 C 127.511719 130.921875 127.585938 131.300781 127.734375 131.660156 C 127.886719 132.019531 128.097656 132.339844 128.375 132.613281 C 128.652344 132.890625 128.96875 133.105469 129.328125 133.253906 C 129.691406 133.402344 130.066406 133.476562 130.457031 133.476562 C 130.847656 133.476562 131.222656 133.402344 131.582031 133.253906 C 131.945312 133.105469 132.261719 132.890625 132.539062 132.613281 C 132.816406 132.339844 133.027344 132.019531 133.175781 131.660156 C 133.328125 131.300781 133.402344 130.921875 133.402344 130.53125 C 133.402344 130.140625 133.328125 129.765625 133.175781 129.40625 C 133.027344 129.046875 132.816406 128.726562 132.539062 128.449219 C 132.261719 128.175781 131.945312 127.960938 131.582031 127.8125 C 131.222656 127.664062 130.847656 127.589844 130.457031 127.589844 Z M 130.457031 127.589844 " fill-opacity="1" fill-rule="nonzero"/></g></g></g><g clip-path="url(#5f6b28673f)"><g clip-path="url(#a60eab8a1d)"><g clip-path="url(#5a894f29b0)"><path fill="#ffffff" d="M 114.21875 127.703125 C 113.828125 127.703125 113.453125 127.777344 113.089844 127.925781 C 112.730469 128.074219 112.410156 128.289062 112.136719 128.5625 C 111.859375 128.839844 111.644531 129.160156 111.496094 129.519531 C 111.347656 129.878906 111.273438 130.257812 111.273438 130.644531 C 111.273438 131.035156 111.347656 131.414062 111.496094 131.773438 C 111.644531 132.132812 111.859375 132.453125 112.136719 132.726562 C 112.410156 133.003906 112.730469 133.21875 113.089844 133.367188 C 113.449219 133.515625 113.828125 133.589844 114.21875 133.589844 C 114.609375 133.589844 114.984375 133.515625 115.34375 133.367188 C 115.703125 133.21875 116.023438 133.003906 116.300781 132.730469 C 116.574219 132.453125 116.789062 132.132812 116.9375 131.773438 C 117.085938 131.414062 117.160156 131.035156 117.160156 130.648438 C 117.160156 130.257812 117.085938 129.878906 116.9375 129.519531 C 116.789062 129.160156 116.574219 128.839844 116.300781 128.5625 C 116.023438 128.289062 115.703125 128.074219 115.34375 127.925781 C 114.984375 127.777344 114.609375 127.703125 114.21875 127.703125 Z M 114.21875 127.703125 " fill-opacity="1" fill-rule="nonzero"/></g></g></g><g clip-path="url(#b7eea32c80)"><g clip-path="url(#0ef1dc81d9)"><g clip-path="url(#c4e04b9a8f)"><path fill="#ffffff" d="M 146.675781 144.585938 C 146.285156 144.585938 145.910156 144.660156 145.550781 144.808594 C 145.1875 144.960938 144.871094 145.171875 144.59375 145.449219 C 144.316406 145.726562 144.105469 146.042969 143.957031 146.402344 C 143.804688 146.765625 143.730469 147.140625 143.730469 147.53125 C 143.730469 147.921875 143.804688 148.296875 143.957031 148.65625 C 144.105469 149.019531 144.316406 149.335938 144.59375 149.613281 C 144.871094 149.890625 145.1875 150.101562 145.550781 150.25 C 145.910156 150.402344 146.285156 150.476562 146.675781 150.476562 C 147.066406 150.476562 147.441406 150.402344 147.804688 150.25 C 148.164062 150.101562 148.480469 149.890625 148.757812 149.613281 C 149.035156 149.335938 149.246094 149.019531 149.394531 148.65625 C 149.546875 148.296875 149.621094 147.921875 149.621094 147.53125 C 149.621094 147.140625 149.546875 146.765625 149.394531 146.402344 C 149.246094 146.042969 149.035156 145.726562 148.757812 145.449219 C 148.480469 145.171875 148.164062 144.960938 147.804688 144.808594 C 147.441406 144.660156 147.066406 144.585938 146.675781 144.585938 Z M 146.675781 144.585938 " fill-opacity="1" fill-rule="nonzero"/></g></g></g><g clip-path="url(#8b6a5b974b)"><g clip-path="url(#38d7daa2d6)"><g clip-path="url(#dca7242762)"><path fill="#ffffff" d="M 130.4375 144.695312 C 130.046875 144.695312 129.671875 144.769531 129.3125 144.921875 C 128.949219 145.070312 128.632812 145.28125 128.355469 145.558594 C 128.078125 145.835938 127.867188 146.152344 127.71875 146.515625 C 127.570312 146.875 127.492188 147.25 127.492188 147.640625 C 127.492188 148.03125 127.570312 148.40625 127.71875 148.769531 C 127.867188 149.128906 128.078125 149.445312 128.355469 149.722656 C 128.632812 150 128.949219 150.210938 129.3125 150.363281 C 129.671875 150.511719 130.046875 150.585938 130.4375 150.585938 C 130.828125 150.585938 131.203125 150.511719 131.566406 150.363281 C 131.925781 150.210938 132.246094 150 132.519531 149.722656 C 132.796875 149.445312 133.007812 149.128906 133.160156 148.769531 C 133.308594 148.40625 133.382812 148.03125 133.382812 147.640625 C 133.382812 147.25 133.308594 146.875 133.160156 146.515625 C 133.007812 146.152344 132.796875 145.835938 132.519531 145.558594 C 132.246094 145.28125 131.925781 145.070312 131.566406 144.921875 C 131.203125 144.769531 130.828125 144.695312 130.4375 144.695312 Z M 130.4375 144.695312 " fill-opacity="1" fill-rule="nonzero"/></g></g></g><g clip-path="url(#eb0904f2f1)"><g clip-path="url(#d67e3f5059)"><g clip-path="url(#be31be2da6)"><path fill="#ffffff" d="M 114.195312 144.8125 C 113.804688 144.8125 113.429688 144.886719 113.070312 145.035156 C 112.710938 145.183594 112.390625 145.398438 112.113281 145.671875 C 111.839844 145.949219 111.625 146.269531 111.476562 146.628906 C 111.328125 146.988281 111.253906 147.363281 111.253906 147.753906 C 111.253906 148.144531 111.328125 148.523438 111.476562 148.882812 C 111.625 149.242188 111.839844 149.5625 112.113281 149.835938 C 112.390625 150.113281 112.710938 150.328125 113.070312 150.476562 C 113.429688 150.625 113.804688 150.699219 114.195312 150.699219 C 114.585938 150.699219 114.960938 150.625 115.324219 150.476562 C 115.683594 150.328125 116.003906 150.113281 116.277344 149.835938 C 116.554688 149.5625 116.769531 149.242188 116.917969 148.882812 C 117.066406 148.523438 117.140625 148.144531 117.140625 147.753906 C 117.140625 147.363281 117.066406 146.988281 116.917969 146.628906 C 116.769531 146.269531 116.554688 145.949219 116.277344 145.671875 C 116.003906 145.398438 115.683594 145.183594 115.324219 145.035156 C 114.960938 144.886719 114.585938 144.8125 114.195312 144.8125 Z M 114.195312 144.8125 " fill-opacity="1" fill-rule="nonzero"/></g></g></g></g></g></g></svg>