<svg xmlns="http://www.w3.org/2000/svg" xmlns:xlink="http://www.w3.org/1999/xlink" width="500" zoomAndPan="magnify" viewBox="0 0 375 374.999991" height="500" preserveAspectRatio="xMidYMid meet" version="1.0"><defs><clipPath id="cd1237640e"><path d="M 39.082031 39.082031 L 335.917969 39.082031 L 335.917969 335.917969 L 39.082031 335.917969 Z M 39.082031 39.082031 " clip-rule="nonzero"/></clipPath><clipPath id="12966526fd"><path d="M 187.5 39.082031 C 105.53125 39.082031 39.082031 105.53125 39.082031 187.5 C 39.082031 269.46875 105.53125 335.917969 187.5 335.917969 C 269.46875 335.917969 335.917969 269.46875 335.917969 187.5 C 335.917969 105.53125 269.46875 39.082031 187.5 39.082031 Z M 187.5 39.082031 " clip-rule="nonzero"/></clipPath><clipPath id="5fe1b5eb8e"><path d="M 35.851562 35.851562 L 338.851562 35.851562 L 338.851562 338.851562 L 35.851562 338.851562 Z M 35.851562 35.851562 " clip-rule="nonzero"/></clipPath><clipPath id="cc134f3b92"><path d="M 46.652344 167.253906 L 141 167.253906 L 141 196 L 46.652344 196 Z M 46.652344 167.253906 " clip-rule="nonzero"/></clipPath><clipPath id="f2cd18401b"><path d="M 46.652344 203 L 141 203 L 141 205 L 46.652344 205 Z M 46.652344 203 " clip-rule="nonzero"/></clipPath><clipPath id="121fce24b7"><path d="M 90 200 L 98 200 L 98 207.753906 L 90 207.753906 Z M 90 200 " clip-rule="nonzero"/></clipPath><clipPath id="48d1827361"><path d="M 140 167.253906 L 235 167.253906 L 235 196 L 140 196 Z M 140 167.253906 " clip-rule="nonzero"/></clipPath><clipPath id="131d259e27"><path d="M 183 200 L 192 200 L 192 207.753906 L 183 207.753906 Z M 183 200 " clip-rule="nonzero"/></clipPath><clipPath id="914bbc04e1"><path d="M 234 167.253906 L 328.652344 167.253906 L 328.652344 196 L 234 196 Z M 234 167.253906 " clip-rule="nonzero"/></clipPath><clipPath id="f8e8345082"><path d="M 234 203 L 328.652344 203 L 328.652344 205 L 234 205 Z M 234 203 " clip-rule="nonzero"/></clipPath><clipPath id="5bfd76ed29"><path d="M 277 200 L 285 200 L 285 207.753906 L 277 207.753906 Z M 277 200 " clip-rule="nonzero"/></clipPath></defs><g clip-path="url(#cd1237640e)"><g clip-path="url(#12966526fd)"><path fill="#a6a6a6" d="M 39.082031 39.082031 L 335.917969 39.082031 L 335.917969 335.917969 L 39.082031 335.917969 Z M 39.082031 39.082031 " fill-opacity="1" fill-rule="nonzero"/></g></g><g clip-path="url(#5fe1b5eb8e)"><path fill="#d9d9d9" d="M 187.5 35.851562 C 103.832031 35.851562 35.851562 103.832031 35.851562 187.5 C 35.851562 271.167969 103.832031 339.144531 187.5 339.144531 C 271.167969 339.144531 339.144531 271.167969 339.144531 187.5 C 339.144531 103.832031 271.167969 35.851562 187.5 35.851562 Z M 187.5 42.445312 C 267.695312 42.445312 332.550781 107.304688 332.550781 187.5 C 332.550781 267.695312 267.695312 332.550781 187.5 332.550781 C 107.304688 332.550781 42.445312 267.695312 42.445312 187.5 C 42.445312 107.304688 107.304688 42.445312 187.5 42.445312 Z M 187.5 42.445312 " fill-opacity="1" fill-rule="nonzero"/></g><g clip-path="url(#cc134f3b92)"><path fill="#ffffff" d="M 46.910156 167.253906 L 127.632812 167.253906 L 140.632812 181.398438 L 127.632812 195.371094 L 46.910156 195.371094 L 59.910156 181.398438 Z M 46.910156 167.253906 " fill-opacity="1" fill-rule="evenodd"/></g><g clip-path="url(#f2cd18401b)"><path fill="#e0e5f3" d="M 46.910156 203.242188 L 140.632812 203.242188 L 140.632812 204.742188 L 46.910156 204.742188 Z M 46.910156 203.242188 " fill-opacity="1" fill-rule="nonzero"/></g><g clip-path="url(#121fce24b7)"><path fill="#ffffff" d="M 97.519531 203.992188 C 97.519531 204.488281 97.425781 204.96875 97.234375 205.425781 C 97.046875 205.886719 96.773438 206.292969 96.421875 206.644531 C 96.070312 206.996094 95.664062 207.265625 95.207031 207.457031 C 94.746094 207.644531 94.269531 207.742188 93.773438 207.742188 C 93.273438 207.742188 92.796875 207.644531 92.335938 207.457031 C 91.878906 207.265625 91.472656 206.996094 91.121094 206.644531 C 90.769531 206.292969 90.5 205.886719 90.308594 205.425781 C 90.117188 204.96875 90.023438 204.488281 90.023438 203.992188 C 90.023438 203.496094 90.117188 203.015625 90.308594 202.558594 C 90.5 202.097656 90.769531 201.691406 91.121094 201.339844 C 91.472656 200.988281 91.878906 200.71875 92.335938 200.527344 C 92.796875 200.339844 93.273438 200.242188 93.773438 200.242188 C 94.269531 200.242188 94.746094 200.339844 95.207031 200.527344 C 95.664062 200.71875 96.070312 200.988281 96.421875 201.339844 C 96.773438 201.691406 97.046875 202.097656 97.234375 202.558594 C 97.425781 203.015625 97.519531 203.496094 97.519531 203.992188 Z M 97.519531 203.992188 " fill-opacity="1" fill-rule="nonzero"/></g><g clip-path="url(#48d1827361)"><path fill="#545454" d="M 140.632812 167.253906 L 221.355469 167.253906 L 234.355469 181.398438 L 221.355469 195.371094 L 140.632812 195.371094 L 153.632812 181.398438 Z M 140.632812 167.253906 " fill-opacity="1" fill-rule="evenodd"/></g><path fill="#e0e5f3" d="M 140.632812 203.242188 L 234.355469 203.242188 L 234.355469 204.742188 L 140.632812 204.742188 Z M 140.632812 203.242188 " fill-opacity="1" fill-rule="nonzero"/><g clip-path="url(#131d259e27)"><path fill="#545454" d="M 191.242188 203.992188 C 191.242188 204.488281 191.148438 204.96875 190.957031 205.425781 C 190.769531 205.886719 190.496094 206.292969 190.144531 206.644531 C 189.792969 206.996094 189.386719 207.265625 188.929688 207.457031 C 188.46875 207.644531 187.992188 207.742188 187.496094 207.742188 C 186.996094 207.742188 186.519531 207.644531 186.058594 207.457031 C 185.601562 207.265625 185.195312 206.996094 184.84375 206.644531 C 184.492188 206.292969 184.222656 205.886719 184.03125 205.425781 C 183.839844 204.96875 183.746094 204.488281 183.746094 203.992188 C 183.746094 203.496094 183.839844 203.015625 184.03125 202.558594 C 184.222656 202.097656 184.492188 201.691406 184.84375 201.339844 C 185.195312 200.988281 185.601562 200.71875 186.058594 200.527344 C 186.519531 200.339844 186.996094 200.242188 187.496094 200.242188 C 187.992188 200.242188 188.46875 200.339844 188.929688 200.527344 C 189.386719 200.71875 189.792969 200.988281 190.144531 201.339844 C 190.496094 201.691406 190.769531 202.097656 190.957031 202.558594 C 191.148438 203.015625 191.242188 203.496094 191.242188 203.992188 Z M 191.242188 203.992188 " fill-opacity="1" fill-rule="nonzero"/></g><g clip-path="url(#914bbc04e1)"><path fill="#000000" d="M 234.355469 167.253906 L 315.078125 167.253906 L 328.078125 181.398438 L 315.078125 195.371094 L 234.355469 195.371094 L 247.355469 181.398438 Z M 234.355469 167.253906 " fill-opacity="1" fill-rule="evenodd"/></g><g clip-path="url(#f8e8345082)"><path fill="#e0e5f3" d="M 234.355469 203.242188 L 328.078125 203.242188 L 328.078125 204.742188 L 234.355469 204.742188 Z M 234.355469 203.242188 " fill-opacity="1" fill-rule="nonzero"/></g><g clip-path="url(#5bfd76ed29)"><path fill="#000000" d="M 284.964844 203.992188 C 284.964844 204.488281 284.871094 204.96875 284.679688 205.425781 C 284.492188 205.886719 284.21875 206.292969 283.867188 206.644531 C 283.515625 206.996094 283.109375 207.265625 282.652344 207.457031 C 282.191406 207.644531 281.714844 207.742188 281.21875 207.742188 C 280.71875 207.742188 280.242188 207.644531 279.78125 207.457031 C 279.324219 207.265625 278.917969 206.996094 278.566406 206.644531 C 278.214844 206.292969 277.945312 205.886719 277.753906 205.425781 C 277.5625 204.96875 277.46875 204.488281 277.46875 203.992188 C 277.46875 203.496094 277.5625 203.015625 277.753906 202.558594 C 277.945312 202.097656 278.214844 201.691406 278.566406 201.339844 C 278.917969 200.988281 279.324219 200.71875 279.78125 200.527344 C 280.242188 200.339844 280.71875 200.242188 281.21875 200.242188 C 281.714844 200.242188 282.191406 200.339844 282.652344 200.527344 C 283.109375 200.71875 283.515625 200.988281 283.867188 201.339844 C 284.21875 201.691406 284.492188 202.097656 284.679688 202.558594 C 284.871094 203.015625 284.964844 203.496094 284.964844 203.992188 Z M 284.964844 203.992188 " fill-opacity="1" fill-rule="nonzero"/></g></svg>