<svg xmlns="http://www.w3.org/2000/svg" xmlns:xlink="http://www.w3.org/1999/xlink" width="500" zoomAndPan="magnify" viewBox="0 0 375 374.999991" height="500" preserveAspectRatio="xMidYMid meet" version="1.0"><defs><clipPath id="8d88a3485e"><path d="M 39.082031 39.082031 L 335.917969 39.082031 L 335.917969 335.917969 L 39.082031 335.917969 Z M 39.082031 39.082031 " clip-rule="nonzero"/></clipPath><clipPath id="02267cd9f4"><path d="M 187.5 39.082031 C 105.53125 39.082031 39.082031 105.53125 39.082031 187.5 C 39.082031 269.46875 105.53125 335.917969 187.5 335.917969 C 269.46875 335.917969 335.917969 269.46875 335.917969 187.5 C 335.917969 105.53125 269.46875 39.082031 187.5 39.082031 Z M 187.5 39.082031 " clip-rule="nonzero"/></clipPath><clipPath id="a1115b6e94"><path d="M 35.851562 35.851562 L 338.851562 35.851562 L 338.851562 338.851562 L 35.851562 338.851562 Z M 35.851562 35.851562 " clip-rule="nonzero"/></clipPath><clipPath id="1bd2116e4a"><path d="M 95.269531 118.328125 L 279.769531 118.328125 L 279.769531 256.328125 L 95.269531 256.328125 Z M 95.269531 118.328125 " clip-rule="nonzero"/></clipPath></defs><rect x="-37.5" width="450" fill="#ffffff" y="-37.499999" height="449.999989" fill-opacity="1"/><rect x="-37.5" width="450" fill="#ffffff" y="-37.499999" height="449.999989" fill-opacity="1"/><g clip-path="url(#8d88a3485e)"><g clip-path="url(#02267cd9f4)"><path fill="#d65252" d="M 39.082031 39.082031 L 335.917969 39.082031 L 335.917969 335.917969 L 39.082031 335.917969 Z M 39.082031 39.082031 " fill-opacity="1" fill-rule="nonzero"/></g></g><g clip-path="url(#a1115b6e94)"><path fill="#ed7979" d="M 187.5 35.851562 C 103.832031 35.851562 35.851562 103.832031 35.851562 187.5 C 35.851562 271.167969 103.832031 339.144531 187.5 339.144531 C 271.167969 339.144531 339.144531 271.167969 339.144531 187.5 C 339.144531 103.832031 271.167969 35.851562 187.5 35.851562 Z M 187.5 42.445312 C 267.695312 42.445312 332.550781 107.304688 332.550781 187.5 C 332.550781 267.695312 267.695312 332.550781 187.5 332.550781 C 107.304688 332.550781 42.445312 267.695312 42.445312 187.5 C 42.445312 107.304688 107.304688 42.445312 187.5 42.445312 Z M 187.5 42.445312 " fill-opacity="1" fill-rule="nonzero"/></g><g clip-path="url(#1bd2116e4a)"><path fill="#ffffff" d="M 270.496094 247.226562 L 270.496094 166.492188 C 270.496094 161.894531 266.738281 158.136719 262.136719 158.136719 L 234.804688 158.136719 L 234.804688 247.226562 L 231.144531 247.226562 L 231.144531 126.617188 C 231.144531 122.023438 227.378906 118.257812 222.789062 118.257812 L 152.203125 118.257812 C 147.613281 118.257812 143.851562 122.023438 143.851562 126.617188 L 143.851562 247.230469 L 140.191406 247.230469 L 140.191406 158.136719 L 112.855469 158.136719 C 108.257812 158.136719 104.5 161.894531 104.5 166.492188 L 104.5 247.226562 L 95.269531 247.226562 L 95.269531 256.738281 L 279.722656 256.738281 L 279.722656 247.226562 Z M 245.820312 181.882812 C 245.820312 181.15625 246.414062 180.5625 247.136719 180.5625 L 258.164062 180.5625 C 258.890625 180.5625 259.484375 181.15625 259.484375 181.882812 L 259.484375 199.609375 C 259.484375 200.335938 258.890625 200.929688 258.164062 200.929688 L 247.136719 200.929688 C 246.414062 200.929688 245.820312 200.335938 245.820312 199.609375 Z M 245.820312 215.769531 C 245.820312 215.042969 246.414062 214.449219 247.136719 214.449219 L 258.164062 214.449219 C 258.890625 214.449219 259.484375 215.042969 259.484375 215.769531 L 259.484375 233.496094 C 259.484375 234.222656 258.890625 234.808594 258.164062 234.808594 L 247.136719 234.808594 C 246.414062 234.808594 245.820312 234.222656 245.820312 233.496094 Z M 115.507812 181.882812 C 115.507812 181.15625 116.101562 180.5625 116.828125 180.5625 L 127.855469 180.5625 C 128.582031 180.5625 129.175781 181.15625 129.175781 181.882812 L 129.175781 199.609375 C 129.175781 200.335938 128.582031 200.929688 127.855469 200.929688 L 116.828125 200.929688 C 116.101562 200.929688 115.507812 200.335938 115.507812 199.609375 Z M 115.507812 215.769531 C 115.507812 215.042969 116.101562 214.449219 116.828125 214.449219 L 127.855469 214.449219 C 128.582031 214.449219 129.175781 215.042969 129.175781 215.769531 L 129.175781 233.496094 C 129.175781 234.222656 128.582031 234.808594 127.855469 234.808594 L 116.828125 234.808594 C 116.101562 234.808594 115.507812 234.222656 115.507812 233.496094 Z M 169.730469 233.496094 C 169.730469 234.222656 169.136719 234.808594 168.410156 234.808594 L 157.386719 234.808594 C 156.660156 234.808594 156.066406 234.222656 156.066406 233.496094 L 156.066406 215.769531 C 156.066406 215.042969 156.660156 214.449219 157.386719 214.449219 L 168.410156 214.449219 C 169.136719 214.449219 169.730469 215.042969 169.730469 215.769531 Z M 169.730469 199.609375 C 169.730469 200.335938 169.136719 200.929688 168.410156 200.929688 L 157.386719 200.929688 C 156.660156 200.929688 156.066406 200.335938 156.066406 199.609375 L 156.066406 181.882812 C 156.066406 181.15625 156.660156 180.5625 157.386719 180.5625 L 168.410156 180.5625 C 169.136719 180.5625 169.730469 181.15625 169.730469 181.882812 Z M 196.5 247.226562 L 178.492188 247.226562 L 178.492188 216.191406 C 178.492188 215.230469 179.269531 214.449219 180.234375 214.449219 L 194.757812 214.449219 C 195.722656 214.449219 196.5 215.230469 196.5 216.191406 Z M 180.660156 199.609375 L 180.660156 181.882812 C 180.660156 181.15625 181.253906 180.5625 181.980469 180.5625 L 193.011719 180.5625 C 193.738281 180.5625 194.332031 181.15625 194.332031 181.882812 L 194.332031 199.609375 C 194.332031 200.335938 193.738281 200.929688 193.011719 200.929688 L 181.980469 200.929688 C 181.253906 200.929688 180.660156 200.335938 180.660156 199.609375 Z M 197.320312 155.160156 C 196.011719 155.160156 194.949219 156.226562 194.949219 157.523438 L 194.949219 165.023438 C 194.949219 166.324219 193.882812 167.390625 192.582031 167.390625 L 182.414062 167.390625 C 181.109375 167.390625 180.042969 166.324219 180.042969 165.023438 L 180.042969 157.523438 C 180.042969 156.226562 178.984375 155.160156 177.675781 155.160156 L 170.042969 155.160156 C 168.734375 155.160156 167.675781 154.09375 167.675781 152.792969 L 167.675781 143.199219 C 167.675781 141.898438 168.734375 140.835938 170.042969 140.835938 L 177.675781 140.835938 C 178.984375 140.835938 180.042969 139.765625 180.042969 138.46875 L 180.042969 131.042969 C 180.042969 129.742188 181.109375 128.675781 182.414062 128.675781 L 192.582031 128.675781 C 193.882812 128.675781 194.949219 129.742188 194.949219 131.042969 L 194.949219 138.46875 C 194.949219 139.769531 196.011719 140.835938 197.320312 140.835938 L 204.949219 140.835938 C 206.257812 140.835938 207.320312 141.898438 207.320312 143.199219 L 207.320312 152.792969 C 207.320312 154.09375 206.257812 155.160156 204.949219 155.160156 Z M 218.929688 233.496094 C 218.929688 234.222656 218.335938 234.808594 217.609375 234.808594 L 206.582031 234.808594 C 205.855469 234.808594 205.261719 234.222656 205.261719 233.496094 L 205.261719 215.769531 C 205.261719 215.042969 205.855469 214.449219 206.582031 214.449219 L 217.609375 214.449219 C 218.335938 214.449219 218.929688 215.042969 218.929688 215.769531 Z M 218.929688 199.609375 C 218.929688 200.335938 218.335938 200.929688 217.609375 200.929688 L 206.582031 200.929688 C 205.855469 200.929688 205.261719 200.335938 205.261719 199.609375 L 205.261719 181.882812 C 205.261719 181.15625 205.855469 180.5625 206.582031 180.5625 L 217.609375 180.5625 C 218.335938 180.5625 218.929688 181.15625 218.929688 181.882812 Z M 218.929688 199.609375 " fill-opacity="1" fill-rule="nonzero"/></g></svg>