<svg xmlns="http://www.w3.org/2000/svg" xmlns:xlink="http://www.w3.org/1999/xlink" width="500" zoomAndPan="magnify" viewBox="0 0 375 374.999991" height="500" preserveAspectRatio="xMidYMid meet" version="1.0"><defs><clipPath id="4faa62bc38"><path d="M 39.082031 39.082031 L 335.917969 39.082031 L 335.917969 335.917969 L 39.082031 335.917969 Z M 39.082031 39.082031 " clip-rule="nonzero"/></clipPath><clipPath id="7c7817de1e"><path d="M 187.5 39.082031 C 105.53125 39.082031 39.082031 105.53125 39.082031 187.5 C 39.082031 269.46875 105.53125 335.917969 187.5 335.917969 C 269.46875 335.917969 335.917969 269.46875 335.917969 187.5 C 335.917969 105.53125 269.46875 39.082031 187.5 39.082031 Z M 187.5 39.082031 " clip-rule="nonzero"/></clipPath><clipPath id="7914858ea0"><path d="M 35.851562 35.851562 L 338.851562 35.851562 L 338.851562 338.851562 L 35.851562 338.851562 Z M 35.851562 35.851562 " clip-rule="nonzero"/></clipPath><clipPath id="d30f3fb96e"><path d="M 165 107.371094 L 209 107.371094 L 209 151 L 165 151 Z M 165 107.371094 " clip-rule="nonzero"/></clipPath></defs><g clip-path="url(#4faa62bc38)"><g clip-path="url(#7c7817de1e)"><path fill="#a6a6a6" d="M 39.082031 39.082031 L 335.917969 39.082031 L 335.917969 335.917969 L 39.082031 335.917969 Z M 39.082031 39.082031 " fill-opacity="1" fill-rule="nonzero"/></g></g><g clip-path="url(#7914858ea0)"><path fill="#d9d9d9" d="M 187.5 35.851562 C 103.832031 35.851562 35.851562 103.832031 35.851562 187.5 C 35.851562 271.167969 103.832031 339.144531 187.5 339.144531 C 271.167969 339.144531 339.144531 271.167969 339.144531 187.5 C 339.144531 103.832031 271.167969 35.851562 187.5 35.851562 Z M 187.5 42.445312 C 267.695312 42.445312 332.550781 107.304688 332.550781 187.5 C 332.550781 267.695312 267.695312 332.550781 187.5 332.550781 C 107.304688 332.550781 42.445312 267.695312 42.445312 187.5 C 42.445312 107.304688 107.304688 42.445312 187.5 42.445312 Z M 187.5 42.445312 " fill-opacity="1" fill-rule="nonzero"/></g><path fill="#000000" d="M 209.875 205.6875 C 209.875 205.6875 224.664062 220.542969 224.710938 220.5625 C 229.425781 225.324219 228.207031 233.703125 223.734375 238.269531 L 203.101562 259.835938 C 195.132812 267.800781 184.484375 256.742188 192.222656 249.023438 L 205.308594 235.886719 L 192.496094 223.121094 Z M 209.875 205.6875 " fill-opacity="1" fill-rule="nonzero"/><path fill="#000000" d="M 163.871094 205.6875 C 163.871094 205.6875 149.113281 220.542969 149.113281 220.5625 C 144.359375 225.324219 145.578125 233.703125 150 238.269531 L 170.714844 259.835938 C 178.652344 267.800781 189.300781 256.742188 181.605469 249.023438 L 168.539062 235.886719 L 181.261719 223.121094 L 163.871094 205.6875 " fill-opacity="1" fill-rule="nonzero"/><g clip-path="url(#d30f3fb96e)"><path fill="#000000" d="M 187.394531 150.417969 C 199.246094 150.417969 208.855469 140.800781 208.855469 128.867188 C 208.855469 116.992188 199.246094 107.371094 187.394531 107.371094 C 175.527344 107.371094 165.90625 116.992188 165.90625 128.867188 C 165.90625 140.800781 175.527344 150.417969 187.394531 150.417969 Z M 187.394531 150.417969 " fill-opacity="1" fill-rule="nonzero"/></g><path fill="#000000" d="M 210.648438 197.066406 L 210.960938 182.382812 L 228.792969 199.078125 C 230.253906 200.453125 232.113281 201.117188 233.980469 201.117188 C 236.007812 201.117188 238.039062 200.308594 239.53125 198.703125 C 242.402344 195.621094 242.230469 190.800781 239.167969 187.929688 C 239.167969 187.929688 218.71875 165.636719 215.789062 163.039062 C 210.335938 158.199219 202.359375 155.460938 189.414062 155.460938 L 185.34375 155.460938 C 172.398438 155.460938 164.417969 158.199219 158.96875 163.039062 C 156.035156 165.636719 135.582031 187.929688 135.582031 187.929688 C 132.519531 190.800781 132.347656 195.621094 135.222656 198.703125 C 136.710938 200.308594 138.746094 201.117188 140.773438 201.117188 C 142.636719 201.117188 144.5 200.449219 145.960938 199.078125 L 163.792969 182.382812 L 164.105469 197.066406 Z M 210.648438 197.066406 " fill-opacity="1" fill-rule="nonzero"/></svg>