<svg xmlns="http://www.w3.org/2000/svg" xmlns:xlink="http://www.w3.org/1999/xlink" width="500" zoomAndPan="magnify" viewBox="0 0 375 374.999991" height="500" preserveAspectRatio="xMidYMid meet" version="1.0"><defs><clipPath id="30f49c677a"><path d="M 39.082031 39.082031 L 335.917969 39.082031 L 335.917969 335.917969 L 39.082031 335.917969 Z M 39.082031 39.082031 " clip-rule="nonzero"/></clipPath><clipPath id="fbf23a8485"><path d="M 187.5 39.082031 C 105.53125 39.082031 39.082031 105.53125 39.082031 187.5 C 39.082031 269.46875 105.53125 335.917969 187.5 335.917969 C 269.46875 335.917969 335.917969 269.46875 335.917969 187.5 C 335.917969 105.53125 269.46875 39.082031 187.5 39.082031 Z M 187.5 39.082031 " clip-rule="nonzero"/></clipPath><clipPath id="10c1f52b18"><path d="M 35.851562 35.851562 L 338.851562 35.851562 L 338.851562 338.851562 L 35.851562 338.851562 Z M 35.851562 35.851562 " clip-rule="nonzero"/></clipPath><clipPath id="69dd1db2d0"><path d="M 165 107.371094 L 209 107.371094 L 209 151 L 165 151 Z M 165 107.371094 " clip-rule="nonzero"/></clipPath></defs><g clip-path="url(#30f49c677a)"><g clip-path="url(#fbf23a8485)"><path fill="#4388ff" d="M 39.082031 39.082031 L 335.917969 39.082031 L 335.917969 335.917969 L 39.082031 335.917969 Z M 39.082031 39.082031 " fill-opacity="1" fill-rule="nonzero"/></g></g><g clip-path="url(#10c1f52b18)"><path fill="#2a55a0" d="M 187.5 35.851562 C 103.832031 35.851562 35.851562 103.832031 35.851562 187.5 C 35.851562 271.167969 103.832031 339.144531 187.5 339.144531 C 271.167969 339.144531 339.144531 271.167969 339.144531 187.5 C 339.144531 103.832031 271.167969 35.851562 187.5 35.851562 Z M 187.5 42.445312 C 267.695312 42.445312 332.550781 107.304688 332.550781 187.5 C 332.550781 267.695312 267.695312 332.550781 187.5 332.550781 C 107.304688 332.550781 42.445312 267.695312 42.445312 187.5 C 42.445312 107.304688 107.304688 42.445312 187.5 42.445312 Z M 187.5 42.445312 " fill-opacity="1" fill-rule="nonzero"/></g><path fill="#ffffff" d="M 209.996094 205.539062 C 209.996094 205.539062 224.808594 220.371094 224.859375 220.390625 C 229.582031 225.144531 228.359375 233.507812 223.878906 238.070312 L 203.214844 259.601562 C 195.234375 267.554688 184.570312 256.515625 192.316406 248.804688 L 205.425781 235.6875 L 192.589844 222.941406 Z M 209.996094 205.539062 " fill-opacity="1" fill-rule="nonzero"/><path fill="#ffffff" d="M 163.921875 205.539062 C 163.921875 205.539062 149.140625 220.371094 149.140625 220.390625 C 144.378906 225.144531 145.597656 233.507812 150.027344 238.070312 L 170.773438 259.601562 C 178.726562 267.554688 189.394531 256.515625 181.683594 248.804688 L 168.597656 235.6875 L 181.339844 222.941406 L 163.921875 205.539062 " fill-opacity="1" fill-rule="nonzero"/><g clip-path="url(#69dd1db2d0)"><path fill="#ffffff" d="M 187.484375 150.351562 C 199.351562 150.351562 208.976562 140.75 208.976562 128.832031 C 208.976562 116.976562 199.351562 107.371094 187.484375 107.371094 C 175.597656 107.371094 165.960938 116.976562 165.960938 128.835938 C 165.960938 140.75 175.597656 150.351562 187.484375 150.351562 Z M 187.484375 150.351562 " fill-opacity="1" fill-rule="nonzero"/></g><path fill="#ffffff" d="M 210.773438 196.929688 L 211.085938 182.269531 L 228.945312 198.9375 C 230.410156 200.308594 232.273438 200.976562 234.144531 200.976562 C 236.171875 200.976562 238.207031 200.167969 239.703125 198.5625 C 242.578125 195.484375 242.40625 190.671875 239.339844 187.808594 C 239.339844 187.808594 218.855469 165.546875 215.921875 162.953125 C 210.460938 158.121094 202.46875 155.386719 189.503906 155.386719 L 185.425781 155.386719 C 172.460938 155.386719 164.46875 158.121094 159.011719 162.953125 C 156.074219 165.546875 135.589844 187.808594 135.589844 187.808594 C 132.523438 190.671875 132.351562 195.484375 135.226562 198.5625 C 136.71875 200.167969 138.757812 200.976562 140.785156 200.976562 C 142.652344 200.976562 144.519531 200.308594 145.980469 198.9375 L 163.84375 182.269531 L 164.15625 196.929688 Z M 210.773438 196.929688 " fill-opacity="1" fill-rule="nonzero"/></svg>