<svg xmlns="http://www.w3.org/2000/svg" xmlns:xlink="http://www.w3.org/1999/xlink" width="500" zoomAndPan="magnify" viewBox="0 0 375 374.999991" height="500" preserveAspectRatio="xMidYMid meet" version="1.0"><defs><clipPath id="12d402fc73"><path d="M 196 166 L 297.324219 166 L 297.324219 234.394531 L 196 234.394531 Z M 196 166 " clip-rule="nonzero"/></clipPath><clipPath id="6806604d59"><path d="M 77.574219 166 L 179 166 L 179 234.394531 L 77.574219 234.394531 Z M 77.574219 166 " clip-rule="nonzero"/></clipPath></defs><path fill="#2a55a0" d="M 260.558594 208.222656 L 242.222656 145.800781 C 210.582031 140.816406 193.738281 158.441406 190.441406 162.367188 L 190.441406 229.03125 C 210.988281 208.742188 234.398438 200.980469 260.558594 208.222656 Z M 260.558594 208.222656 " fill-opacity="1" fill-rule="nonzero"/><g clip-path="url(#12d402fc73)"><path fill="#2a55a0" d="M 275.671875 166.609375 L 268.960938 166.609375 L 288.234375 225.378906 C 288.914062 227.382812 287.09375 229.566406 284.976562 229.226562 C 284.308594 229.109375 224.046875 220.117188 196.957031 234.449219 L 297.304688 234.449219 Z M 275.671875 166.609375 " fill-opacity="1" fill-rule="nonzero"/></g><path fill="#2a55a0" d="M 266.917969 214.78125 C 266.09375 215.5625 264.914062 215.800781 263.894531 215.40625 C 263.621094 215.289062 238.140625 206.023438 217.804688 216.664062 C 212.035156 219.6875 207.363281 222.671875 203.632812 225.417969 C 229.464844 217.292969 267.78125 221.0625 281.167969 222.75 L 259.96875 158.089844 L 251.960938 158.089844 L 267.742188 211.796875 C 268.058594 212.855469 267.742188 214.035156 266.917969 214.78125 Z M 266.917969 214.78125 " fill-opacity="1" fill-rule="nonzero"/><path fill="#2a55a0" d="M 132.769531 145.800781 L 114.433594 208.222656 C 142.394531 200.410156 165.984375 210.589844 184.550781 229.03125 C 184.550781 229.03125 184.550781 162.367188 184.550781 162.367188 C 181.253906 158.441406 164.410156 140.855469 132.769531 145.800781 Z M 132.769531 145.800781 " fill-opacity="1" fill-rule="nonzero"/><g clip-path="url(#6806604d59)"><path fill="#2a55a0" d="M 90.015625 229.226562 C 87.902344 229.5625 86.074219 227.382812 86.757812 225.378906 C 86.757812 225.378906 106.035156 166.609375 106.035156 166.609375 C 106.035156 166.609375 99.320312 166.609375 99.320312 166.609375 L 77.6875 234.449219 L 178.035156 234.449219 C 150.984375 220.117188 90.683594 229.109375 90.015625 229.226562 Z M 90.015625 229.226562 " fill-opacity="1" fill-rule="nonzero"/></g><path fill="#2a55a0" d="M 171.359375 225.417969 C 167.632812 222.671875 162.960938 219.6875 157.1875 216.664062 C 136.851562 206.0625 111.371094 215.289062 111.097656 215.40625 C 108.964844 216.304688 106.5 214.011719 107.25 211.796875 C 107.25 211.796875 123.03125 158.089844 123.03125 158.089844 L 115.023438 158.089844 L 93.824219 222.75 C 107.210938 221.0625 145.527344 217.292969 171.359375 225.417969 Z M 171.359375 225.417969 " fill-opacity="1" fill-rule="nonzero"/></svg>