<svg xmlns="http://www.w3.org/2000/svg" xmlns:xlink="http://www.w3.org/1999/xlink" width="500" zoomAndPan="magnify" viewBox="0 0 375 374.999991" height="500" preserveAspectRatio="xMidYMid meet" version="1.0"><defs><clipPath id="42644eb393"><path d="M 39.082031 39.082031 L 335.917969 39.082031 L 335.917969 335.917969 L 39.082031 335.917969 Z M 39.082031 39.082031 " clip-rule="nonzero"/></clipPath><clipPath id="3a6e2e0d84"><path d="M 187.5 39.082031 C 105.53125 39.082031 39.082031 105.53125 39.082031 187.5 C 39.082031 269.46875 105.53125 335.917969 187.5 335.917969 C 269.46875 335.917969 335.917969 269.46875 335.917969 187.5 C 335.917969 105.53125 269.46875 39.082031 187.5 39.082031 Z M 187.5 39.082031 " clip-rule="nonzero"/></clipPath><clipPath id="c8443a97ff"><path d="M 35.851562 35.851562 L 338.851562 35.851562 L 338.851562 338.851562 L 35.851562 338.851562 Z M 35.851562 35.851562 " clip-rule="nonzero"/></clipPath><clipPath id="26ca1f677b"><path d="M 184 80.757812 L 192 80.757812 L 192 109 L 184 109 Z M 184 80.757812 " clip-rule="nonzero"/></clipPath><clipPath id="fda68d8a2f"><path d="M 176 287 L 199 287 L 199 294.507812 L 176 294.507812 Z M 176 287 " clip-rule="nonzero"/></clipPath><clipPath id="b1fffd0ff7"><path d="M 146 146 L 223 146 L 223 220 L 146 220 Z M 146 146 " clip-rule="nonzero"/></clipPath><clipPath id="6919adfd41"><path d="M 154.105469 140.417969 L 229.78125 159.308594 L 213.074219 226.253906 L 137.394531 207.363281 Z M 154.105469 140.417969 " clip-rule="nonzero"/></clipPath><clipPath id="fa5fa5c3f0"><path d="M 154.105469 140.417969 L 229.78125 159.308594 L 213.074219 226.253906 L 137.394531 207.363281 Z M 154.105469 140.417969 " clip-rule="nonzero"/></clipPath></defs><g clip-path="url(#42644eb393)"><g clip-path="url(#3a6e2e0d84)"><path fill="#d65252" d="M 39.082031 39.082031 L 335.917969 39.082031 L 335.917969 335.917969 L 39.082031 335.917969 Z M 39.082031 39.082031 " fill-opacity="1" fill-rule="nonzero"/></g></g><g clip-path="url(#c8443a97ff)"><path fill="#ed7979" d="M 187.5 35.851562 C 103.832031 35.851562 35.851562 103.832031 35.851562 187.5 C 35.851562 271.167969 103.832031 339.144531 187.5 339.144531 C 271.167969 339.144531 339.144531 271.167969 339.144531 187.5 C 339.144531 103.832031 271.167969 35.851562 187.5 35.851562 Z M 187.5 42.445312 C 267.695312 42.445312 332.550781 107.304688 332.550781 187.5 C 332.550781 267.695312 267.695312 332.550781 187.5 332.550781 C 107.304688 332.550781 42.445312 267.695312 42.445312 187.5 C 42.445312 107.304688 107.304688 42.445312 187.5 42.445312 Z M 187.5 42.445312 " fill-opacity="1" fill-rule="nonzero"/></g><path fill="#ffffff" d="M 210.460938 247.050781 L 210.460938 240.359375 C 210.460938 228.59375 215.242188 217.289062 223.574219 209.347656 C 234.003906 199.414062 239.746094 186.011719 239.746094 171.613281 C 239.746094 142.867188 216.359375 119.480469 187.613281 119.480469 C 185.652344 119.480469 183.660156 119.589844 181.695312 119.808594 C 156.789062 122.5625 136.957031 143.558594 135.566406 168.648438 C 134.726562 183.78125 140.464844 198.496094 151.316406 209.023438 C 159.863281 217.3125 164.765625 228.734375 164.765625 240.351562 L 164.765625 247.050781 C 164.765625 254.164062 170.550781 259.949219 177.664062 259.949219 L 197.558594 259.949219 C 204.671875 259.953125 210.460938 254.164062 210.460938 247.050781 Z M 200.972656 247.050781 C 200.972656 248.933594 199.441406 250.464844 197.5625 250.464844 L 177.667969 250.464844 C 175.789062 250.464844 174.257812 248.929688 174.257812 247.050781 L 174.257812 240.351562 C 174.257812 226.183594 168.304688 212.285156 157.921875 202.214844 C 149.050781 193.605469 144.351562 181.5625 145.042969 169.179688 C 146.179688 148.660156 162.386719 131.492188 182.738281 129.242188 C 184.363281 129.0625 186.003906 128.972656 187.617188 128.972656 C 211.132812 128.972656 230.261719 148.097656 230.261719 171.613281 C 230.261719 183.390625 225.566406 194.351562 217.035156 202.480469 C 206.832031 212.203125 200.976562 226.011719 200.976562 240.359375 L 200.976562 247.050781 Z M 200.972656 247.050781 " fill-opacity="1" fill-rule="nonzero"/><path fill="#ffffff" d="M 203.054688 264.636719 L 172.175781 264.636719 C 170.207031 264.636719 168.617188 266.230469 168.617188 268.195312 C 168.617188 270.164062 170.207031 271.753906 172.175781 271.753906 L 203.054688 271.753906 C 205.023438 271.753906 206.613281 270.164062 206.613281 268.195312 C 206.613281 266.230469 205.019531 264.636719 203.054688 264.636719 Z M 203.054688 264.636719 " fill-opacity="1" fill-rule="nonzero"/><path fill="#ffffff" d="M 206.613281 279.4375 C 206.613281 277.472656 205.019531 275.882812 203.054688 275.882812 L 172.175781 275.882812 C 170.207031 275.882812 168.617188 277.472656 168.617188 279.4375 C 168.617188 281.40625 170.207031 282.996094 172.175781 282.996094 L 203.054688 282.996094 C 205.019531 282.996094 206.613281 281.402344 206.613281 279.4375 Z M 206.613281 279.4375 " fill-opacity="1" fill-rule="nonzero"/><path fill="#ffffff" d="M 103.960938 171.527344 L 124.460938 171.527344 C 126.429688 171.527344 128.019531 169.9375 128.019531 167.96875 C 128.019531 166.003906 126.429688 164.410156 124.460938 164.410156 L 103.960938 164.410156 C 101.996094 164.410156 100.402344 166.003906 100.402344 167.96875 C 100.402344 169.9375 101.996094 171.527344 103.960938 171.527344 Z M 103.960938 171.527344 " fill-opacity="1" fill-rule="nonzero"/><path fill="#ffffff" d="M 274.824219 167.96875 C 274.824219 166.003906 273.234375 164.410156 271.269531 164.410156 L 250.765625 164.410156 C 248.800781 164.410156 247.207031 166.003906 247.207031 167.96875 C 247.207031 169.9375 248.800781 171.527344 250.765625 171.527344 L 271.269531 171.527344 C 273.234375 171.527344 274.824219 169.9375 274.824219 167.96875 Z M 274.824219 167.96875 " fill-opacity="1" fill-rule="nonzero"/><g clip-path="url(#26ca1f677b)"><path fill="#ffffff" d="M 184.054688 84.316406 L 184.054688 104.816406 C 184.054688 106.785156 185.648438 108.375 187.613281 108.375 C 189.582031 108.375 191.171875 106.785156 191.171875 104.816406 L 191.171875 84.316406 C 191.171875 82.347656 189.582031 80.757812 187.613281 80.757812 C 185.648438 80.757812 184.054688 82.347656 184.054688 84.316406 Z M 184.054688 84.316406 " fill-opacity="1" fill-rule="nonzero"/></g><path fill="#ffffff" d="M 244.25 106.300781 L 229.753906 120.796875 C 228.363281 122.183594 228.363281 124.441406 229.753906 125.828125 C 230.449219 126.523438 231.359375 126.871094 232.273438 126.871094 C 233.183594 126.871094 234.09375 126.523438 234.789062 125.828125 L 249.285156 111.332031 C 250.675781 109.945312 250.675781 107.691406 249.285156 106.300781 C 247.890625 104.910156 245.640625 104.910156 244.25 106.300781 Z M 244.25 106.300781 " fill-opacity="1" fill-rule="nonzero"/><path fill="#ffffff" d="M 145.472656 210.109375 C 144.082031 208.71875 141.832031 208.71875 140.441406 210.109375 L 125.945312 224.605469 C 124.558594 225.992188 124.558594 228.246094 125.945312 229.636719 C 126.640625 230.332031 127.550781 230.679688 128.464844 230.679688 C 129.375 230.679688 130.285156 230.332031 130.980469 229.636719 L 145.476562 215.140625 C 146.863281 213.753906 146.863281 211.5 145.472656 210.109375 Z M 145.472656 210.109375 " fill-opacity="1" fill-rule="nonzero"/><path fill="#ffffff" d="M 140.441406 125.828125 C 141.136719 126.523438 142.046875 126.871094 142.957031 126.871094 C 143.871094 126.871094 144.78125 126.523438 145.476562 125.828125 C 146.867188 124.441406 146.867188 122.183594 145.476562 120.796875 L 130.980469 106.300781 C 129.589844 104.910156 127.339844 104.910156 125.949219 106.300781 C 124.558594 107.691406 124.558594 109.945312 125.949219 111.332031 Z M 140.441406 125.828125 " fill-opacity="1" fill-rule="nonzero"/><path fill="#ffffff" d="M 244.25 229.636719 C 244.945312 230.332031 245.855469 230.679688 246.765625 230.679688 C 247.679688 230.679688 248.589844 230.332031 249.285156 229.636719 C 250.675781 228.246094 250.675781 225.992188 249.285156 224.605469 L 234.789062 210.109375 C 233.398438 208.71875 231.148438 208.71875 229.757812 210.109375 C 228.367188 211.5 228.367188 213.753906 229.757812 215.140625 Z M 244.25 229.636719 " fill-opacity="1" fill-rule="nonzero"/><g clip-path="url(#fda68d8a2f)"><path fill="#ffffff" d="M 198.890625 290.679688 C 198.890625 288.714844 197.300781 287.121094 195.332031 287.121094 L 179.894531 287.121094 C 177.925781 287.121094 176.335938 288.714844 176.335938 290.679688 C 176.335938 292.648438 177.925781 294.238281 179.894531 294.238281 L 195.332031 294.238281 C 197.300781 294.238281 198.890625 292.648438 198.890625 290.679688 Z M 198.890625 290.679688 " fill-opacity="1" fill-rule="nonzero"/></g><g clip-path="url(#b1fffd0ff7)"><g clip-path="url(#6919adfd41)"><g clip-path="url(#fa5fa5c3f0)"><path fill="#ffde59" d="M 222.0625 185.847656 C 221.753906 183.585938 221.011719 181.390625 219.8125 179.433594 C 219.554688 179.011719 219.242188 178.582031 218.890625 178.175781 C 219.46875 175.828125 219.492188 173.386719 218.945312 171.070312 C 218.398438 168.742188 217.285156 166.542969 215.589844 164.726562 C 214.546875 163.609375 213.3125 162.589844 211.960938 161.746094 C 210.609375 160.910156 209.140625 160.25 207.601562 159.867188 C 207.0625 159.730469 206.507812 159.628906 205.957031 159.566406 C 205.949219 159.542969 205.941406 159.519531 205.933594 159.496094 C 205.410156 158.207031 204.617188 156.953125 203.765625 155.867188 C 203.335938 155.328125 202.894531 154.828125 202.453125 154.394531 C 202.011719 153.960938 201.585938 153.585938 201.183594 153.292969 C 199.542969 152.101562 197.726562 151.308594 195.828125 150.835938 C 193.46875 150.246094 190.976562 150.144531 188.546875 150.367188 C 188.066406 150.410156 187.527344 150.484375 186.976562 150.613281 C 185.070312 149.074219 182.859375 148 180.535156 147.421875 C 177.539062 146.671875 174.339844 146.734375 171.320312 147.644531 C 170.085938 148.015625 168.238281 148.683594 166.582031 149.644531 C 165.757812 150.125 164.976562 150.679688 164.347656 151.320312 C 164.277344 151.390625 164.207031 151.460938 164.144531 151.542969 C 162.800781 151.375 161.460938 151.488281 160.171875 151.828125 C 157.746094 152.46875 155.5 153.894531 153.703125 155.777344 C 151.90625 157.660156 150.554688 159.992188 149.9375 162.460938 C 149.667969 163.546875 149.539062 164.648438 149.578125 165.753906 C 149.464844 165.820312 149.359375 165.894531 149.257812 165.972656 C 148.601562 166.460938 148.066406 167.082031 147.640625 167.789062 C 147.214844 168.492188 146.902344 169.277344 146.695312 170.101562 C 146.328125 171.578125 146.300781 173.183594 146.597656 174.703125 C 146.746094 175.457031 146.972656 176.1875 147.285156 176.875 C 147.597656 177.554688 147.992188 178.1875 148.472656 178.734375 C 149.148438 179.511719 149.929688 180.152344 150.78125 180.671875 C 151.632812 181.195312 152.554688 181.59375 153.515625 181.875 C 153.707031 181.929688 153.910156 181.820312 153.964844 181.628906 C 154.019531 181.4375 153.910156 181.234375 153.71875 181.179688 C 152.816406 180.917969 151.949219 180.539062 151.160156 180.058594 C 150.367188 179.574219 149.644531 178.972656 149.015625 178.253906 C 148.589844 177.765625 148.230469 177.199219 147.949219 176.570312 C 147.519531 175.636719 147.25 174.570312 147.160156 173.492188 C 147.066406 172.40625 147.148438 171.304688 147.40625 170.285156 C 147.574219 169.609375 147.824219 168.964844 148.144531 168.386719 C 148.382812 167.953125 148.664062 167.554688 148.996094 167.207031 C 149.195312 166.984375 149.414062 166.78125 149.648438 166.605469 C 149.746094 167.480469 149.964844 168.347656 150.296875 169.1875 C 150.542969 169.8125 150.980469 170.382812 151.515625 170.847656 C 152.054688 171.3125 152.699219 171.664062 153.382812 171.835938 C 153.714844 171.917969 154.0625 171.960938 154.402344 171.941406 C 154.753906 171.925781 155.09375 171.859375 155.425781 171.730469 C 155.90625 171.535156 156.304688 171.230469 156.601562 170.863281 C 156.898438 170.492188 157.101562 170.066406 157.214844 169.609375 C 157.328125 169.152344 157.351562 168.675781 157.292969 168.214844 C 157.234375 167.746094 157.089844 167.289062 156.855469 166.878906 C 156.570312 166.375 156.171875 165.96875 155.710938 165.648438 C 155.25 165.328125 154.726562 165.101562 154.1875 164.96875 C 153.835938 164.878906 153.480469 164.835938 153.132812 164.820312 C 152.25 164.800781 151.445312 164.9375 150.726562 165.195312 C 150.582031 165.25 150.445312 165.308594 150.304688 165.371094 C 150.304688 164.460938 150.421875 163.542969 150.644531 162.644531 C 151.035156 161.09375 151.734375 159.582031 152.667969 158.214844 C 154.066406 156.167969 155.992188 154.441406 158.144531 153.375 C 159.222656 152.84375 160.359375 152.464844 161.515625 152.300781 C 162.214844 152.195312 162.917969 152.175781 163.621094 152.226562 C 163.597656 152.269531 163.5625 152.3125 163.539062 152.359375 C 163.3125 152.726562 163.136719 153.117188 163.035156 153.523438 C 162.945312 153.882812 162.910156 154.261719 162.9375 154.648438 C 162.964844 155.039062 163.0625 155.445312 163.222656 155.851562 C 163.429688 156.371094 163.765625 156.820312 164.1875 157.183594 C 164.605469 157.542969 165.101562 157.808594 165.640625 157.941406 C 165.765625 157.972656 165.882812 157.996094 166.011719 158.011719 C 166.339844 158.058594 166.683594 158.050781 167.019531 157.976562 C 167.351562 157.90625 167.679688 157.769531 167.960938 157.546875 C 168.164062 157.382812 168.328125 157.191406 168.464844 156.976562 C 168.589844 156.765625 168.683594 156.53125 168.746094 156.289062 C 168.867188 155.800781 168.855469 155.285156 168.726562 154.804688 C 168.621094 154.40625 168.441406 154.035156 168.21875 153.703125 C 167.878906 153.207031 167.425781 152.785156 166.921875 152.460938 C 166.414062 152.136719 165.847656 151.894531 165.265625 151.75 C 165.238281 151.742188 165.210938 151.734375 165.175781 151.726562 C 165.121094 151.710938 165.066406 151.699219 165.015625 151.695312 C 165.1875 151.53125 165.375 151.367188 165.566406 151.214844 C 166.453125 150.511719 167.550781 149.90625 168.625 149.425781 C 169.699219 148.945312 170.75 148.585938 171.535156 148.347656 C 174.417969 147.460938 177.480469 147.40625 180.351562 148.125 C 182.410156 148.636719 184.359375 149.546875 186.082031 150.835938 C 185.808594 150.914062 185.535156 151.007812 185.265625 151.109375 C 184.550781 151.386719 183.871094 151.738281 183.3125 152.191406 C 183.03125 152.421875 182.785156 152.675781 182.582031 152.960938 C 182.386719 153.25 182.234375 153.570312 182.148438 153.917969 C 182.054688 154.289062 182.035156 154.6875 182.113281 155.109375 C 182.183594 155.53125 182.34375 155.976562 182.59375 156.441406 C 182.839844 156.898438 183.191406 157.285156 183.597656 157.59375 C 184.003906 157.898438 184.476562 158.121094 184.96875 158.242188 C 185.5 158.375 186.058594 158.390625 186.601562 158.269531 C 187.269531 158.121094 187.871094 157.765625 188.351562 157.289062 C 188.828125 156.816406 189.175781 156.214844 189.339844 155.558594 C 189.394531 155.335938 189.429688 155.117188 189.441406 154.886719 C 189.457031 154.539062 189.421875 154.199219 189.34375 153.867188 C 189.226562 153.367188 189.023438 152.898438 188.746094 152.46875 C 188.480469 152.042969 188.144531 151.652344 187.78125 151.3125 C 187.746094 151.28125 187.703125 151.242188 187.667969 151.210938 C 188 151.152344 188.316406 151.117188 188.609375 151.085938 C 190.980469 150.871094 193.382812 150.972656 195.644531 151.539062 C 197.460938 151.992188 199.191406 152.746094 200.742188 153.878906 C 201.300781 154.289062 201.949219 154.890625 202.589844 155.609375 C 203.550781 156.691406 204.488281 158.050781 205.105469 159.425781 C 205.121094 159.453125 205.128906 159.476562 205.136719 159.507812 C 204.070312 159.460938 202.996094 159.566406 201.929688 159.84375 C 201.3125 160.003906 200.71875 160.296875 200.214844 160.699219 C 199.710938 161.101562 199.289062 161.613281 199.035156 162.214844 C 198.949219 162.414062 198.886719 162.609375 198.835938 162.804688 C 198.71875 163.28125 198.707031 163.738281 198.792969 164.164062 C 198.851562 164.480469 198.96875 164.773438 199.128906 165.046875 C 199.363281 165.449219 199.691406 165.789062 200.074219 166.054688 C 200.453125 166.316406 200.890625 166.511719 201.351562 166.628906 C 201.808594 166.742188 202.289062 166.78125 202.769531 166.726562 C 203.253906 166.671875 203.730469 166.527344 204.171875 166.285156 C 204.792969 165.941406 205.292969 165.523438 205.660156 165.058594 C 206.035156 164.585938 206.273438 164.066406 206.410156 163.519531 C 206.523438 163.058594 206.5625 162.578125 206.539062 162.09375 C 206.511719 161.515625 206.394531 160.929688 206.21875 160.34375 C 206.625 160.398438 207.023438 160.476562 207.414062 160.574219 C 208.863281 160.9375 210.269531 161.558594 211.574219 162.367188 C 212.867188 163.167969 214.050781 164.152344 215.054688 165.222656 C 216.664062 166.945312 217.722656 169.019531 218.238281 171.238281 C 218.714844 173.289062 218.734375 175.453125 218.28125 177.550781 C 218.105469 177.378906 217.921875 177.210938 217.726562 177.050781 C 217.304688 176.703125 216.855469 176.394531 216.382812 176.144531 C 215.910156 175.886719 215.417969 175.691406 214.90625 175.5625 C 214.535156 175.46875 214.152344 175.417969 213.773438 175.410156 C 213.199219 175.410156 212.625 175.515625 212.0625 175.761719 C 211.511719 176.007812 210.976562 176.394531 210.492188 176.925781 C 210.027344 177.425781 209.71875 178.023438 209.5625 178.644531 C 209.40625 179.269531 209.40625 179.921875 209.5625 180.550781 C 209.722656 181.175781 210.042969 181.769531 210.523438 182.261719 C 210.8125 182.5625 211.125 182.808594 211.449219 182.992188 C 211.773438 183.183594 212.105469 183.316406 212.453125 183.402344 C 213.074219 183.558594 213.707031 183.546875 214.3125 183.414062 C 215.222656 183.207031 216.082031 182.726562 216.792969 182.082031 C 217.503906 181.433594 218.074219 180.621094 218.398438 179.726562 C 218.484375 179.5 218.558594 179.261719 218.632812 179.03125 C 218.832031 179.285156 219.015625 179.550781 219.175781 179.8125 C 220.320312 181.671875 221.03125 183.777344 221.328125 185.949219 C 221.621094 188.121094 221.496094 190.355469 220.964844 192.488281 C 220.824219 193.039062 220.660156 193.585938 220.464844 194.121094 C 220.28125 194.632812 220.046875 195.15625 219.773438 195.644531 C 219.355469 196.375 218.824219 197.035156 218.199219 197.53125 C 217.890625 197.777344 217.550781 197.984375 217.191406 198.144531 C 216.828125 198.304688 216.441406 198.40625 216.023438 198.445312 C 215.320312 198.519531 214.65625 198.457031 214.007812 198.296875 C 213.460938 198.160156 212.933594 197.945312 212.421875 197.679688 C 211.65625 197.285156 210.9375 196.753906 210.261719 196.164062 C 209.589844 195.574219 208.960938 194.917969 208.382812 194.265625 C 205.371094 190.851562 202.519531 187.0625 199.277344 183.714844 C 197.65625 182.042969 195.933594 180.484375 194.050781 179.140625 C 192.25 177.863281 190.289062 176.78125 188.128906 175.984375 C 188.933594 174.777344 189.882812 173.679688 190.953125 172.742188 C 191.394531 173.117188 191.84375 173.488281 192.300781 173.828125 C 194.300781 175.316406 196.507812 176.484375 198.902344 177.082031 C 199.574219 177.25 200.253906 177.367188 200.953125 177.445312 C 201.460938 177.5 201.992188 177.515625 202.523438 177.472656 C 203.316406 177.414062 204.113281 177.238281 204.808594 176.890625 C 205.160156 176.714844 205.484375 176.503906 205.765625 176.234375 C 206.050781 175.96875 206.296875 175.65625 206.484375 175.285156 C 206.601562 175.058594 206.6875 174.832031 206.746094 174.589844 C 206.835938 174.238281 206.867188 173.878906 206.847656 173.519531 C 206.816406 172.988281 206.679688 172.453125 206.449219 171.964844 C 206.226562 171.476562 205.917969 171.015625 205.535156 170.636719 C 205.101562 170.195312 204.601562 169.851562 204.066406 169.578125 C 203.535156 169.308594 202.960938 169.105469 202.382812 168.960938 C 201.980469 168.859375 201.574219 168.789062 201.171875 168.730469 C 199.65625 168.539062 198.179688 168.617188 196.78125 168.925781 C 194.679688 169.390625 192.75 170.371094 191.070312 171.710938 C 191.035156 171.738281 191 171.765625 190.96875 171.796875 C 189.722656 170.675781 188.574219 169.445312 187.527344 168.164062 C 186.855469 167.335938 186.203125 166.476562 185.519531 165.632812 C 184.84375 164.789062 184.136719 163.953125 183.351562 163.183594 C 182.609375 162.457031 181.800781 161.820312 180.941406 161.308594 C 180.078125 160.792969 179.15625 160.398438 178.183594 160.15625 C 177.246094 159.921875 176.257812 159.828125 175.222656 159.894531 C 172.972656 160.035156 170.75 160.765625 168.789062 161.933594 C 166.824219 163.097656 165.121094 164.699219 163.898438 166.59375 C 163.503906 167.207031 163.148438 167.90625 162.960938 168.652344 C 162.871094 169.011719 162.820312 169.386719 162.832031 169.757812 C 162.839844 170.132812 162.917969 170.503906 163.074219 170.867188 C 163.117188 170.964844 163.164062 171.066406 163.214844 171.160156 C 163 171.339844 162.796875 171.515625 162.601562 171.671875 C 161.476562 172.625 160.414062 173.722656 159.542969 174.949219 C 158.664062 176.175781 157.980469 177.535156 157.613281 179.003906 C 157.421875 179.765625 157.324219 180.546875 157.328125 181.355469 C 157.328125 182.351562 157.488281 183.292969 157.785156 184.160156 C 158.230469 185.464844 158.976562 186.613281 159.941406 187.5625 C 160.90625 188.523438 162.089844 189.296875 163.40625 189.867188 C 164.222656 190.214844 165.054688 190.492188 165.902344 190.703125 C 166.871094 190.945312 167.855469 191.109375 168.847656 191.238281 C 170.460938 191.453125 172.0625 191.433594 173.640625 191.460938 C 175.21875 191.488281 176.761719 191.566406 178.273438 191.941406 C 178.472656 191.992188 178.671875 192.046875 178.867188 192.105469 C 179.761719 192.378906 180.640625 192.648438 181.503906 192.941406 C 181.410156 193.613281 181.414062 194.300781 181.484375 194.996094 C 181.632812 196.425781 182.082031 197.855469 182.6875 199.1875 C 183.292969 200.519531 184.046875 201.734375 184.8125 202.726562 C 185.492188 203.605469 186.214844 204.453125 186.902344 205.308594 C 187.589844 206.160156 188.238281 207.027344 188.785156 207.953125 C 189.507812 209.175781 189.902344 210.402344 190.046875 211.65625 C 190.1875 212.910156 190.074219 214.1875 189.75 215.492188 C 189.636719 215.945312 189.496094 216.410156 189.332031 216.875 C 189.097656 217.542969 188.660156 218.296875 188.058594 219.085938 C 187.9375 219.246094 187.96875 219.476562 188.128906 219.597656 C 188.289062 219.714844 188.519531 219.6875 188.640625 219.523438 C 189.273438 218.691406 189.746094 217.878906 190.019531 217.113281 C 190.191406 216.628906 190.335938 216.144531 190.453125 215.660156 C 190.796875 214.285156 190.925781 212.917969 190.773438 211.566406 C 190.617188 210.214844 190.179688 208.882812 189.414062 207.578125 C 188.84375 206.605469 188.164062 205.710938 187.472656 204.847656 C 186.769531 203.984375 186.046875 203.144531 185.386719 202.273438 C 184.414062 201.019531 183.441406 199.339844 182.824219 197.582031 C 182.519531 196.695312 182.296875 195.796875 182.207031 194.910156 C 182.144531 194.316406 182.140625 193.738281 182.210938 193.175781 C 182.726562 193.363281 183.242188 193.5625 183.738281 193.777344 C 185.273438 194.4375 186.695312 195.269531 187.910156 196.421875 C 189.320312 197.765625 190.710938 199.242188 192.238281 200.53125 C 193 201.175781 193.796875 201.769531 194.644531 202.277344 C 195.496094 202.78125 196.402344 203.199219 197.382812 203.472656 C 197.480469 203.496094 197.582031 203.527344 197.679688 203.554688 C 198.394531 203.734375 199.15625 203.828125 199.902344 203.800781 C 200.652344 203.769531 201.402344 203.617188 202.097656 203.300781 C 202.890625 202.933594 203.5625 202.367188 204.074219 201.6875 C 204.589844 201.011719 204.964844 200.210938 205.171875 199.375 C 205.386719 198.511719 205.433594 197.601562 205.292969 196.722656 C 205.085938 195.4375 204.53125 194.257812 203.765625 193.230469 C 203.003906 192.207031 202.027344 191.324219 200.953125 190.636719 C 200.402344 190.289062 199.808594 190.058594 199.191406 189.90625 C 198.246094 189.667969 197.257812 189.605469 196.28125 189.558594 C 195.304688 189.507812 194.347656 189.464844 193.472656 189.292969 C 193.265625 189.246094 193.046875 189.199219 192.835938 189.144531 C 192.324219 189.019531 191.785156 188.863281 191.238281 188.703125 C 190.683594 188.542969 190.117188 188.371094 189.550781 188.230469 C 188.558594 187.984375 187.546875 187.804688 186.566406 187.847656 C 186.078125 187.871094 185.597656 187.949219 185.132812 188.105469 C 184.667969 188.257812 184.226562 188.5 183.8125 188.832031 C 183.234375 189.300781 182.773438 189.824219 182.417969 190.394531 C 182.066406 190.960938 181.816406 191.574219 181.660156 192.199219 C 181.660156 192.207031 181.65625 192.222656 181.652344 192.230469 C 180.808594 191.945312 179.949219 191.679688 179.089844 191.421875 C 178.878906 191.351562 178.667969 191.300781 178.453125 191.246094 C 176.851562 190.847656 175.25 190.777344 173.664062 190.746094 C 172.074219 190.71875 170.5 190.734375 168.960938 190.535156 C 167.984375 190.410156 167.03125 190.242188 166.097656 190.011719 C 165.285156 189.808594 164.488281 189.550781 163.714844 189.21875 C 162.054688 188.503906 160.644531 187.445312 159.65625 186.128906 C 159.160156 185.46875 158.761719 184.734375 158.492188 183.941406 C 158.222656 183.144531 158.074219 182.289062 158.070312 181.363281 C 158.066406 180.621094 158.167969 179.898438 158.34375 179.195312 C 158.679688 177.835938 159.324219 176.550781 160.160156 175.382812 C 160.992188 174.210938 162.011719 173.152344 163.101562 172.238281 C 163.277344 172.089844 163.460938 171.929688 163.648438 171.773438 C 163.65625 171.773438 163.652344 171.78125 163.660156 171.78125 C 164 172.191406 164.410156 172.511719 164.871094 172.773438 C 165.335938 173.035156 165.84375 173.222656 166.375 173.355469 C 167.441406 173.621094 168.601562 173.660156 169.683594 173.527344 C 170.230469 173.460938 170.746094 173.355469 171.230469 173.203125 C 171.71875 173.054688 172.160156 172.863281 172.542969 172.644531 C 172.964844 172.398438 173.332031 172.078125 173.621094 171.71875 C 173.90625 171.355469 174.121094 170.945312 174.226562 170.511719 C 174.289062 170.269531 174.3125 170.019531 174.300781 169.777344 C 174.277344 169.402344 174.164062 169.03125 173.941406 168.695312 C 173.714844 168.359375 173.394531 168.066406 172.960938 167.835938 C 172.605469 167.636719 172.246094 167.503906 171.878906 167.410156 C 171.445312 167.300781 171.007812 167.257812 170.570312 167.273438 C 169.808594 167.304688 169.050781 167.496094 168.308594 167.796875 C 167.199219 168.246094 166.136719 168.917969 165.171875 169.628906 C 164.695312 169.988281 164.238281 170.34375 163.816406 170.691406 C 163.800781 170.660156 163.789062 170.625 163.773438 170.59375 C 163.660156 170.324219 163.597656 170.035156 163.589844 169.742188 C 163.582031 169.445312 163.617188 169.140625 163.691406 168.835938 C 163.847656 168.207031 164.171875 167.5625 164.535156 166.992188 C 165.683594 165.203125 167.3125 163.675781 169.179688 162.566406 C 171.046875 161.457031 173.164062 160.757812 175.292969 160.628906 C 176.25 160.566406 177.164062 160.65625 178.035156 160.875 C 178.929688 161.097656 179.789062 161.457031 180.597656 161.941406 C 181.402344 162.417969 182.160156 163.019531 182.875 163.710938 C 183.632812 164.449219 184.316406 165.257812 184.988281 166.09375 C 185.660156 166.929688 186.308594 167.785156 186.992188 168.632812 C 188.039062 169.910156 189.195312 171.152344 190.4375 172.277344 C 189.308594 173.285156 188.300781 174.464844 187.457031 175.757812 C 186.894531 175.574219 186.328125 175.410156 185.753906 175.265625 C 183.566406 174.71875 181.300781 174.484375 179.0625 174.59375 C 176.820312 174.699219 174.59375 175.15625 172.503906 176.007812 C 171.804688 176.285156 171.101562 176.632812 170.460938 177.082031 C 170.144531 177.300781 169.847656 177.550781 169.570312 177.832031 C 169.296875 178.109375 169.054688 178.421875 168.851562 178.769531 C 168.636719 179.132812 168.492188 179.515625 168.394531 179.90625 C 168.261719 180.4375 168.226562 180.988281 168.273438 181.527344 C 168.351562 182.339844 168.613281 183.144531 169.015625 183.867188 C 169.421875 184.59375 169.972656 185.238281 170.640625 185.738281 C 171.457031 186.347656 172.382812 186.753906 173.347656 186.996094 C 174.84375 187.367188 176.441406 187.347656 177.949219 187.09375 C 178.921875 186.925781 179.890625 186.65625 180.808594 186.246094 C 181.722656 185.84375 182.574219 185.300781 183.300781 184.605469 C 183.851562 184.066406 184.308594 183.476562 184.695312 182.855469 C 185.285156 181.917969 185.730469 180.914062 186.164062 179.914062 C 186.597656 178.914062 187.019531 177.929688 187.535156 177.03125 C 187.613281 176.902344 187.6875 176.777344 187.765625 176.640625 C 189.925781 177.414062 191.867188 178.480469 193.667969 179.757812 C 196.433594 181.722656 198.847656 184.179688 201.140625 186.796875 C 203.433594 189.417969 205.601562 192.1875 207.875 194.769531 C 208.660156 195.664062 209.554688 196.566406 210.546875 197.328125 C 211.042969 197.710938 211.566406 198.054688 212.125 198.347656 C 212.675781 198.636719 213.257812 198.863281 213.871094 199.015625 C 214.589844 199.195312 215.347656 199.261719 216.132812 199.183594 C 216.785156 199.121094 217.386719 198.917969 217.925781 198.628906 C 218.734375 198.183594 219.402344 197.539062 219.941406 196.792969 C 220.476562 196.046875 220.890625 195.21875 221.183594 194.390625 C 221.382812 193.832031 221.5625 193.257812 221.703125 192.6875 C 222.238281 190.4375 222.363281 188.105469 222.0625 185.847656 Z M 150.730469 165.945312 C 151.414062 165.652344 152.199219 165.496094 153.105469 165.519531 C 153.402344 165.527344 153.707031 165.566406 154.003906 165.640625 C 154.46875 165.753906 154.910156 165.945312 155.292969 166.210938 C 155.671875 166.476562 155.992188 166.8125 156.21875 167.203125 C 156.398438 167.527344 156.519531 167.894531 156.566406 168.273438 C 156.617188 168.652344 156.59375 169.042969 156.503906 169.402344 C 156.414062 169.769531 156.257812 170.101562 156.027344 170.375 C 155.804688 170.65625 155.511719 170.878906 155.148438 171.019531 C 154.894531 171.121094 154.632812 171.179688 154.367188 171.1875 C 154.097656 171.199219 153.820312 171.167969 153.542969 171.097656 C 152.984375 170.957031 152.429688 170.660156 151.96875 170.265625 C 151.511719 169.871094 151.148438 169.386719 150.949219 168.890625 C 150.59375 167.992188 150.386719 167.0625 150.320312 166.128906 C 150.449219 166.074219 150.582031 166.011719 150.730469 165.945312 Z M 165.003906 152.421875 C 165.03125 152.429688 165.050781 152.433594 165.078125 152.441406 C 165.75 152.609375 166.410156 152.929688 166.929688 153.367188 C 167.191406 153.585938 167.421875 153.832031 167.605469 154.097656 C 167.785156 154.371094 167.925781 154.664062 168.007812 154.976562 C 168.109375 155.339844 168.109375 155.742188 168.023438 156.101562 C 167.980469 156.273438 167.914062 156.441406 167.828125 156.589844 C 167.738281 156.734375 167.625 156.863281 167.5 156.960938 C 167.316406 157.105469 167.09375 157.199219 166.855469 157.253906 C 166.613281 157.304688 166.347656 157.3125 166.09375 157.277344 C 165.992188 157.269531 165.902344 157.246094 165.808594 157.222656 C 165.386719 157.117188 164.984375 156.90625 164.652344 156.617188 C 164.320312 156.328125 164.050781 155.96875 163.890625 155.5625 C 163.746094 155.21875 163.675781 154.894531 163.652344 154.578125 C 163.625 154.265625 163.65625 153.972656 163.726562 153.683594 C 163.8125 153.351562 163.949219 153.03125 164.144531 152.722656 C 164.230469 152.582031 164.328125 152.445312 164.4375 152.304688 C 164.621094 152.34375 164.808594 152.375 165.003906 152.421875 Z M 187.289062 151.847656 C 187.71875 152.25 188.089844 152.722656 188.347656 153.242188 C 188.476562 153.5 188.578125 153.769531 188.640625 154.042969 C 188.703125 154.3125 188.734375 154.585938 188.71875 154.867188 C 188.714844 155.042969 188.683594 155.21875 188.640625 155.390625 C 188.511719 155.910156 188.226562 156.402344 187.839844 156.789062 C 187.457031 157.175781 186.96875 157.457031 186.449219 157.570312 C 186.023438 157.664062 185.578125 157.652344 185.140625 157.546875 C 184.742188 157.445312 184.355469 157.261719 184.027344 157.019531 C 183.691406 156.773438 183.417969 156.460938 183.21875 156.105469 C 183 155.699219 182.871094 155.328125 182.816406 155 C 182.757812 154.671875 182.773438 154.375 182.84375 154.097656 C 182.898438 153.871094 182.996094 153.660156 183.121094 153.457031 C 183.347656 153.101562 183.683594 152.78125 184.097656 152.503906 C 184.714844 152.085938 185.5 151.753906 186.308594 151.523438 C 186.464844 151.480469 186.621094 151.441406 186.769531 151.398438 C 186.953125 151.546875 187.125 151.691406 187.289062 151.847656 Z M 205.746094 161.472656 C 205.859375 162.136719 205.855469 162.765625 205.714844 163.339844 C 205.601562 163.796875 205.398438 164.214844 205.097656 164.601562 C 204.789062 164.988281 204.378906 165.339844 203.824219 165.648438 C 203.46875 165.84375 203.078125 165.960938 202.6875 166.003906 C 202.296875 166.042969 201.898438 166.019531 201.527344 165.925781 C 201.1875 165.839844 200.871094 165.703125 200.59375 165.523438 C 200.382812 165.390625 200.195312 165.234375 200.035156 165.054688 C 199.792969 164.789062 199.621094 164.480469 199.53125 164.136719 C 199.441406 163.792969 199.433594 163.410156 199.542969 162.980469 C 199.578125 162.828125 199.636719 162.667969 199.707031 162.5 C 199.914062 162.015625 200.253906 161.597656 200.675781 161.261719 C 201.09375 160.925781 201.597656 160.679688 202.125 160.539062 C 203 160.308594 203.894531 160.203125 204.777344 160.21875 C 204.996094 160.222656 205.214844 160.230469 205.4375 160.242188 C 205.574219 160.667969 205.683594 161.074219 205.746094 161.472656 Z M 217.734375 179.488281 C 217.546875 179.996094 217.261719 180.492188 216.910156 180.9375 C 216.375 181.605469 215.675781 182.148438 214.929688 182.46875 C 214.558594 182.632812 214.171875 182.742188 213.785156 182.785156 C 213.402344 182.828125 213.019531 182.804688 212.644531 182.710938 C 212.371094 182.644531 212.097656 182.53125 211.835938 182.378906 C 211.574219 182.222656 211.308594 182.019531 211.0625 181.765625 C 210.675781 181.363281 210.417969 180.886719 210.289062 180.378906 C 210.160156 179.871094 210.160156 179.335938 210.289062 178.824219 C 210.414062 178.3125 210.667969 177.828125 211.042969 177.414062 C 211.328125 177.101562 211.621094 176.855469 211.925781 176.667969 C 212.378906 176.382812 212.835938 176.226562 213.3125 176.167969 C 213.78125 176.109375 214.261719 176.148438 214.753906 176.273438 C 215.1875 176.378906 215.628906 176.554688 216.054688 176.789062 C 216.695312 177.128906 217.304688 177.597656 217.839844 178.121094 C 217.929688 178.207031 218.007812 178.292969 218.089844 178.382812 C 217.984375 178.75 217.863281 179.117188 217.734375 179.488281 Z M 182.351562 192.367188 C 182.492188 191.808594 182.714844 191.269531 183.019531 190.773438 C 183.335938 190.273438 183.738281 189.808594 184.261719 189.390625 C 184.601562 189.109375 184.972656 188.914062 185.359375 188.785156 C 185.941406 188.585938 186.578125 188.53125 187.253906 188.566406 C 187.933594 188.605469 188.644531 188.746094 189.363281 188.925781 C 189.914062 189.0625 190.476562 189.226562 191.023438 189.382812 C 191.578125 189.542969 192.121094 189.710938 192.648438 189.839844 C 192.875 189.898438 193.097656 189.945312 193.320312 189.992188 C 194.269531 190.1875 195.257812 190.21875 196.226562 190.273438 C 197.195312 190.324219 198.140625 190.382812 199 190.597656 C 199.558594 190.738281 200.070312 190.9375 200.546875 191.238281 C 201.550781 191.886719 202.460938 192.707031 203.160156 193.660156 C 203.863281 194.613281 204.363281 195.683594 204.554688 196.835938 C 204.683594 197.609375 204.640625 198.429688 204.445312 199.199219 C 204.261719 199.945312 203.929688 200.65625 203.480469 201.253906 C 203.03125 201.855469 202.453125 202.332031 201.773438 202.648438 C 201.179688 202.925781 200.53125 203.054688 199.855469 203.085938 C 199.1875 203.109375 198.5 203.023438 197.835938 202.859375 C 197.746094 202.835938 197.648438 202.8125 197.5625 202.785156 C 196.652344 202.527344 195.808594 202.140625 194.996094 201.660156 C 193.792969 200.941406 192.671875 200.015625 191.589844 199.011719 C 190.503906 198.007812 189.460938 196.925781 188.390625 195.910156 C 187.097656 194.679688 185.597656 193.816406 184.011719 193.125 C 183.453125 192.882812 182.886719 192.667969 182.3125 192.460938 C 182.339844 192.421875 182.34375 192.394531 182.351562 192.367188 Z M 164.929688 170.691406 C 165.953125 169.890625 167.101562 169.09375 168.269531 168.570312 C 168.851562 168.3125 169.4375 168.121094 170.007812 168.035156 C 170.578125 167.945312 171.140625 167.960938 171.679688 168.09375 C 171.984375 168.171875 172.28125 168.289062 172.578125 168.449219 C 172.804688 168.574219 172.992188 168.714844 173.125 168.859375 C 173.332031 169.078125 173.453125 169.304688 173.507812 169.546875 C 173.566406 169.789062 173.558594 170.050781 173.492188 170.3125 C 173.414062 170.625 173.253906 170.949219 173.019531 171.238281 C 172.785156 171.53125 172.484375 171.792969 172.148438 171.996094 C 171.824219 172.183594 171.4375 172.351562 170.992188 172.492188 C 170.332031 172.691406 169.574219 172.820312 168.804688 172.855469 C 168.035156 172.882812 167.246094 172.816406 166.527344 172.636719 C 165.886719 172.476562 165.292969 172.226562 164.820312 171.890625 C 164.585938 171.71875 164.371094 171.527344 164.191406 171.304688 C 164.183594 171.304688 164.183594 171.296875 164.179688 171.289062 C 164.425781 171.09375 164.675781 170.890625 164.929688 170.691406 Z M 193.214844 171.117188 C 194.382812 170.433594 195.632812 169.921875 196.957031 169.632812 C 198.277344 169.335938 199.667969 169.265625 201.09375 169.445312 C 201.472656 169.496094 201.859375 169.5625 202.230469 169.65625 C 202.769531 169.789062 203.289062 169.972656 203.761719 170.214844 C 204.238281 170.457031 204.675781 170.765625 205.050781 171.136719 C 205.472656 171.558594 205.800781 172.101562 205.984375 172.675781 C 206.074219 172.960938 206.136719 173.257812 206.152344 173.546875 C 206.167969 173.835938 206.136719 174.121094 206.070312 174.398438 C 206.023438 174.585938 205.957031 174.765625 205.867188 174.941406 C 205.667969 175.324219 205.394531 175.636719 205.058594 175.890625 C 204.808594 176.078125 204.515625 176.238281 204.207031 176.359375 C 203.742188 176.550781 203.214844 176.664062 202.675781 176.71875 C 202.132812 176.773438 201.578125 176.765625 201.050781 176.707031 C 200.386719 176.636719 199.738281 176.519531 199.097656 176.359375 C 196.820312 175.792969 194.695312 174.675781 192.753906 173.230469 C 192.339844 172.921875 191.929688 172.589844 191.527344 172.257812 C 192.0625 171.847656 192.628906 171.460938 193.214844 171.117188 Z M 186.886719 176.632812 C 186.160156 177.90625 185.640625 179.277344 185.046875 180.574219 C 184.746094 181.21875 184.433594 181.851562 184.070312 182.433594 C 183.703125 183.019531 183.28125 183.566406 182.777344 184.046875 C 182.121094 184.683594 181.339844 185.175781 180.488281 185.550781 C 179.640625 185.925781 178.726562 186.183594 177.796875 186.347656 C 176.375 186.59375 174.867188 186.605469 173.492188 186.261719 C 172.601562 186.039062 171.773438 185.671875 171.046875 185.132812 C 170.28125 184.558594 169.667969 183.730469 169.308594 182.828125 C 169.128906 182.371094 169.007812 181.902344 168.964844 181.4375 C 168.917969 180.96875 168.949219 180.5 169.058594 180.058594 C 169.140625 179.726562 169.273438 179.410156 169.441406 179.105469 C 169.609375 178.816406 169.824219 178.554688 170.050781 178.3125 C 170.40625 177.953125 170.828125 177.640625 171.285156 177.367188 C 171.742188 177.09375 172.238281 176.863281 172.738281 176.660156 C 174.746094 175.839844 176.886719 175.398438 179.0625 175.296875 C 181.226562 175.191406 183.429688 175.417969 185.546875 175.957031 C 186.042969 176.078125 186.539062 176.21875 187.027344 176.375 C 186.988281 176.460938 186.941406 176.542969 186.886719 176.632812 Z M 186.886719 176.632812 " fill-opacity="1" fill-rule="nonzero"/></g></g></g></svg>