<svg xmlns="http://www.w3.org/2000/svg" xmlns:xlink="http://www.w3.org/1999/xlink" width="500" zoomAndPan="magnify" viewBox="0 0 375 374.999991" height="500" preserveAspectRatio="xMidYMid meet" version="1.0"><defs><clipPath id="ac0bf50142"><path d="M 183 101.140625 L 275.515625 101.140625 L 275.515625 199 L 183 199 Z M 183 101.140625 " clip-rule="nonzero"/></clipPath><clipPath id="6d1dafc35f"><path d="M 99.265625 105 L 156 105 L 156 162 L 99.265625 162 Z M 99.265625 105 " clip-rule="nonzero"/></clipPath><clipPath id="d41173808d"><path d="M 202 203 L 274 203 L 274 273.640625 L 202 273.640625 Z M 202 203 " clip-rule="nonzero"/></clipPath></defs><path fill="#2a55a0" d="M 194.246094 221.457031 L 188.296875 228.722656 C 179.789062 239.058594 172.046875 248.585938 165.875 256.363281 C 162.296875 261.332031 154.410156 265.640625 146.378906 266.917969 C 144.664062 267.171875 143.019531 267.320312 141.414062 267.320312 C 135.972656 267.320312 131.078125 265.785156 127.0625 262.828125 C 123.484375 259.980469 120.78125 257.242188 118.699219 254.464844 C 114.832031 249.207031 113.40625 242.527344 114.574219 235.113281 C 115.816406 227.042969 120.089844 219.121094 125.199219 215.433594 C 134.328125 208.347656 145.171875 199.441406 156.675781 189.984375 L 160.035156 187.246094 L 165.21875 192.429688 L 161.3125 195.640625 C 149.773438 205.097656 138.894531 214.046875 129.582031 221.273438 C 126.476562 223.539062 122.863281 229.34375 121.804688 236.210938 C 121.183594 240.042969 121.183594 245.519531 124.578125 250.085938 C 126.296875 252.421875 128.523438 254.648438 131.515625 257.058594 C 135.933594 260.308594 141.449219 260.273438 145.246094 259.6875 C 152.109375 258.59375 157.878906 254.976562 160.070312 251.945312 C 166.351562 244.023438 174.128906 234.421875 182.671875 224.085938 L 189.027344 216.273438 L 194.066406 221.3125 C 194.136719 221.386719 194.175781 221.421875 194.246094 221.457031 Z M 194.246094 221.457031 " fill-opacity="1" fill-rule="nonzero"/><g clip-path="url(#ac0bf50142)"><path fill="#2a55a0" d="M 274.871094 140.945312 L 262.347656 173.257812 C 262.164062 173.734375 261.910156 174.171875 261.542969 174.5 C 252.160156 183.886719 238.136719 187.0625 225.757812 182.824219 C 224.519531 184.394531 223.203125 186.039062 221.816406 187.71875 L 213.308594 198.160156 L 208.125 192.976562 L 216.191406 183.117188 C 217.761719 181.144531 219.222656 179.320312 220.648438 177.496094 L 221.707031 176.179688 C 222.730469 174.867188 224.519531 174.429688 226.015625 175.085938 C 236.019531 179.46875 247.886719 177.386719 255.847656 169.863281 L 267.203125 140.542969 L 266.546875 139.886719 L 244.453125 161.976562 C 243.03125 163.4375 240.695312 163.4375 239.269531 161.976562 L 219.480469 142.1875 C 218.820312 141.527344 218.421875 140.578125 218.421875 139.628906 C 218.421875 138.644531 218.820312 137.730469 219.480469 137.039062 L 241.605469 114.945312 L 235.945312 109.285156 L 206.699219 120.644531 C 197.605469 130.28125 196.621094 145.289062 204.472656 155.878906 C 205.640625 157.484375 205.347656 159.710938 203.816406 160.917969 C 199.140625 164.640625 193.917969 168.839844 188.441406 173.296875 L 183.222656 168.074219 C 187.929688 164.277344 192.457031 160.625 196.65625 157.265625 C 188.734375 143.867188 190.78125 126.230469 202.027344 114.945312 C 202.390625 114.582031 202.828125 114.324219 203.304688 114.144531 L 235.546875 101.617188 C 236.894531 101.109375 238.394531 101.4375 239.453125 102.457031 L 249.382812 112.355469 C 250.042969 113.046875 250.441406 113.960938 250.441406 114.945312 C 250.441406 115.894531 250.042969 116.84375 249.382812 117.539062 L 227.21875 139.628906 L 241.863281 154.234375 L 263.953125 132.144531 C 265.378906 130.71875 267.714844 130.71875 269.101562 132.144531 L 274.03125 137.039062 C 275.089844 138.058594 275.417969 139.59375 274.871094 140.945312 Z M 274.871094 140.945312 " fill-opacity="1" fill-rule="nonzero"/></g><g clip-path="url(#6d1dafc35f)"><path fill="#2a55a0" d="M 135.558594 161.285156 C 134.910156 161.285156 134.261719 161.113281 133.675781 160.765625 L 113.648438 148.742188 C 113.136719 148.4375 112.703125 148.003906 112.398438 147.492188 L 100.378906 127.464844 C 99.515625 126.027344 99.746094 124.1875 100.929688 123.003906 L 116.953125 106.980469 C 118.136719 105.789062 119.976562 105.574219 121.414062 106.433594 L 141.445312 118.449219 C 141.957031 118.753906 142.390625 119.1875 142.695312 119.699219 L 154.710938 139.730469 C 155.574219 141.167969 155.347656 143.007812 154.164062 144.191406 L 138.136719 160.214844 C 137.4375 160.917969 136.5 161.285156 135.558594 161.285156 Z M 118.1875 142.953125 L 134.988281 153.035156 L 146.984375 141.042969 L 136.90625 124.238281 L 120.101562 114.160156 L 108.105469 126.152344 Z M 118.1875 142.953125 " fill-opacity="1" fill-rule="nonzero"/></g><path fill="#2a55a0" d="M 215.28125 205.28125 C 213.855469 206.707031 211.519531 206.707031 210.09375 205.28125 L 151.5625 146.75 L 140.71875 157.632812 L 196.257812 213.207031 C 196.476562 213.386719 196.65625 213.605469 196.839844 213.789062 L 199.25 216.164062 C 200.675781 217.585938 200.675781 219.886719 199.25 221.3125 C 198.519531 222.042969 197.605469 222.40625 196.65625 222.40625 C 195.78125 222.40625 194.941406 222.113281 194.246094 221.457031 C 194.175781 221.421875 194.136719 221.386719 194.066406 221.3125 L 189.027344 216.273438 L 132.976562 160.1875 C 131.554688 158.761719 131.554688 156.464844 132.976562 155.039062 L 148.972656 139.007812 C 149.664062 138.316406 150.578125 137.949219 151.5625 137.949219 C 152.550781 137.949219 153.460938 138.316406 154.15625 139.007812 L 215.28125 200.132812 C 216.703125 201.558594 216.703125 203.859375 215.28125 205.28125 Z M 215.28125 205.28125 " fill-opacity="1" fill-rule="nonzero"/><path fill="#2a55a0" d="M 199.976562 244.558594 C 199.042969 244.558594 198.109375 244.199219 197.394531 243.488281 L 184.667969 230.761719 C 183.242188 229.335938 183.242188 227.023438 184.667969 225.597656 L 221.933594 188.332031 C 223.359375 186.90625 225.671875 186.90625 227.097656 188.332031 L 239.824219 201.058594 C 241.25 202.484375 241.25 204.792969 239.824219 206.222656 L 202.558594 243.488281 C 201.84375 244.199219 200.910156 244.558594 199.976562 244.558594 Z M 192.414062 228.179688 L 199.976562 235.742188 L 232.078125 203.640625 L 224.515625 196.078125 Z M 192.414062 228.179688 " fill-opacity="1" fill-rule="nonzero"/><g clip-path="url(#d41173808d)"><path fill="#2a55a0" d="M 250.121094 273.976562 C 250.121094 273.976562 250.117188 273.976562 250.113281 273.976562 C 243.839844 273.972656 237.949219 271.527344 233.515625 267.085938 L 203.683594 237.222656 C 202.261719 235.792969 202.261719 233.480469 203.6875 232.054688 C 205.113281 230.636719 207.429688 230.632812 208.855469 232.058594 L 238.6875 261.925781 C 241.734375 264.984375 245.796875 266.667969 250.117188 266.671875 C 250.121094 266.671875 250.121094 266.671875 250.121094 266.671875 C 254.441406 266.671875 258.5 264.988281 261.550781 261.9375 C 264.605469 258.882812 266.285156 254.824219 266.285156 250.5 C 266.28125 246.183594 264.601562 242.121094 261.542969 239.074219 L 231.671875 209.242188 C 230.246094 207.816406 230.246094 205.503906 231.667969 204.074219 C 233.097656 202.648438 235.410156 202.652344 236.835938 204.070312 L 266.703125 233.902344 C 271.140625 238.335938 273.585938 244.226562 273.589844 250.496094 C 273.589844 256.769531 271.148438 262.667969 266.714844 267.101562 C 262.28125 271.53125 256.390625 273.972656 250.121094 273.976562 Z M 250.121094 273.976562 " fill-opacity="1" fill-rule="nonzero"/></g></svg>