<svg xmlns="http://www.w3.org/2000/svg" xmlns:xlink="http://www.w3.org/1999/xlink" width="500" zoomAndPan="magnify" viewBox="0 0 375 374.999991" height="500" preserveAspectRatio="xMidYMid meet" version="1.0"><defs><clipPath id="cace5d1f81"><path d="M 57 75.183594 L 318 75.183594 L 318 300 L 57 300 Z M 57 75.183594 " clip-rule="nonzero"/></clipPath><clipPath id="6363e0d60d"><path d="M 209 214 L 250.875 214 L 250.875 256 L 209 256 Z M 209 214 " clip-rule="nonzero"/></clipPath><clipPath id="caeb27b2f0"><path d="M 124.125 118 L 229 118 L 229 257 L 124.125 257 Z M 124.125 118 " clip-rule="nonzero"/></clipPath></defs><g clip-path="url(#cace5d1f81)"><path fill="#00bf63" d="M 246.15625 75.183594 C 212.5 75.183594 193.773438 99.730469 187.496094 109.75 C 184.0625 104.195312 180.015625 99.132812 175.347656 94.566406 C 162.1875 81.710938 146.550781 75.183594 128.886719 75.183594 C 107.726562 75.183594 88.089844 83.886719 74.980469 99.171875 C 61.113281 115.269531 55.394531 137.335938 58.988281 161.378906 C 66.425781 211.636719 115.21875 252.683594 186.128906 298.945312 L 187.496094 299.808594 L 188.914062 298.945312 C 229 272.828125 255.671875 252.332031 275.261719 232.640625 C 299.101562 208.601562 312.410156 185.265625 316.003906 161.378906 C 319.597656 137.488281 313.929688 115.269531 300.011719 99.171875 C 286.953125 83.886719 267.261719 75.183594 246.15625 75.183594 Z M 310.894531 160.617188 C 307.449219 183.34375 294.59375 205.765625 271.566406 228.996094 C 252.484375 248.179688 226.519531 268.171875 187.496094 293.632812 C 118.558594 248.535156 71.285156 208.601562 64.097656 160.617188 C 60.808594 138.144531 66.023438 117.496094 78.929688 102.5625 C 91.078125 88.492188 109.246094 80.34375 128.886719 80.34375 C 145.132812 80.34375 159.558594 86.417969 171.753906 98.3125 C 180.765625 107.121094 185.117188 116.027344 185.167969 116.179688 L 187.496094 121.089844 L 189.875 116.179688 C 190.027344 115.773438 207.335938 80.34375 246.15625 80.34375 C 265.746094 80.34375 283.964844 88.492188 296.113281 102.5625 C 309.019531 117.496094 314.234375 138.144531 310.894531 160.617188 Z M 310.894531 160.617188 " fill-opacity="1" fill-rule="nonzero"/></g><g clip-path="url(#6363e0d60d)"><path fill="#00bf63" d="M 230.160156 214.078125 C 229.480469 214.078125 228.800781 214.113281 228.125 214.179688 C 227.449219 214.246094 226.773438 214.347656 226.109375 214.480469 C 225.441406 214.613281 224.78125 214.777344 224.128906 214.976562 C 223.480469 215.175781 222.839844 215.40625 222.210938 215.664062 C 221.582031 215.925781 220.96875 216.21875 220.367188 216.539062 C 219.765625 216.859375 219.183594 217.207031 218.617188 217.585938 C 218.054688 217.964844 217.507812 218.371094 216.980469 218.800781 C 216.453125 219.234375 215.949219 219.691406 215.46875 220.171875 C 214.988281 220.652344 214.53125 221.15625 214.101562 221.683594 C 213.667969 222.207031 213.261719 222.753906 212.886719 223.320312 C 212.507812 223.886719 212.15625 224.46875 211.835938 225.070312 C 211.515625 225.667969 211.222656 226.28125 210.964844 226.910156 C 210.703125 227.539062 210.472656 228.179688 210.273438 228.832031 C 210.078125 229.480469 209.910156 230.140625 209.777344 230.808594 C 209.644531 231.476562 209.542969 232.148438 209.476562 232.824219 C 209.410156 233.503906 209.375 234.183594 209.375 234.863281 C 210.417969 262.398438 249.90625 262.394531 250.945312 234.863281 C 250.945312 234.179688 250.910156 233.503906 250.84375 232.824219 C 250.777344 232.148438 250.675781 231.476562 250.542969 230.808594 C 250.410156 230.140625 250.242188 229.480469 250.046875 228.832031 C 249.847656 228.179688 249.617188 227.539062 249.355469 226.910156 C 249.097656 226.28125 248.804688 225.667969 248.484375 225.070312 C 248.164062 224.46875 247.8125 223.886719 247.4375 223.320312 C 247.058594 222.753906 246.652344 222.207031 246.222656 221.683594 C 245.789062 221.15625 245.332031 220.652344 244.851562 220.171875 C 244.371094 219.691406 243.867188 219.234375 243.339844 218.800781 C 242.816406 218.371094 242.269531 217.964844 241.703125 217.585938 C 241.136719 217.207031 240.554688 216.859375 239.953125 216.539062 C 239.355469 216.21875 238.738281 215.925781 238.113281 215.664062 C 237.484375 215.40625 236.84375 215.175781 236.191406 214.976562 C 235.539062 214.777344 234.882812 214.613281 234.214844 214.480469 C 233.546875 214.347656 232.875 214.246094 232.199219 214.179688 C 231.519531 214.113281 230.839844 214.078125 230.160156 214.078125 Z M 230.160156 250.710938 C 229.121094 250.707031 228.089844 250.605469 227.070312 250.402344 C 226.050781 250.199219 225.058594 249.898438 224.097656 249.5 C 223.136719 249.101562 222.226562 248.609375 221.359375 248.03125 C 220.496094 247.453125 219.695312 246.796875 218.960938 246.0625 C 218.226562 245.328125 217.566406 244.527344 216.988281 243.664062 C 216.410156 242.796875 215.921875 241.886719 215.523438 240.925781 C 215.125 239.964844 214.824219 238.972656 214.621094 237.953125 C 214.417969 236.933594 214.3125 235.902344 214.3125 234.863281 C 215.058594 213.890625 245.265625 213.894531 246.007812 234.863281 C 246.003906 235.902344 245.902344 236.933594 245.699219 237.953125 C 245.496094 238.972656 245.195312 239.964844 244.796875 240.921875 C 244.398438 241.882812 243.910156 242.796875 243.332031 243.660156 C 242.753906 244.527344 242.097656 245.328125 241.359375 246.0625 C 240.625 246.796875 239.824219 247.453125 238.960938 248.03125 C 238.09375 248.609375 237.183594 249.097656 236.222656 249.496094 C 235.261719 249.894531 234.269531 250.199219 233.25 250.402344 C 232.230469 250.605469 231.203125 250.707031 230.160156 250.710938 Z M 230.160156 250.710938 " fill-opacity="1" fill-rule="nonzero"/></g><g clip-path="url(#caeb27b2f0)"><path fill="#00bf63" d="M 198.425781 214.121094 L 226.734375 163.617188 C 226.921875 163.28125 227.097656 162.945312 227.261719 162.597656 C 227.425781 162.253906 227.578125 161.90625 227.71875 161.550781 C 227.859375 161.195312 227.992188 160.835938 228.109375 160.472656 C 228.226562 160.109375 228.332031 159.746094 228.429688 159.375 C 228.523438 159.003906 228.605469 158.632812 228.675781 158.257812 C 228.746094 157.882812 228.804688 157.503906 228.847656 157.125 C 228.894531 156.746094 228.929688 156.367188 228.949219 155.984375 C 228.96875 155.601562 228.976562 155.222656 228.972656 154.839844 C 228.96875 154.457031 228.953125 154.078125 228.925781 153.695312 C 228.898438 153.316406 228.855469 152.9375 228.800781 152.558594 C 228.75 152.179688 228.683594 151.804688 228.605469 151.429688 C 228.527344 151.054688 228.4375 150.683594 228.335938 150.316406 C 228.234375 149.949219 228.121094 149.585938 227.996094 149.226562 C 227.867188 148.863281 227.730469 148.507812 227.582031 148.15625 C 227.433594 147.804688 227.273438 147.457031 227.101562 147.117188 C 226.929688 146.777344 226.75 146.441406 226.554688 146.113281 C 226.363281 145.78125 226.160156 145.460938 225.945312 145.144531 C 225.730469 144.828125 225.507812 144.519531 225.273438 144.214844 C 225.039062 143.914062 224.792969 143.621094 224.542969 143.335938 C 224.289062 143.050781 224.027344 142.773438 223.753906 142.503906 C 223.484375 142.234375 223.203125 141.976562 222.914062 141.726562 C 222.625 141.476562 222.332031 141.234375 222.027344 141.003906 C 221.722656 140.773438 221.410156 140.550781 221.09375 140.339844 C 220.773438 140.128906 220.449219 139.929688 220.117188 139.738281 C 219.789062 139.550781 219.449219 139.371094 219.109375 139.203125 C 218.765625 139.035156 218.417969 138.878906 218.0625 138.734375 C 217.710938 138.585938 217.351562 138.453125 216.992188 138.332031 C 216.628906 138.210938 216.265625 138.101562 215.894531 138 C 215.527344 137.902344 215.152344 137.816406 214.78125 137.742188 C 214.40625 137.667969 214.027344 137.605469 213.648438 137.558594 C 213.269531 137.507812 212.890625 137.472656 212.511719 137.445312 C 212.128906 137.421875 211.75 137.410156 211.367188 137.410156 L 206.035156 137.410156 C 201.417969 112.4375 166.144531 112.402344 161.511719 137.410156 L 156.179688 137.410156 C 143.148438 136.972656 134.050781 152.457031 140.816406 163.617188 L 169.097656 214.078125 L 150.582031 214.078125 C 149.722656 214.078125 148.863281 214.121094 148.007812 214.207031 C 147.148438 214.292969 146.300781 214.417969 145.457031 214.585938 C 144.613281 214.753906 143.777344 214.964844 142.957031 215.214844 C 142.132812 215.464844 141.324219 215.753906 140.527344 216.085938 C 139.734375 216.414062 138.957031 216.785156 138.199219 217.1875 C 137.441406 217.59375 136.703125 218.039062 135.988281 218.515625 C 135.273438 218.992188 134.582031 219.503906 133.917969 220.050781 C 133.253906 220.597656 132.617188 221.175781 132.007812 221.785156 C 131.398438 222.390625 130.820312 223.027344 130.277344 223.695312 C 129.730469 224.359375 129.21875 225.050781 128.738281 225.765625 C 128.261719 226.480469 127.820312 227.214844 127.414062 227.976562 C 127.007812 228.734375 126.640625 229.511719 126.308594 230.304688 C 125.980469 231.101562 125.691406 231.910156 125.441406 232.734375 C 125.1875 233.554688 124.980469 234.390625 124.8125 235.234375 C 124.644531 236.078125 124.515625 236.925781 124.429688 237.78125 C 124.34375 238.640625 124.300781 239.496094 124.300781 240.359375 L 124.300781 248.679688 C 124.300781 249.214844 124.355469 249.742188 124.460938 250.265625 C 124.5625 250.792969 124.71875 251.300781 124.921875 251.792969 C 125.128906 252.289062 125.378906 252.757812 125.675781 253.203125 C 125.972656 253.648438 126.3125 254.058594 126.691406 254.4375 C 127.066406 254.816406 127.480469 255.152344 127.921875 255.449219 C 128.367188 255.746094 128.835938 256 129.332031 256.203125 C 129.824219 256.40625 130.335938 256.5625 130.859375 256.667969 C 131.382812 256.773438 131.914062 256.824219 132.445312 256.824219 L 197.996094 256.824219 C 198.6875 256.824219 199.371094 256.757812 200.046875 256.621094 C 200.726562 256.484375 201.382812 256.285156 202.023438 256.019531 C 202.660156 255.757812 203.265625 255.429688 203.839844 255.046875 C 204.414062 254.664062 204.949219 254.226562 205.4375 253.738281 C 205.925781 253.25 206.359375 252.71875 206.746094 252.144531 C 207.128906 251.570312 207.453125 250.960938 207.71875 250.324219 C 207.984375 249.6875 208.183594 249.027344 208.320312 248.351562 C 208.453125 247.671875 208.523438 246.988281 208.523438 246.296875 L 208.523438 224.605469 C 208.523438 223.933594 208.457031 223.269531 208.328125 222.609375 C 208.199219 221.949219 208.007812 221.308594 207.753906 220.683594 C 207.503906 220.0625 207.195312 219.46875 206.828125 218.90625 C 206.460938 218.339844 206.046875 217.816406 205.582031 217.335938 C 205.113281 216.851562 204.605469 216.414062 204.058594 216.027344 C 203.507812 215.640625 202.925781 215.3125 202.3125 215.035156 C 201.699219 214.761719 201.066406 214.546875 200.414062 214.390625 C 199.757812 214.238281 199.097656 214.148438 198.425781 214.121094 Z M 183.773438 123.484375 C 184.351562 123.484375 184.929688 123.511719 185.503906 123.570312 C 186.078125 123.628906 186.652344 123.710938 187.21875 123.824219 C 187.785156 123.9375 188.34375 124.078125 188.898438 124.246094 C 189.453125 124.417969 189.996094 124.609375 190.527344 124.832031 C 191.0625 125.054688 191.585938 125.300781 192.09375 125.574219 C 192.605469 125.847656 193.097656 126.144531 193.578125 126.464844 C 194.058594 126.785156 194.523438 127.132812 194.972656 127.496094 C 195.417969 127.863281 195.84375 128.253906 196.253906 128.660156 C 196.664062 129.070312 197.050781 129.5 197.417969 129.945312 C 197.785156 130.390625 198.128906 130.855469 198.449219 131.335938 C 198.769531 131.816406 199.066406 132.3125 199.339844 132.820312 C 199.613281 133.332031 199.859375 133.851562 200.082031 134.386719 C 200.304688 134.921875 200.5 135.464844 200.667969 136.019531 C 200.835938 136.570312 200.976562 137.132812 201.089844 137.699219 C 201.203125 138.265625 201.289062 138.835938 201.34375 139.410156 C 201.402344 139.988281 201.429688 140.5625 201.429688 141.140625 C 200.601562 164.511719 166.941406 164.503906 166.117188 141.140625 C 166.117188 140.5625 166.144531 139.988281 166.203125 139.410156 C 166.261719 138.835938 166.34375 138.265625 166.457031 137.699219 C 166.570312 137.128906 166.710938 136.570312 166.878906 136.019531 C 167.046875 135.464844 167.242188 134.921875 167.464844 134.386719 C 167.6875 133.851562 167.933594 133.332031 168.207031 132.820312 C 168.480469 132.3125 168.777344 131.816406 169.097656 131.335938 C 169.417969 130.855469 169.761719 130.390625 170.128906 129.945312 C 170.496094 129.496094 170.886719 129.070312 171.292969 128.660156 C 171.703125 128.25 172.128906 127.863281 172.578125 127.496094 C 173.023438 127.128906 173.488281 126.785156 173.96875 126.464844 C 174.449219 126.144531 174.945312 125.847656 175.453125 125.574219 C 175.964844 125.300781 176.484375 125.054688 177.019531 124.832031 C 177.554688 124.609375 178.097656 124.414062 178.652344 124.246094 C 179.203125 124.078125 179.765625 123.9375 180.332031 123.824219 C 180.898438 123.710938 181.46875 123.625 182.042969 123.570312 C 182.621094 123.511719 183.195312 123.484375 183.773438 123.484375 Z M 145.246094 148.621094 C 145.796875 147.660156 146.46875 146.792969 147.253906 146.011719 C 148.035156 145.230469 148.910156 144.5625 149.867188 144.011719 C 150.828125 143.460938 151.84375 143.042969 152.914062 142.761719 C 153.984375 142.480469 155.074219 142.339844 156.179688 142.347656 L 161.238281 142.347656 C 163.660156 170.714844 203.910156 170.675781 206.308594 142.347656 L 211.367188 142.347656 C 211.914062 142.351562 212.460938 142.394531 213.003906 142.46875 C 213.546875 142.546875 214.082031 142.65625 214.609375 142.800781 C 215.136719 142.945312 215.65625 143.125 216.160156 143.335938 C 216.664062 143.546875 217.15625 143.789062 217.628906 144.0625 C 218.101562 144.339844 218.558594 144.644531 218.992188 144.976562 C 219.429688 145.308594 219.839844 145.667969 220.226562 146.054688 C 220.617188 146.441406 220.980469 146.851562 221.3125 147.285156 C 221.648438 147.71875 221.957031 148.171875 222.234375 148.644531 C 222.511719 149.117188 222.757812 149.605469 222.972656 150.109375 C 223.183594 150.613281 223.367188 151.128906 223.515625 151.65625 C 223.660156 152.183594 223.773438 152.71875 223.855469 153.261719 C 223.933594 153.804688 223.976562 154.347656 223.984375 154.898438 C 223.992188 155.445312 223.964844 155.992188 223.902344 156.535156 C 223.84375 157.078125 223.746094 157.617188 223.613281 158.148438 C 223.484375 158.683594 223.316406 159.203125 223.117188 159.714844 C 222.921875 160.226562 222.691406 160.71875 222.425781 161.203125 L 193.503906 212.816406 L 186.789062 200.75 L 202.332031 172.082031 C 202.480469 171.796875 202.566406 171.492188 202.597656 171.167969 C 202.625 170.847656 202.59375 170.53125 202.496094 170.222656 C 202.402344 169.914062 202.253906 169.632812 202.046875 169.382812 C 201.84375 169.132812 201.597656 168.933594 201.3125 168.777344 C 201.03125 168.625 200.726562 168.53125 200.40625 168.496094 C 200.085938 168.460938 199.769531 168.484375 199.457031 168.574219 C 199.148438 168.664062 198.863281 168.808594 198.609375 169.007812 C 198.355469 169.207031 198.148438 169.449219 197.988281 169.730469 L 183.945312 195.636719 L 169.515625 169.707031 C 169.351562 169.425781 169.144531 169.1875 168.886719 168.992188 C 168.628906 168.792969 168.347656 168.652344 168.035156 168.566406 C 167.722656 168.480469 167.40625 168.457031 167.085938 168.496094 C 166.765625 168.535156 166.464844 168.632812 166.179688 168.792969 C 165.898438 168.949219 165.65625 169.152344 165.453125 169.40625 C 165.25 169.65625 165.105469 169.9375 165.011719 170.25 C 164.921875 170.558594 164.890625 170.875 164.925781 171.195312 C 164.957031 171.519531 165.046875 171.820312 165.199219 172.105469 L 190.664062 217.875 C 190.410156 218.589844 190.054688 219.253906 189.597656 219.867188 C 189.144531 220.476562 188.609375 221.007812 187.996094 221.457031 C 187.378906 221.90625 186.714844 222.253906 185.992188 222.503906 C 185.273438 222.75 184.535156 222.890625 183.773438 222.914062 C 183.15625 222.917969 182.546875 222.839844 181.953125 222.683594 C 181.355469 222.523438 180.792969 222.285156 180.261719 221.972656 C 179.726562 221.664062 179.246094 221.285156 178.816406 220.84375 C 178.386719 220.402344 178.023438 219.910156 177.722656 219.367188 L 145.121094 161.199219 C 144.578125 160.238281 144.164062 159.222656 143.890625 158.15625 C 143.613281 157.085938 143.480469 155.996094 143.492188 154.894531 C 143.5 153.789062 143.65625 152.703125 143.953125 151.640625 C 144.25 150.578125 144.679688 149.570312 145.246094 148.621094 Z M 203.585938 246.296875 C 203.585938 246.664062 203.546875 247.027344 203.476562 247.386719 C 203.402344 247.746094 203.296875 248.097656 203.15625 248.433594 C 203.015625 248.773438 202.84375 249.097656 202.640625 249.402344 C 202.4375 249.707031 202.203125 249.988281 201.945312 250.246094 C 201.6875 250.507812 201.402344 250.738281 201.097656 250.941406 C 200.792969 251.148438 200.472656 251.320312 200.132812 251.460938 C 199.792969 251.601562 199.445312 251.707031 199.085938 251.777344 C 198.726562 251.851562 198.363281 251.886719 197.996094 251.886719 L 132.445312 251.886719 C 132.023438 251.886719 131.613281 251.804688 131.21875 251.640625 C 130.828125 251.476562 130.480469 251.246094 130.179688 250.945312 C 129.878906 250.644531 129.648438 250.296875 129.484375 249.90625 C 129.320312 249.511719 129.242188 249.105469 129.238281 248.679688 L 129.238281 240.359375 C 129.242188 239.660156 129.277344 238.960938 129.34375 238.265625 C 129.414062 237.570312 129.515625 236.882812 129.652344 236.195312 C 129.789062 235.511719 129.960938 234.832031 130.164062 234.164062 C 130.367188 233.496094 130.601562 232.839844 130.871094 232.195312 C 131.136719 231.550781 131.4375 230.917969 131.765625 230.300781 C 132.097656 229.6875 132.457031 229.085938 132.84375 228.507812 C 133.230469 227.925781 133.648438 227.367188 134.089844 226.824219 C 134.535156 226.285156 135.003906 225.769531 135.496094 225.273438 C 135.992188 224.78125 136.507812 224.3125 137.046875 223.867188 C 137.589844 223.425781 138.148438 223.007812 138.730469 222.621094 C 139.3125 222.230469 139.910156 221.871094 140.527344 221.542969 C 141.140625 221.214844 141.773438 220.914062 142.417969 220.648438 C 143.0625 220.378906 143.71875 220.144531 144.390625 219.941406 C 145.058594 219.738281 145.734375 219.566406 146.417969 219.429688 C 147.105469 219.292969 147.792969 219.191406 148.488281 219.121094 C 149.183594 219.050781 149.882812 219.015625 150.582031 219.015625 L 171.867188 219.015625 L 173.414062 221.78125 C 173.9375 222.691406 174.570312 223.519531 175.308594 224.265625 C 176.050781 225.011719 176.875 225.648438 177.785156 226.175781 C 178.695312 226.703125 179.65625 227.101562 180.671875 227.375 C 181.683594 227.648438 182.71875 227.785156 183.769531 227.785156 C 184.820312 227.785156 185.851562 227.648438 186.867188 227.378906 C 187.882812 227.105469 188.84375 226.707031 189.753906 226.179688 C 190.664062 225.652344 191.488281 225.015625 192.230469 224.273438 C 192.972656 223.527344 193.605469 222.699219 194.128906 221.789062 L 195.679688 219.015625 L 197.996094 219.015625 C 198.363281 219.015625 198.726562 219.050781 199.085938 219.125 C 199.445312 219.195312 199.792969 219.300781 200.132812 219.441406 C 200.472656 219.582031 200.792969 219.753906 201.097656 219.960938 C 201.402344 220.164062 201.6875 220.394531 201.945312 220.65625 C 202.203125 220.914062 202.4375 221.195312 202.640625 221.5 C 202.84375 221.804688 203.015625 222.128906 203.15625 222.46875 C 203.296875 222.804688 203.40625 223.15625 203.476562 223.515625 C 203.546875 223.875 203.585938 224.238281 203.585938 224.605469 Z M 203.585938 246.296875 " fill-opacity="1" fill-rule="nonzero"/></g></svg>