<svg xmlns="http://www.w3.org/2000/svg" xmlns:xlink="http://www.w3.org/1999/xlink" width="500" zoomAndPan="magnify" viewBox="0 0 375 374.999991" height="500" preserveAspectRatio="xMidYMid meet" version="1.0"><defs><clipPath id="71c25e908f"><path d="M 112.5 146 L 262.5 146 L 262.5 249.375 L 112.5 249.375 Z M 112.5 146 " clip-rule="nonzero"/></clipPath><clipPath id="b4d06b86c7"><path d="M 158 125.625 L 217 125.625 L 217 145 L 158 145 Z M 158 125.625 " clip-rule="nonzero"/></clipPath></defs><path fill="#e73844" d="M 193.597656 191.789062 L 209.539062 191.789062 C 211.175781 191.789062 212.511719 193.128906 212.511719 194.761719 L 212.511719 201.011719 C 212.511719 202.644531 211.175781 203.984375 209.539062 203.984375 L 193.597656 203.984375 L 193.597656 219.925781 C 193.597656 221.5625 192.257812 222.898438 190.625 222.898438 L 184.375 222.898438 C 182.742188 222.898438 181.402344 221.5625 181.402344 219.925781 L 181.402344 203.984375 L 165.460938 203.984375 C 163.824219 203.984375 162.488281 202.644531 162.488281 201.011719 L 162.488281 194.761719 C 162.488281 193.128906 163.824219 191.789062 165.460938 191.789062 L 181.402344 191.789062 L 181.402344 175.847656 C 181.402344 174.210938 182.742188 172.875 184.375 172.875 L 190.625 172.875 C 192.257812 172.875 193.597656 174.210938 193.597656 175.847656 Z M 193.597656 191.789062 " fill-opacity="1" fill-rule="nonzero"/><g clip-path="url(#71c25e908f)"><path fill="#e73844" d="M 126.789062 146.421875 C 118.933594 146.421875 112.511719 152.84375 112.511719 160.703125 L 112.511719 235.070312 C 112.511719 242.929688 118.933594 249.351562 126.789062 249.351562 L 135.539062 249.351562 L 135.539062 146.421875 Z M 146.050781 146.421875 L 146.050781 249.375 L 227.261719 249.375 L 227.261719 146.421875 Z M 187.5 228.847656 C 170.394531 228.847656 156.539062 214.992188 156.539062 197.886719 C 156.539062 180.78125 170.394531 166.925781 187.5 166.925781 C 204.605469 166.925781 218.460938 180.78125 218.460938 197.886719 C 218.460938 214.992188 204.605469 228.847656 187.5 228.847656 Z M 248.210938 146.421875 L 237.773438 146.421875 L 237.773438 249.375 L 248.210938 249.375 C 256.066406 249.375 262.488281 242.953125 262.488281 235.097656 L 262.488281 160.703125 C 262.488281 152.84375 256.066406 146.421875 248.210938 146.421875 Z M 248.210938 146.421875 " fill-opacity="1" fill-rule="nonzero"/></g><g clip-path="url(#b4d06b86c7)"><path fill="#e73844" d="M 216.28125 131.796875 L 216.28125 141.339844 C 216.28125 143.101562 214.84375 144.539062 213.082031 144.539062 C 211.324219 144.539062 209.886719 143.101562 209.886719 141.339844 L 209.886719 140.351562 C 209.886719 136.953125 207.109375 134.175781 203.710938 134.175781 L 171.289062 134.175781 C 167.890625 134.175781 165.113281 136.953125 165.113281 140.351562 L 165.113281 141.339844 C 165.113281 143.101562 163.675781 144.539062 161.917969 144.539062 C 160.15625 144.539062 158.71875 143.101562 158.71875 141.339844 L 158.71875 131.796875 C 158.71875 128.402344 161.496094 125.625 164.890625 125.625 L 210.109375 125.625 C 213.503906 125.625 216.28125 128.402344 216.28125 131.796875 Z M 216.28125 131.796875 " fill-opacity="1" fill-rule="nonzero"/></g><path fill="#ffffff" d="M 212.488281 194.761719 L 212.488281 201.011719 C 212.488281 202.644531 211.148438 203.984375 209.511719 203.984375 L 193.574219 203.984375 L 193.574219 219.925781 C 193.574219 221.5625 192.234375 222.898438 190.597656 222.898438 L 184.351562 222.898438 C 182.714844 222.898438 181.375 221.5625 181.375 219.925781 L 181.375 203.984375 L 165.4375 203.984375 C 163.800781 203.984375 162.460938 202.644531 162.460938 201.011719 L 162.460938 194.761719 C 162.460938 193.128906 163.800781 191.789062 165.4375 191.789062 L 181.375 191.789062 L 181.375 175.847656 C 181.375 174.210938 182.714844 172.875 184.351562 172.875 L 190.597656 172.875 C 192.234375 172.875 193.574219 174.210938 193.574219 175.847656 L 193.574219 191.789062 L 209.511719 191.789062 C 211.175781 191.789062 212.488281 193.128906 212.488281 194.761719 Z M 212.488281 194.761719 " fill-opacity="1" fill-rule="nonzero"/><path fill="#e73844" d="M 212.488281 194.761719 L 212.488281 201.011719 C 212.488281 202.644531 211.148438 203.984375 209.511719 203.984375 L 193.574219 203.984375 L 193.574219 219.925781 C 193.574219 221.5625 192.234375 222.898438 190.597656 222.898438 L 184.351562 222.898438 C 182.714844 222.898438 181.375 221.5625 181.375 219.925781 L 181.375 203.984375 L 165.4375 203.984375 C 163.800781 203.984375 162.460938 202.644531 162.460938 201.011719 L 162.460938 194.761719 C 162.460938 193.128906 163.800781 191.789062 165.4375 191.789062 L 181.375 191.789062 L 181.375 175.847656 C 181.375 174.210938 182.714844 172.875 184.351562 172.875 L 190.597656 172.875 C 192.234375 172.875 193.574219 174.210938 193.574219 175.847656 L 193.574219 191.789062 L 209.511719 191.789062 C 211.175781 191.789062 212.488281 193.128906 212.488281 194.761719 Z M 212.488281 194.761719 " fill-opacity="1" fill-rule="nonzero"/></svg>